<?xml version="1.0" encoding="UTF-8"?><svg id="_1" xmlns="http://www.w3.org/2000/svg" viewBox="0 0 112.8 104.47"><defs><style>.cls-1{fill:#fff;stroke-width:0px;}</style></defs><path class="cls-1" d="M2.31,54l32.99,15.33c1.45.67,3.17.42,4.36-.65l31.76-28.56c1.39-1.25,3.36.66,2.15,2.09l-27.49,32.54c-.61.72-.94,1.64-.94,2.58v24.15c0,2.81,3.51,4.08,5.31,1.92l12.75-15.37c1.18-1.43,3.2-1.85,4.86-1.03l20.21,10.06c2.34,1.17,5.16-.2,5.7-2.76L112.71,4.83c.67-3.19-2.55-5.8-5.53-4.48L2.38,46.71c-3.14,1.39-3.18,5.84-.07,7.28Z"/></svg>