<svg xmlns="http://www.w3.org/2000/svg" width="400" height="1600" fill="none"><path fill="#F9BB2E" d="M391.16 84.61c-.17 7.03-3.48 11.47-9.9 13.14-3.68.96-7 2.26-9.65 5.17-2.22 2.43-5.5 2.88-8.53 3.67-1.2.31-2.44.15-2.93-1.18-.47-1.26.8-1.47 1.5-1.96.95-.66 2.37-1.2 2.1-2.5-.27-1.26-1.78-.77-2.74-.95-8.4-1.6-16.5-11.55-16.17-19.94.03-.9-.16-2.07 1-2.32.95-.2 1.36.79 1.7 1.5 2.3 4.64 6.32 7.3 10.76 9.55 3.22 1.62 6.43 3.26 9.3 5.49 2.04 1.58 4.23.96 6.25.07 6.1-2.68 12.25-5.35 15.02-12.18.21-.54.65-1.08 1.3-.93.63.14.8.79.86 1.38.08.81.1 1.63.12 1.99h.01ZM37.18 627.65c-3.09-.26-6.76.62-10.49.71-.89.02-2.1.27-2.39-.88-.25-1.07.8-1.62 1.61-2.02 7.44-3.6 15.18-5.94 23.56-5.52 2.1.1 3.74 1.06 5.02 2.77 1.53 2.05 3.17 4.02 4.8 5.99 1.72 2.06 3.84 2.5 6.59 2.9 4.28.66 8.08 3.57 12.49 4.6.7.16 1.17 1.65 1.6 2.6 1.93 4.36 3.63 8.84 6.31 12.83.49.72 1.28 1.7.3 2.47-.9.7-1.78-.12-2.47-.7a60.13 60.13 0 0 1-7.3-7.51c-3.93-4.76-7.3-5.65-13.22-3.67-3.8 1.26-7.77 1.42-11.73 1.57-1.68.07-2.87-.75-3.85-2.02-1.45-1.88-1.18-3.19 1.2-3.84l.69-.18c1.9-.43 4.6-.4 5.04-2.45.48-2.3-2.22-3.25-3.84-4.43-3.93-2.84-6.22-3.32-13.9-3.22h-.02ZM116.16 1395.61c-.17 7.04-3.48 11.47-9.9 13.14-3.68.96-7 2.26-9.65 5.17-2.22 2.43-5.5 2.88-8.53 3.67-1.2.32-2.44.15-2.93-1.18-.47-1.26.8-1.47 1.5-1.96.95-.66 2.37-1.21 2.1-2.5-.27-1.25-1.78-.76-2.74-.95-8.4-1.61-16.5-11.55-16.17-19.94.03-.9-.16-2.07 1-2.32.95-.21 1.36.79 1.7 1.49 2.3 4.65 6.32 7.32 10.76 9.56 3.22 1.62 6.43 3.26 9.3 5.49 2.04 1.58 4.23.96 6.25.07 6.1-2.68 12.25-5.35 15.02-12.18.21-.54.65-1.08 1.3-.93.63.14.8.79.86 1.38.08.81.1 1.63.12 1.99h.01Z"/></svg>