<svg xmlns="http://www.w3.org/2000/svg" width="1440" height="2598" fill="none"><path fill="#F9BB2E" d="M1030 638.3c-.2 10-4.9 16.4-14 18.8-5.3 1.3-10 3.2-13.8 7.4-3.2 3.4-7.9 4-12.2 5.2-1.8.4-3.5.2-4.2-1.7-.7-1.8 1.1-2 2.1-2.8 1.4-1 3.4-1.7 3-3.6-.4-1.8-2.5-1-3.9-1.3-12-2.3-23.5-16.5-23-28.5 0-1.3-.3-3 1.4-3.3 1.3-.3 1.9 1.1 2.4 2.1 3.3 6.7 9 10.5 15.3 13.7 4.6 2.3 9.2 4.6 13.3 7.8 3 2.3 6 1.4 9 .1 8.7-3.8 17.5-7.6 21.4-17.4.3-.8 1-1.5 1.9-1.3.9.2 1.1 1.1 1.2 2l.2 2.8ZM142 1876.3c-.2 10-4.9 16.4-14 18.8-5.3 1.3-10 3.2-13.8 7.4-3.2 3.4-7.9 4-12.2 5.2-1.8.5-3.5.2-4.2-1.7-.7-1.8 1.1-2 2.1-2.8 1.4-1 3.4-1.7 3-3.6-.4-1.8-2.5-1-3.9-1.3-12-2.3-23.5-16.5-23-28.5 0-1.3-.3-3 1.3-3.3 1.4-.3 2 1.1 2.5 2.1 3.3 6.7 9 10.5 15.3 13.7 4.6 2.3 9.2 4.6 13.3 7.8 3 2.3 6 1.4 9 .1 8.7-3.8 17.5-7.6 21.4-17.4.3-.8 1-1.5 1.9-1.3.9.2 1.1 1.1 1.2 2l.2 2.8ZM261.1 511.5c-4.4-.4-9.7.9-15 1-1.2 0-3 .4-3.4-1.2-.3-1.6 1.2-2.4 2.3-3a68.7 68.7 0 0 1 33.7-7.8c3 .1 5.3 1.5 7.1 4 2.2 2.9 4.6 5.7 7 8.5 2.4 3 5.4 3.6 9.3 4.1 6.1 1 11.6 5.1 17.8 6.6 1 .2 1.7 2.4 2.3 3.7 2.8 6.3 5.2 12.6 9 18.4.8 1 1.9 2.4.5 3.5-1.3 1-2.6-.2-3.5-1a85.9 85.9 0 0 1-10.5-10.8c-5.6-6.8-10.4-8-18.9-5.2-5.4 1.8-11 2-16.7 2.3-2.4 0-4.1-1.1-5.5-3-2-2.6-1.7-4.5 1.7-5.4l1-.3c2.7-.6 6.6-.5 7.2-3.5.7-3.3-3.2-4.6-5.5-6.3-5.6-4-8.9-4.7-19.9-4.6ZM920.1 1985.5c-4.4-.4-9.6.9-15 1-1.2 0-3 .4-3.4-1.2-.4-1.6 1.1-2.4 2.3-3a68.7 68.7 0 0 1 33.7-7.8c3 .1 5.3 1.5 7.1 4 2.2 2.9 4.6 5.7 7 8.5 2.4 3 5.4 3.6 9.3 4.2 6.1.9 11.6 5 17.9 6.5 1 .2 1.6 2.4 2.2 3.7 2.8 6.3 5.2 12.6 9 18.4.8 1 1.9 2.4.5 3.5-1.3 1-2.6-.2-3.5-1a85.9 85.9 0 0 1-10.5-10.8c-5.6-6.8-10.4-8-18.9-5.2-5.4 1.8-11 2-16.7 2.3-2.4 0-4.1-1.1-5.5-3-2-2.6-1.7-4.5 1.7-5.4l1-.3c2.7-.6 6.6-.5 7.2-3.5.7-3.3-3.2-4.6-5.5-6.3-5.6-4-8.9-4.7-19.9-4.6Z"/></svg>