<svg width="1440" height="2160" viewBox="0 0 1440 2160" fill="none" xmlns="http://www.w3.org/2000/svg">
<path d="M920.12 1735.5C915.7 1735.13 910.45 1736.38 905.13 1736.52C903.86 1736.55 902.12 1736.9 901.72 1735.26C901.35 1733.73 902.85 1732.94 904.02 1732.37C914.64 1727.24 925.7 1723.89 937.67 1724.49C940.66 1724.64 943.01 1726 944.84 1728.45C947.03 1731.37 949.37 1734.19 951.71 1737C954.16 1739.95 957.19 1740.56 961.11 1741.15C967.23 1742.08 972.66 1746.25 978.95 1747.71C979.95 1747.94 980.63 1750.07 981.23 1751.43C984 1757.66 986.43 1764.05 990.26 1769.76C990.95 1770.79 992.09 1772.19 990.68 1773.29C989.4 1774.29 988.14 1773.11 987.16 1772.28C983.35 1769.04 979.93 1765.4 976.74 1761.55C971.12 1754.75 966.3 1753.48 957.84 1756.31C952.42 1758.12 946.74 1758.34 941.08 1758.56C938.69 1758.65 936.98 1757.48 935.58 1755.67C933.51 1752.99 933.9 1751.12 937.31 1750.19C937.63 1750.1 937.95 1750.01 938.28 1749.93C941.01 1749.32 944.86 1749.37 945.48 1746.43C946.17 1743.15 942.32 1741.78 940 1740.1C934.38 1736.04 931.11 1735.36 920.13 1735.5H920.12Z" fill="#F9BB2E"/>
<path d="M142.09 1626.3C141.84 1636.35 137.11 1642.69 127.95 1645.07C122.68 1646.44 117.95 1648.3 114.16 1652.45C110.99 1655.93 106.3 1656.57 101.97 1657.7C100.25 1658.15 98.48 1657.91 97.78 1656.01C97.11 1654.22 98.93 1653.92 99.94 1653.21C101.29 1652.27 103.31 1651.49 102.92 1649.64C102.54 1647.85 100.39 1648.55 99.01 1648.29C87.01 1645.99 75.45 1631.78 75.91 1619.8C75.96 1618.52 75.68 1616.84 77.35 1616.48C78.7 1616.19 79.28 1617.61 79.78 1618.62C83.05 1625.26 88.8 1629.07 95.14 1632.27C99.74 1634.58 104.33 1636.93 108.43 1640.11C111.35 1642.37 114.47 1641.48 117.36 1640.21C126.07 1636.38 134.86 1632.57 138.81 1622.82C139.12 1622.04 139.74 1621.27 140.67 1621.48C141.57 1621.68 141.82 1622.61 141.9 1623.46C142.01 1624.62 142.04 1625.78 142.07 1626.3H142.09Z" fill="#F9BB2E"/>
<path d="M1030.09 388.3C1029.84 398.35 1025.11 404.69 1015.95 407.07C1010.68 408.44 1005.95 410.3 1002.16 414.45C998.99 417.93 994.3 418.57 989.97 419.7C988.25 420.15 986.48 419.91 985.78 418.01C985.11 416.22 986.93 415.92 987.94 415.21C989.29 414.27 991.31 413.49 990.92 411.64C990.54 409.85 988.39 410.55 987.01 410.29C975.01 407.99 963.45 393.78 963.91 381.8C963.96 380.52 963.68 378.84 965.35 378.48C966.7 378.19 967.28 379.61 967.78 380.62C971.05 387.26 976.8 391.07 983.14 394.27C987.74 396.58 992.33 398.93 996.43 402.11C999.35 404.37 1002.47 403.48 1005.36 402.21C1014.07 398.38 1022.86 394.57 1026.81 384.82C1027.12 384.04 1027.74 383.27 1028.67 383.48C1029.57 383.68 1029.82 384.61 1029.9 385.46C1030.01 386.62 1030.04 387.78 1030.07 388.3H1030.09Z" fill="#F9BB2E"/>
<path d="M261.12 261.5C256.7 261.13 251.45 262.38 246.13 262.52C244.86 262.55 243.12 262.9 242.72 261.26C242.35 259.73 243.85 258.94 245.02 258.37C255.64 253.24 266.7 249.89 278.67 250.49C281.66 250.64 284.01 252 285.84 254.45C288.03 257.37 290.37 260.19 292.71 263C295.16 265.95 298.19 266.56 302.11 267.15C308.23 268.08 313.66 272.25 319.95 273.71C320.95 273.94 321.63 276.07 322.23 277.43C325 283.66 327.43 290.05 331.26 295.76C331.95 296.79 333.09 298.19 331.68 299.29C330.4 300.29 329.14 299.11 328.16 298.28C324.35 295.04 320.93 291.4 317.74 287.55C312.12 280.75 307.3 279.48 298.84 282.31C293.42 284.12 287.74 284.34 282.08 284.56C279.69 284.65 277.98 283.48 276.58 281.67C274.51 278.99 274.9 277.12 278.31 276.19C278.63 276.1 278.95 276.01 279.28 275.93C282.01 275.32 285.86 275.37 286.48 272.43C287.17 269.15 283.32 267.78 281 266.1C275.38 262.04 272.11 261.36 261.13 261.5H261.12Z" fill="#F9BB2E"/>
</svg>
