<?xml version="1.0" encoding="UTF-8"?><svg id="_レイヤー_1" xmlns="http://www.w3.org/2000/svg" viewBox="0 0 100 100"><defs><style>.cls-1{fill:#f9bb2e;stroke-width:0px;}</style></defs><path class="cls-1" d="M23.12,39.5c-4.42-.37-9.67.88-14.99,1.02-1.27.03-3.01.38-3.41-1.26-.37-1.53,1.13-2.32,2.3-2.89,10.62-5.13,21.68-8.48,33.65-7.88,2.99.15,5.34,1.51,7.17,3.96,2.19,2.92,4.53,5.74,6.87,8.55,2.45,2.95,5.48,3.56,9.4,4.15,6.12.93,11.55,5.1,17.84,6.56,1,.23,1.68,2.36,2.28,3.72,2.77,6.23,5.2,12.62,9.03,18.33.69,1.03,1.83,2.43.42,3.53-1.28,1-2.54-.18-3.52-1.01-3.81-3.24-7.23-6.88-10.42-10.73-5.62-6.8-10.44-8.07-18.9-5.24-5.42,1.81-11.1,2.03-16.76,2.25-2.39.09-4.1-1.08-5.5-2.89-2.07-2.68-1.68-4.55,1.73-5.48.32-.09.64-.18.97-.26,2.73-.61,6.58-.56,7.2-3.5.69-3.28-3.16-4.65-5.48-6.33-5.62-4.06-8.89-4.74-19.87-4.6Z"/></svg>