<svg xmlns="http://www.w3.org/2000/svg" width="400" height="1600" fill="none"><g fill="#F9BB2E" clip-path="url(#a)"><path d="M116.2 1395.6c-.2 7-3.5 11.5-10 13.2-3.6 1-7 2.2-9.6 5.1-2.2 2.4-5.5 2.9-8.5 3.7-1.2.3-2.5.1-3-1.2-.4-1.3.9-1.5 1.6-2 .9-.6 2.3-1.2 2-2.5-.2-1.2-1.7-.7-2.7-.9-8.4-1.6-16.5-11.5-16.2-20 0-.8-.1-2 1-2.3 1-.2 1.4.8 1.7 1.5a22 22 0 0 0 10.8 9.6c3.2 1.6 6.4 3.3 9.3 5.5 2 1.6 4.2 1 6.3 0 6-2.6 12.2-5.3 15-12.1.2-.6.6-1.1 1.3-1 .6.2.8.8.8 1.4l.1 2ZM37.2 627.6c-3.1-.2-6.8.7-10.5.8-.9 0-2.1.2-2.4-1-.3-1 .8-1.5 1.6-2 7.4-3.5 15.2-5.9 23.6-5.5 2 .1 3.7 1.1 5 2.8l4.8 6c1.7 2 3.8 2.5 6.6 2.9 4.3.7 8 3.6 12.5 4.6.7.2 1.1 1.6 1.6 2.6 1.9 4.4 3.6 8.8 6.3 12.8.5.8 1.3 1.7.3 2.5-1 .7-1.8-.1-2.5-.7-2.7-2.3-5-4.8-7.3-7.5-4-4.8-7.3-5.7-13.2-3.7-3.8 1.3-7.8 1.4-11.7 1.6-1.7 0-3-.8-3.9-2-1.4-2-1.2-3.2 1.2-3.9l.7-.1c2-.5 4.6-.4 5-2.5.5-2.3-2.2-3.3-3.8-4.4-4-2.9-6.2-3.3-14-3.3ZM391.2 84.6c-.2 7-3.5 11.5-10 13.1-3.6 1-7 2.3-9.6 5.2-2.2 2.5-5.5 2.9-8.5 3.7-1.2.3-2.5.1-3-1.2-.4-1.2.9-1.5 1.6-2 .9-.6 2.3-1.2 2-2.5-.2-1.2-1.7-.7-2.7-.9-8.4-1.6-16.5-11.6-16.2-20 0-.8-.1-2 1-2.3 1-.2 1.4.8 1.7 1.5a22 22 0 0 0 10.8 9.6c3.2 1.6 6.4 3.3 9.3 5.5 2 1.6 4.2 1 6.3 0 6-2.6 12.2-5.3 15-12.1.2-.6.6-1.1 1.3-1 .6.2.8.8.8 1.4l.1 2Z"/></g><defs><clipPath id="a"><path fill="#fff" d="M0 0h400v1600H0z"/></clipPath></defs></svg>