<svg xmlns="http://www.w3.org/2000/svg" width="1440" height="2160" fill="none"><path fill="#F9BB2E" d="M1019.22 1735.5c-4.42-.37-9.67.88-14.99 1.02-1.27.03-3.01.38-3.41-1.26-.37-1.53 1.13-2.32 2.3-2.89 10.62-5.13 21.68-8.48 33.65-7.88a9.17 9.17 0 0 1 7.17 3.96c2.19 2.92 4.53 5.74 6.87 8.55 2.45 2.95 5.48 3.56 9.4 4.15 6.12.93 11.55 5.1 17.84 6.56 1 .23 1.68 2.36 2.28 3.72 2.77 6.23 5.2 12.62 9.03 18.33.69 1.03 1.83 2.43.42 3.53-1.28 1-2.54-.18-3.52-1.01a85.9 85.9 0 0 1-10.42-10.73c-5.62-6.8-10.44-8.07-18.9-5.24-5.42 1.81-11.1 2.03-16.76 2.25-2.39.09-4.1-1.08-5.5-2.89-2.07-2.68-1.68-4.55 1.73-5.48l.97-.26c2.73-.61 6.58-.56 7.2-3.5.69-3.28-3.16-4.65-5.48-6.33-5.62-4.06-8.89-4.74-19.87-4.6h-.01ZM241.2 1626.3c-.26 10.05-4.99 16.39-14.15 18.77-5.27 1.37-10 3.23-13.79 7.38-3.17 3.48-7.86 4.12-12.19 5.25-1.72.45-3.49.21-4.19-1.69-.67-1.79 1.15-2.09 2.16-2.8 1.35-.94 3.37-1.72 2.98-3.57-.38-1.79-2.53-1.09-3.9-1.35-12-2.3-23.57-16.51-23.1-28.49.04-1.28-.24-2.96 1.43-3.32 1.35-.29 1.93 1.13 2.43 2.14 3.27 6.64 9.02 10.45 15.36 13.65 4.6 2.31 9.2 4.66 13.3 7.84 2.91 2.26 6.03 1.37 8.92.1 8.71-3.83 17.5-7.64 21.45-17.39.31-.78.93-1.55 1.86-1.34.9.2 1.15 1.13 1.23 1.98.11 1.16.14 2.32.17 2.84h.02ZM1129.19 388.3c-.25 10.05-4.98 16.39-14.14 18.77-5.27 1.37-10 3.23-13.79 7.38-3.17 3.48-7.86 4.12-12.19 5.25-1.72.45-3.49.21-4.19-1.69-.67-1.79 1.15-2.09 2.16-2.8 1.35-.94 3.37-1.72 2.98-3.57-.38-1.79-2.53-1.09-3.91-1.35-12-2.3-23.56-16.51-23.1-28.49.05-1.28-.23-2.96 1.44-3.32 1.35-.29 1.93 1.13 2.43 2.14 3.27 6.64 9.02 10.45 15.36 13.65 4.6 2.31 9.19 4.66 13.29 7.84 2.92 2.26 6.04 1.37 8.93.1 8.71-3.83 17.5-7.64 21.45-17.39.31-.78.93-1.55 1.86-1.34.9.2 1.15 1.13 1.23 1.98.11 1.16.14 2.32.17 2.84h.02ZM360.22 261.5c-4.42-.37-9.67.88-14.99 1.02-1.27.03-3 .38-3.4-1.26-.38-1.53 1.12-2.32 2.3-2.89 10.61-5.13 21.67-8.48 33.64-7.88a9.17 9.17 0 0 1 7.17 3.96c2.2 2.92 4.53 5.74 6.87 8.55 2.45 2.95 5.48 3.56 9.4 4.15 6.12.93 11.55 5.1 17.84 6.56 1 .23 1.68 2.36 2.28 3.72 2.77 6.23 5.2 12.62 9.03 18.33.7 1.03 1.83 2.43.42 3.53-1.28 1-2.54-.18-3.52-1.01a85.9 85.9 0 0 1-10.42-10.73c-5.62-6.8-10.44-8.07-18.9-5.24-5.42 1.81-11.1 2.03-16.76 2.25-2.39.09-4.1-1.08-5.5-2.89-2.07-2.68-1.68-4.55 1.73-5.48l.97-.26c2.73-.61 6.58-.56 7.2-3.5.7-3.28-3.16-4.65-5.48-6.33-5.62-4.06-8.89-4.74-19.87-4.6Z"/></svg>