<?xml version="1.0" encoding="UTF-8"?><svg id="_レイヤー_1" xmlns="http://www.w3.org/2000/svg" viewBox="0 0 100 100"><defs><style>.cls-1{fill:#f9bb2e;stroke-width:0px;}</style></defs><path class="cls-1" d="M83.09,42.3c-.25,10.05-4.98,16.39-14.14,18.77-5.27,1.37-10,3.23-13.79,7.38-3.17,3.48-7.86,4.12-12.19,5.25-1.72.45-3.49.21-4.19-1.69-.67-1.79,1.15-2.09,2.16-2.8,1.35-.94,3.37-1.72,2.98-3.57-.38-1.79-2.53-1.09-3.91-1.35-12-2.3-23.56-16.51-23.1-28.49.05-1.28-.23-2.96,1.44-3.32,1.35-.29,1.93,1.13,2.43,2.14,3.27,6.64,9.02,10.45,15.36,13.65,4.6,2.31,9.19,4.66,13.29,7.84,2.92,2.26,6.04,1.37,8.93.1,8.71-3.83,17.5-7.64,21.45-17.39.31-.78.93-1.55,1.86-1.34.9.2,1.15,1.13,1.23,1.98.11,1.16.14,2.32.17,2.84Z"/></svg>