<svg xmlns="http://www.w3.org/2000/svg" width="1440" height="2160" fill="none"><g clip-path="url(#a)"><path fill="#F7E8D2" d="M282 1952.5c0 19.6-28 35.5-62.5 35.5s-62.5-15.9-62.5-35.5 28-35.5 62.5-35.5 62.5 15.9 62.5 35.5ZM557 1988c0 18.2-21.3 33-47.5 33s-47.5-14.8-47.5-33 21.3-33 47.5-33 47.5 14.8 47.5 33Z"/><path fill="#F7E8D2" d="M594 1964c0 13.3-16.8 24-37.5 24s-37.5-10.8-37.5-24c0-13.3 16.8-24 37.5-24s37.5 10.8 37.5 24ZM207 1926c0 33.7-33.1 61-74 61s-74-27.3-74-61 33.1-61 74-61 74 27.3 74 61Z"/><path fill="#F7E8D2" d="M257 1895.5c0 27.9-26.2 50.5-58.5 50.5s-58.5-22.6-58.5-50.5 26.2-50.5 58.5-50.5 58.5 22.6 58.5 50.5Z"/><path fill="#F7E8D2" d="M330 1911.5c0 19-24.8 34.5-55.5 34.5s-55.5-15.5-55.5-34.5 24.8-34.5 55.5-34.5 55.5 15.5 55.5 34.5Z"/><path fill="#F7E8D2" d="M373 1945c0 17.7-25.5 32-57 32s-57-14.3-57-32 25.5-32 57-32 57 14.3 57 32ZM1143 1804.5c0 37.3-40 67.5-89.5 67.5-49.4 0-89.5-30.2-89.5-67.5s40-67.5 89.5-67.5c49.4 0 89.5 30.2 89.5 67.5Z"/><path fill="#F7E8D2" d="M1178 1753c0 28.7-26.4 52-59 52s-59-23.3-59-52 26.4-52 59-52 59 23.3 59 52Z"/><path fill="#F7E8D2" d="M1245 1832c0 22-30 40-67 40s-67-18-67-40 30-40 67-40 67 18 67 40Z"/><path fill="#F7E8D2" d="M1256 1784.5c0 26.2-22.8 47.5-51 47.5s-51-21.3-51-47.5 22.8-47.5 51-47.5 51 21.3 51 47.5Z"/><path fill="#F7E8D2" d="M1334 1821.5c0 18-24.2 32.5-54 32.5s-54-14.5-54-32.5 24.2-32.5 54-32.5 54 14.5 54 32.5Z"/><path fill="#F7E8D2" d="M1333.8 1817c-1.6 20-33.5 33.9-71.2 30.9s-67-21.8-65.4-41.9c1.6-20 33.5-33.9 71.2-30.9s67 21.8 65.4 41.9Z"/><path fill="#E7E7E7" d="M441 1441.5c0 37.3-40 67.5-89.5 67.5-49.4 0-89.5-30.2-89.5-67.5s40-67.5 89.5-67.5c49.4 0 89.5 30.2 89.5 67.5Z"/><path fill="#E7E7E7" d="M476 1390c0 28.7-26.4 52-59 52s-59-23.3-59-52 26.4-52 59-52 59 23.3 59 52Z"/><path fill="#E7E7E7" d="M543 1469c0 22-30 40-67 40s-67-18-67-40 30-40 67-40 67 18 67 40Z"/><path fill="#E7E7E7" d="M554 1421.5c0 26.2-22.8 47.5-51 47.5s-51-21.3-51-47.5 22.8-47.5 51-47.5 51 21.3 51 47.5Z"/><path fill="#E7E7E7" d="M632 1458.5c0 18-24.2 32.5-54 32.5s-54-14.5-54-32.5 24.2-32.5 54-32.5 54 14.5 54 32.5Z"/><path fill="#E7E7E7" d="M631.8 1454c-1.6 20-33.5 33.9-71.2 30.9s-67-21.8-65.4-41.9c1.6-20 33.5-33.9 71.2-30.9s67 21.8 65.4 41.9Z"/><path fill="#F7E8D2" d="M1393 1042.5c0 37.3-40 67.5-89.5 67.5-49.4 0-89.5-30.2-89.5-67.5s40-67.5 89.5-67.5c49.4 0 89.5 30.2 89.5 67.5Z"/><path fill="#F7E8D2" d="M1428 991c0 28.7-26.4 52-59 52s-59-23.3-59-52 26.4-52 59-52 59 23.3 59 52Z"/><path fill="#F7E8D2" d="M1495 1070c0 22-30 40-67 40s-67-18-67-40 30-40 67-40 67 18 67 40Z"/><path fill="#F7E8D2" d="M1506 1022.5c0 26.2-22.8 47.5-51 47.5s-51-21.3-51-47.5 22.8-47.5 51-47.5 51 21.3 51 47.5Z"/><path fill="#F7E8D2" d="M1584 1059.5c0 18-24.2 32.5-54 32.5s-54-14.5-54-32.5 24.2-32.5 54-32.5 54 14.5 54 32.5Z"/><path fill="#F7E8D2" d="M1583.8 1055c-1.6 20-33.5 33.9-71.2 30.9s-67-21.8-65.4-41.9c1.6-20 33.5-33.9 71.2-30.9s67 21.8 65.4 41.9ZM147 744.5c0 37.3-40 67.5-89.5 67.5C8.1 812-32 781.8-32 744.5S8 677 57.5 677c49.4 0 89.5 30.2 89.5 67.5Z"/><path fill="#F7E8D2" d="M182 693c0 28.7-26.4 52-59 52s-59-23.3-59-52 26.4-52 59-52 59 23.3 59 52Z"/><path fill="#F7E8D2" d="M249 772c0 22-30 40-67 40s-67-18-67-40 30-40 67-40 67 18 67 40Z"/><path fill="#F7E8D2" d="M260 724.5c0 26.2-22.8 47.5-51 47.5s-51-21.3-51-47.5 22.8-47.5 51-47.5 51 21.3 51 47.5Z"/><path fill="#F7E8D2" d="M338 761.5c0 18-24.2 32.5-54 32.5s-54-14.6-54-32.5c0-18 24.2-32.5 54-32.5s54 14.6 54 32.5Z"/><path fill="#F7E8D2" d="M337.8 757c-1.6 20-33.5 33.9-71.2 30.9s-67-21.8-65.4-41.9c1.6-20 33.5-33.9 71.2-30.9s67 21.8 65.4 41.9Z"/><path fill="#E7E7E7" d="M1261 280.5c0 37.3-40 67.5-89.5 67.5-49.4 0-89.5-30.2-89.5-67.5s40-67.5 89.5-67.5c49.4 0 89.5 30.2 89.5 67.5Z"/><path fill="#E7E7E7" d="M1296 229c0 28.7-26.4 52-59 52s-59-23.3-59-52 26.4-52 59-52 59 23.3 59 52Z"/><path fill="#E7E7E7" d="M1363 308c0 22-30 40-67 40s-67-18-67-40 30-40 67-40 67 18 67 40Z"/><path fill="#E7E7E7" d="M1374 260.5c0 26.2-22.8 47.5-51 47.5s-51-21.3-51-47.5 22.8-47.5 51-47.5 51 21.3 51 47.5Z"/><path fill="#E7E7E7" d="M1452 297.5c0 18-24.2 32.5-54 32.5s-54-14.6-54-32.5c0-18 24.2-32.5 54-32.5s54 14.6 54 32.5Z"/><path fill="#E7E7E7" d="M1451.8 293c-1.6 20-33.5 33.9-71.2 30.9s-67-21.8-65.4-41.9c1.6-20 33.5-33.9 71.2-30.9s67 21.8 65.4 41.9Z"/></g><defs><clipPath id="a"><path fill="#fff" d="M0 0h1440v2160H0z"/></clipPath></defs></svg>