<svg xmlns="http://www.w3.org/2000/svg" width="400" height="1600" fill="none"><g clip-path="url(#a)"><path fill="#F7E8D2" d="M30.3 731.7c0 29.4-31.7 53.3-70.7 53.3s-70.6-23.9-70.6-53.3 31.6-53.3 70.6-53.3c39 0 70.7 23.9 70.7 53.3Z"/><path fill="#F7E8D2" d="M57.9 691c0 22.7-20.9 41.1-46.6 41.1-25.7 0-46.5-18.4-46.5-41 0-22.7 20.8-41.1 46.5-41.1S58 668.4 58 691Z"/><path fill="#F7E8D2" d="M110.8 753.4c0 17.5-23.7 31.6-53 31.6C28.8 785 5 770.9 5 753.4 5 736 28.7 721.8 58 721.8s52.9 14.2 52.9 31.6Z"/><path fill="#F7E8D2" d="M119.4 716c0 20.6-18 37.4-40.2 37.4-22.2 0-40.3-16.8-40.3-37.5s18-37.5 40.3-37.5c22.2 0 40.2 16.8 40.2 37.5Z"/><path fill="#F7E8D2" d="M181 745.1c0 14.2-19 25.7-42.6 25.7S95.8 759.3 95.8 745c0-14.1 19-25.6 42.6-25.6 23.5 0 42.6 11.5 42.6 25.6Z"/><path fill="#F7E8D2" d="M180.8 741.5c-1.2 16-26.4 26.8-56.2 24.5-29.7-2.4-52.8-17.2-51.5-33 1.2-16 26.4-26.9 56.1-24.5 29.8 2.4 52.9 17.2 51.6 33Z"/><path fill="#E7E7E7" d="M341.7 1035.7c0 29.4-31.7 53.3-70.8 53.3-39.2 0-70.9-23.9-70.9-53.3s31.7-53.3 70.9-53.3c39.1 0 70.8 23.9 70.8 53.3Z"/><path fill="#E7E7E7" d="M369.5 995c0 22.7-21 41.1-46.8 41.1-25.8 0-46.7-18.4-46.7-41 0-22.7 21-41.1 46.7-41.1 25.8 0 46.8 18.4 46.8 41Z"/><path fill="#E7E7E7" d="M422.5 1057.4c0 17.5-23.7 31.6-53 31.6s-53-14.1-53-31.6c0-17.4 23.7-31.6 53-31.6s53 14.2 53 31.6Z"/><path fill="#E7E7E7" d="M431.2 1020c0 20.6-18 37.4-40.4 37.4-22.3 0-40.3-16.8-40.3-37.5s18-37.5 40.3-37.5c22.4 0 40.4 16.8 40.4 37.5Z"/><path fill="#E7E7E7" d="M493 1049.1c0 14.2-19.1 25.7-42.8 25.7-23.6 0-42.7-11.5-42.7-25.7 0-14.1 19.1-25.6 42.7-25.6 23.7 0 42.8 11.5 42.8 25.6Z"/><path fill="#E7E7E7" d="M492.8 1045.5c-1.2 16-26.5 26.8-56.3 24.5-30-2.4-53-17.2-51.8-33 1.3-16 26.5-26.9 56.4-24.5 29.8 2.4 53 17.2 51.7 33Z"/><path fill="#F7E8D2" d="M85.3 1519.9c0 15.5-22.1 28-49.4 28-27.3 0-49.4-12.5-49.4-28s22.1-28 49.4-28c27.3 0 49.4 12.5 49.4 28ZM302.7 1548c0 14.3-16.8 26-37.5 26-20.8 0-37.6-11.7-37.6-26 0-14.5 16.8-26.1 37.6-26.1 20.7 0 37.5 11.6 37.5 26Z"/><path fill="#F7E8D2" d="M332 1529c0 10.5-13.3 19-29.6 19-16.4 0-29.7-8.5-29.7-19s13.3-19 29.7-19c16.3 0 29.6 8.5 29.6 19ZM26 1499c0 26.6-26.2 48.2-58.5 48.2S-91 1525.6-91 1499s26.2-48.2 58.5-48.2S26 1472.4 26 1499Z"/><path fill="#F7E8D2" d="M65.5 1474.9c0 22-20.7 39.9-46.2 39.9-25.5 0-46.3-17.9-46.3-40 0-22 20.8-39.8 46.3-39.8 25.5 0 46.2 17.9 46.2 39.9Z"/><path fill="#F7E8D2" d="M123.3 1487.5c0 15-19.7 27.3-44 27.3-24.1 0-43.8-12.2-43.8-27.3 0-15 19.7-27.2 43.9-27.2s43.9 12.2 43.9 27.2Z"/><path fill="#F7E8D2" d="M157.3 1514c0 14-20.2 25.3-45.1 25.3-24.9 0-45-11.4-45-25.3 0-14 20.1-25.3 45-25.3s45 11.3 45 25.3ZM365.3 362.7c0 29.4-31.7 53.3-70.7 53.3S224 392.1 224 362.7s31.6-53.3 70.6-53.3c39 0 70.7 23.9 70.7 53.3Z"/><path fill="#F7E8D2" d="M392.9 322c0 22.7-20.9 41.1-46.6 41.1-25.7 0-46.5-18.4-46.5-41 0-22.7 20.8-41.1 46.5-41.1s46.6 18.4 46.6 41Z"/><path fill="#F7E8D2" d="M445.8 384.4c0 17.5-23.7 31.6-53 31.6-29.1 0-52.8-14.1-52.8-31.6 0-17.4 23.7-31.6 52.9-31.6s52.9 14.2 52.9 31.6Z"/><path fill="#F7E8D2" d="M454.4 347c0 20.6-18 37.4-40.2 37.4-22.2 0-40.3-16.8-40.3-37.5s18-37.5 40.3-37.5c22.2 0 40.2 16.8 40.2 37.5Z"/><path fill="#F7E8D2" d="M516 376.1c0 14.2-19 25.7-42.6 25.7s-42.6-11.5-42.6-25.7c0-14.1 19-25.6 42.6-25.6 23.5 0 42.6 11.5 42.6 25.6Z"/><path fill="#F7E8D2" d="M515.8 372.5c-1.2 16-26.4 26.8-56.2 24.5-29.7-2.4-52.8-17.2-51.5-33 1.2-16 26.4-26.9 56.1-24.5 29.8 2.4 52.9 17.2 51.6 33Z"/></g><defs><clipPath id="a"><path fill="#fff" d="M0 0h400v1600H0z"/></clipPath></defs></svg>