<?xml version="1.0" encoding="UTF-8"?><svg id="_レイヤー_1" xmlns="http://www.w3.org/2000/svg" viewBox="0 0 1600 800"><defs><style>.cls-1{fill:#f9bb2e;}.cls-1,.cls-2{stroke-width:0px;}.cls-2{fill:#87734c;}</style></defs><path class="cls-2" d="M221.8,801c5.15-45.74,19.99-88.09,44.37-127.13,30.4-48.68,71.61-85.55,122.57-111.58,20.08-10.26,41.35-17.57,63.18-23.24,2.21-.57,4.62-.7,6.21-2.83.51-.68.92-1.26,2.34.08,2.21,2.09,5.36-.56,5.05-4.11-1.21-13.79-4.6-27.11-8.25-40.44-6.76-24.7-13.53-49.41-19.12-74.41-.85-3.82-1.46-5.68-5.72-2.54-5.36,3.95-11.73,4.05-17.57,1.08-9.79-4.99-15.47-12.99-15.35-24.33.04-3.98.42-7.99,1.11-11.91,1.27-7.19,5.25-12.45,12-15.52,1.6-.73,3.56-.88,4.86-2.74-6.56-4.81-14.23-6.02-21.83-7.74-15.24-3.45-27.5,3.17-38.81,11.64-7.82,5.86-10.25,14.85-9.43,24.55.13,1.58,1.1,3.15-.23,5.05-4.12-2.41-5.5-6.42-5.3-10.53.62-12.59,3.56-24.75,13.04-33.64,11.65-10.91,26.07-14.83,41.91-12.98,4.92.57,9.77,1.77,14.54,2.67,1.03-.85.48-1.67.22-2.39-11.05-30.02-10.13-60.72-2.53-90.91,7.28-28.89,25.76-50.7,50.33-67.31,2-1.35,4.17-2.58,7.89-3.09-7.3,6.98-12.61,14.12-17.03,21.91-10.83,19.1-16.03,40.14-20.07,61.38-3.23,16.97-2.23,34.12,1.91,51.01.86,3.52,2.24,5.83,6.31,5.3.81-.1,1.82-.15,2.46.23,6.95,4.13,11.25-.01,16.2-4.34,10.77-9.42,21.76-18.67,35.64-23.47,20.49-7.09,41.55-9.46,62.95-6.32,12.8,1.87,23.96,7.89,32.99,17.43,2.52,2.66,4.74,5.51,6.26,10.17-45.3-23.25-83.78-9.4-121.11,19.58,10.53,2.16,16.64,7.89,20.12,16.58,2.68,6.69,2.51,13.29-.18,19.93-4.68,11.53-13.61,15.58-27.19,11.55,9.58,11.13,16.06,23.32,22.72,35.38,20.54,37.19,45.54,71.65,66.69,108.46,1.22,2.12,2.7,3.47,5.45,3.67,37.79,2.74,72.93,14.29,104.73,34.51,45.34,28.83,85.3,63.7,115.01,109.18,25.57,39.13,41.19,81.9,47.27,128.2.17,1.31.06,2.65.09,3.98H221.8Z"/><path class="cls-1" d="M709.55,801c8.81-15.68,19.94-29.39,34.24-40.46,19.87-15.38,41.76-26.36,67-28.92,23.28-2.36,46.68-5.62,69.89,1.17,8.98,2.63,17.73,5.75,26.1,9.91,2.24,1.11,4.45,2.44,7.05,2.27,4.45-.29,8.54,1.02,12.63,2.49,5.18,1.86,10.44,3.42,16.03,3.49,1.12.02,2.39.31,3.33.9,14.76,9.11,31.52,11.47,48.15,13.81,22.19,3.13,44.47,3.22,66.63-.74,3.75-.67,7.67-1.34,11.06-2.97,16.94-8.13,35.17-12.4,53.02-17.67,14.6-4.31,25.29-13.65,35.4-24.1,3.82-3.95,7.72-7.78,11.66-11.6,13.71-13.31,28.12-26.1,36.93-43.54,9.14-18.08,14.96-37.31,19.49-57,3.97-17.24,2.82-34.55-.59-51.51-3.24-16.12-12.99-28.99-25.06-39.96-4.8-4.36-9.8-8.53-14.96-12.45-6.81-5.18-15.04-7.31-23.21-8.54-25.48-3.85-49.86.95-72.8,12.02-10.6,5.12-17.62,15.04-25.24,23.85-4.03,4.66-7.55,9.7-10.7,15.01-.79,1.33-1.4,3.06-3.49,3.55.58-10.4,3.7-20,7.93-29.21,9.88-21.54,20.86-42.51,36.42-60.57,11.6-13.46,22.16-27.92,36.28-39.07,16.72-13.21,34.58-24.15,55.33-30.04,22.26-6.32,44.49-12.68,67.19-17.26,11.85-2.39,23.92-1.9,35.85-1.87,20.61.05,41.22.46,61.71,3.88,7.43,1.24,15,2.43,22.69,2.81,19.17.95,38.57,18,42.09,36.58,3.48,18.37-7.29,33-23.62,34.3-14.99,1.19-25.96-7.05-33.44-19.67-6.97-11.76-5.11-22.99,3.18-33.35,1.85-2.31,1.28-3.07-.97-4.4-6.11-3.6-12.92-4.16-19.68-5.03-12.7-1.64-25.42-3.65-38.22-3.45-14.63.23-29.16,2.15-43.91,4.91,4.75,4.47,10.42,6.69,15.69,9.56,12.82,6.98,24.02,16.13,34.71,25.94,1.75,1.61,3.58,2.82,5.91,3.52,14.39,4.32,28.01,10.35,41.45,17.15,11.39,5.77,23.6,9.89,34.42,16.95,9.78,6.38,19.32,13.02,27.54,21.4,7.17,7.31,16.46,11.78,24.39,18.15,35.52,28.55,63.6,63.25,86.43,102.46,13.68,23.49,24.05,48.26,29.07,75.06,4.55,24.3,5.02,48.57-1.21,72.75-4.21,16.36-11.7,31.09-21.2,44.91-1.03,1.5-2.01,3.05-3.01,4.57h-825.57ZM1127.14,473.99c1.9-.46,3.81-.86,5.69-1.38,11.6-3.19,23.46-4.7,35.44-5.31,18.08-.92,35.32,3.54,52.39,8.67,10.4,3.13,20.56,7.03,27.67,15.91,3.53,4.4,6.8,9.03,10.02,13.66,1.35,1.94,2.51,2.81,4.86,1.45,3.59-2.08,7.34-3.9,11.06-5.77,1.66-.84,2.74-1.79,1.94-3.88-6.02-15.87-12.31-31.61-21.14-46.19-3.4-5.61-8.64-8.08-15.14-7.59-13.92,1.05-27.83,2.09-41.56,4.82-24.94,4.96-48.65,13.38-71.23,25.59ZM1097.91,476.75c4.26-2.72,8.45-5.56,12.79-8.14,39.13-23.25,80.95-37.71,126.91-38.33,3.97-.05,3.56-1.31,1.91-4.01-4.02-6.58-9.42-12.01-14.23-17.94-2.68-3.3-5.5-4.01-9.53-3.63-11.75,1.11-22.38,5.44-33.28,9.64-22.99,8.87-44.89,19.1-62.96,36.47-8.16,7.84-15.22,16.45-21.62,25.94ZM1393.03,634.23c-4.53-.67-5.39,2.21-5.69,5.7-1.23,14.14-5.98,27.2-12.41,39.69-4.59,8.9-4.69,8.85,2.56,16.1,7.69,7.69,7.61,7.63,14.14-.84,10.98-14.23,18.06-30.13,21.03-47.85.39-2.3,1.07-4.77-1.52-6.25-5.66-3.23-11.59-5.77-18.11-6.56ZM1470.57,720.73c-2.67,5.77-5.04,11.42-7.86,16.84-5.61,10.76-13.58,19.7-22.45,27.85-2.5,2.29-3.11,4.28-1.05,7.26,4.39,6.33,7.39,13.38,9.9,20.64.88,2.55,1.95,3.42,4.08,1.09,7.65-8.38,14.66-17.23,20.43-27.03,1.03-1.76.78-2.85-.79-4.23-10.34-9.09-11.77-21.94-3.31-32.73,2.56-3.26,2.61-6.08,1.05-9.7ZM1401.27,517.32c-1.62-6.46-2.93-12.57-7.2-17.59-13.14-15.48-29.33-26.92-47.11-36.34-.69-.36-1.56-.84-2.25,1.38,9.68,9.32,12.55,23.69,23.51,33.33,9.93,8.74,22.67,11.57,33.05,19.21ZM1289.37,572.67c1.46-16.07.55-31.87-2.18-47.62-2.59-14.94-3.82-15.54-17.03-7.66-2.68,1.6-3.22,2.94-1.66,5.9,3.63,6.89,6.82,14.02,10.06,21.11,4.2,9.17,7.31,18.76,10.81,28.27ZM1388.3,583.47c0,12.13,0,23.52,0,34.92,0,2.89,1.78,3.64,4.26,3.6,4.18-.06,8.27.43,12.3,1.6,11.41,3.31,11.31,3.28,11.35-8.85.01-3.64-.93-5.26-4.92-5.66-9.97-1-16.4-7.21-17.96-17.1-.53-3.39-2.35-5.61-5.03-8.5ZM1480.33,662.25c-2.24,7.36-6.23,12.56-6.18,19.41.1,13.1,5.16,24.92,8.99,37.07.68,2.14,2.16,3.37,4.52,3.03,2.54-.37,2.34-2.45,2.4-4.24.27-8.31.24-16.63-1.21-24.84-1.76-9.93-4.11-19.71-8.52-30.43ZM1388.65,567.67c1.88-4.4,3.01-7.68,5.44-9.54,6.53-4.98,5.04-10.75,2.5-16.86-1.46-3.52-2.81-7.08-4.92-10.32-2.44-3.74-5.92-6.25-9.62-8.48-2.44-1.47-3.97-.64-3.37,2.33.65,3.24.54,6.61,1.85,9.75,4.22,10.14,7.06,20.65,8.12,33.11Z"/><path class="cls-1" d="M598.6,801c8.67-7.13,19.22-9.15,29.83-9.82,16.95-1.06,33.94-.69,50.55,3.69,5.13,1.35,10.35,2.58,14.57,6.12h-94.95Z"/><path class="cls-1" d="M1018.01,760.14c-19.23.74-39.19-1.17-58.56-7.56-4.42-1.46-8.74-3.18-12.64-5.85-2.6-1.78-3.05-3.51-1.12-6.15,12.91-17.62,30.26-28.16,51.86-30.34,31.63-3.18,55.96,10.95,69.36,39,2.95,6.17,2.68,6.78-4.08,8.02-14.47,2.66-29.1,3.06-44.82,2.89Z"/><path class="cls-1" d="M1012.37,640.15c1.16,0,2.33-.02,3.49,0,7.59.21,9.37,2.58,6.85,9.53-4.82,13.29-9.43,26.64-12.55,40.45-.35,1.55-.42,3.9-2.27,4.09-2.39.24-2.42-2.36-2.92-3.97-4.26-13.81-8.32-27.69-12.7-41.47-1.52-4.79,1.6-6.08,4.8-6.94,4.97-1.33,10.13-1.79,15.31-1.71Z"/><path class="cls-1" d="M1097.66,692.31c.05,1.97-1.37,2.4-2.56,2.86-13.04,5.07-26.09,10.09-39.15,15.1-.91.35-2,.86-2.81.03-1.09-1.11-.22-2.26.48-3.1,2.76-3.32,5.88-6.38,8.41-9.86,5.59-7.67,11-15.47,16.27-23.35,1.46-2.18,2.44-2.29,4.15-.51,5.07,5.3,9.8,10.89,14.05,16.87.48.67.85,1.42,1.17,1.97Z"/><path class="cls-1" d="M969.53,708.88c-.12,2.3-1.56,2.37-3.03,1.38-2.34-1.57-4.79-3.13-6.67-5.19-7.29-7.98-14.32-16.2-21.57-24.21-2.56-2.83-2.24-4.92.85-6.88,3.09-1.96,6.2-3.89,9.27-5.89,3.06-1.99,4.59-1.09,5.77,2.31,3.44,9.9,7.11,19.73,10.87,29.51,1.19,3.08,2.97,5.93,4.52,8.95Z"/><path class="cls-1" d="M1081.55,748.28c11.4-8.2,20.77-18.31,31.29-27.05,5.19-4.31,7.66-3.47,10,2.91,3.95,10.74,4.01,10.94-7.2,14.33-9.68,2.93-18.62,8.15-28.87,9.25-1.74.19-3.48.37-5.22.56Z"/><path class="cls-1" d="M927.93,738.88c-9.51-4.8-19.22-9.28-27.02-16.93-2.15-2.11-2.57-4.18.28-6.1.41-.27.72-.69,1.09-1.02,7.16-6.43,9.07-6.19,13.78,2.04,3.69,6.45,9.11,11.8,11.94,18.79.3.73.57,1.48.85,2.22-.31.34-.61.67-.92,1.01Z"/><g id="w2"><path class="cls-1" d="M861.2,277.31c12.39.02,22.57,2.24,32.75,6.04,12.46,4.65,25.38,8.04,36.97,14.83,2.94,1.72,3.98-.48,5.53-2.33,10.58-12.6,20.45-25.93,34.89-34.63,4.12-2.48,8.17-5.23,13.38-4.84,2.81.21,4.37.85,3.25,4.3-5.31,16.43-6.83,33.54-8.38,50.6-.99,10.92-2.37,21.83-2.28,32.84.03,4.23.6,8.27,2.51,12.09,11.16,22.27,15.29,46.28,17.69,70.75,1.14,11.67,1.68,23.24-2.24,34.55-.33.94-.58,1.92-1.01,2.82-.61,1.27-.83,3.35-2.73,2.97-1.59-.32-.94-2.22-1.19-3.46-1.69-8.19-.13-16.66-2.03-24.81-2.66-11.48-3.11-23.56-8.15-34.38-8.46-18.2-17.81-35.81-35.37-47.33-19.36-12.69-40.65-15.83-63.15-13.17-14.87,1.75-28.52,7.85-42.6,12.37-4.04,1.3-6.91,4.54-9.51,7.85-6.1,7.77-10.9,16.3-15.08,25.24-2.01,4.29-2.23,8.75-1.74,13.19.67,6.01.22,11.94-.12,17.91-.28,4.91-1.52,9.5-4.32,13.62-4.42,6.53-10.88,8.98-18.46,6.88-18.67-5.18-29.2-17.47-33.71-36.26-5.41-22.51-.3-43.07,10.41-62.43,16.18-29.26,39.29-50.99,71.73-61.56,7.97-2.6,16.14-4.03,22.95-3.64Z"/><path class="cls-1" d="M842.52,423.51c-14.88.05-25.13-17.22-18.28-31.26,3.24-6.64,7.9-12.29,14.54-16.06,9.09-5.17,17.6-4.82,25.15,1.2,7.81,6.21,10.25,14.6,7.15,24.6-3.6,11.61-16.7,21.48-28.56,21.52Z"/><path class="cls-1" d="M913.43,437.34c2.09.38,4.38.73,6.65,1.24,3.29.73,4.43,2.59,4.07,6.14-1.67,16.82-3.04,33.67-4.59,50.51-.13,1.46.85,3.81-1.6,4.03-1.9.17-2.65-1.82-3.18-3.37-4.78-13.8-9.5-27.62-14.24-41.43-1.19-3.45-2.43-6.88-3.6-10.34-.71-2.1-.78-4.14,1.99-4.61,4.74-.81,9.51-1.42,14.5-2.15Z"/></g></svg>