<svg xmlns="http://www.w3.org/2000/svg" xmlns:xlink="http://www.w3.org/1999/xlink" id="_レイヤー_1" viewBox="0 0 5000 2000"><defs><linearGradient id="_名称未設定グラデーション_4" x1="859.09" x2="2120.39" y1="2550.43" y2="1196.94" gradientTransform="rotate(-133 2354.55 1661.9)" gradientUnits="userSpaceOnUse"><stop offset="0" stop-color="#f6eb8f"/><stop offset="1" stop-color="#f4bea1"/></linearGradient><linearGradient xlink:href="#_名称未設定グラデーション_4" id="_名称未設定グラデーション_4-2" x1="4371.62" x2="3625.33" y1="-390.39" y2="-161.97" gradientTransform="rotate(47 2398.55 1491.24)"/><linearGradient xlink:href="#_名称未設定グラデーション_4" id="_名称未設定グラデーション_4-3" x1="330.39" x2="1482.88" y1="1803.18" y2="1875.24" gradientTransform="rotate(-4 2793.1 1482.18)"/><linearGradient xlink:href="#_名称未設定グラデーション_4" id="_名称未設定グラデーション_4-4" x1="-935.33" x2="217.18" y1="1309.08" y2="1381.11" gradientTransform="rotate(-4 2793.1 1482.18)"/><linearGradient xlink:href="#_名称未設定グラデーション_4" id="_名称未設定グラデーション_4-5" x1="347.93" x2="460.9" y1="1086.34" y2="1086.34"/><linearGradient xlink:href="#_名称未設定グラデーション_4" id="_名称未設定グラデーション_4-6" x1="3294.79" x2="4122.08" y1="714.83" y2="-112.47"/><linearGradient xlink:href="#_名称未設定グラデーション_4" id="_名称未設定グラデーション_4-7" x1="2862.5" x2="3354.65" y1="1773.34" y2="1281.19" gradientTransform="rotate(179 2345.91 1231.27)"/><linearGradient xlink:href="#_名称未設定グラデーション_4" id="_名称未設定グラデーション_4-8" x1="638.29" x2="999.82" y1="979.96" y2="618.43" gradientTransform="rotate(90 1714.63 912.73)"/><linearGradient xlink:href="#_名称未設定グラデーション_4" id="_名称未設定グラデーション_4-9" x1="706.92" x2="1068.45" y1="979.93" y2="618.4" gradientTransform="rotate(90 1749.19 926.93)"/><linearGradient xlink:href="#_名称未設定グラデーション_4" id="_名称未設定グラデーション_4-10" x1="775.55" x2="1137.08" y1="979.9" y2="618.37" gradientTransform="rotate(90 1783.75 941.14)"/><linearGradient xlink:href="#_名称未設定グラデーション_4" id="_名称未設定グラデーション_4-11" x1="844.18" x2="1205.71" y1="979.87" y2="618.34" gradientTransform="rotate(90 1818.3 955.34)"/><linearGradient xlink:href="#_名称未設定グラデーション_4" id="_名称未設定グラデーション_4-12" x1="912.81" x2="1274.34" y1="979.85" y2="618.31" gradientTransform="rotate(90 1852.87 969.55)"/><linearGradient xlink:href="#_名称未設定グラデーション_4" id="_名称未設定グラデーション_4-13" x1="569.66" x2="931.19" y1="979.99" y2="618.45" gradientTransform="rotate(90 1680.07 898.52)"/><linearGradient xlink:href="#_名称未設定グラデーション_4" id="_名称未設定グラデーション_4-14" x1="501.03" x2="862.56" y1="980.02" y2="618.48" gradientTransform="rotate(90 1645.51 884.32)"/><linearGradient xlink:href="#_名称未設定グラデーション_4" id="_名称未設定グラデーション_4-15" x1="432.4" x2="793.93" y1="980.05" y2="618.51" gradientTransform="rotate(90 1610.96 870.11)"/><linearGradient id="_名称未設定グラデーション_8" x1="363.77" x2="725.3" y1="980.07" y2="618.54" gradientTransform="rotate(90 1576.4 855.91)" gradientUnits="userSpaceOnUse"><stop offset="0" stop-color="#f3a9a5"/><stop offset="1" stop-color="#95afe5"/></linearGradient><linearGradient xlink:href="#_名称未設定グラデーション_4" id="_名称未設定グラデーション_4-16" x1="2887.36" x2="1972.31" y1="1663.69" y2="1663.69"/><linearGradient xlink:href="#_名称未設定グラデーション_4" id="_名称未設定グラデーション_4-17" x1="2727.06" x2="2811.86" y1="1817.74" y2="1732.94" gradientTransform="rotate(-90 2478.44 1357.03)"/><linearGradient xlink:href="#_名称未設定グラデーション_4" id="_名称未設定グラデーション_4-18" x1="846.27" x2="1064.08" y1="558.67" y2="558.67"/><linearGradient xlink:href="#_名称未設定グラデーション_4" id="_名称未設定グラデーション_4-19" x1="3574.1" x2="3259.38" y1="1207.31" y2="1207.31"/><linearGradient xlink:href="#_名称未設定グラデーション_4" id="_名称未設定グラデーション_4-20" x1="5067.1" x2="4752.38" y1="-23.69" y2="-23.69"/><linearGradient xlink:href="#_名称未設定グラデーション_4" id="_名称未設定グラデーション_4-21" x1="930.62" x2="1106.64" y1="1623.2" y2="1623.2"/><linearGradient xlink:href="#_名称未設定グラデーション_4" id="_名称未設定グラデーション_4-22" x1="4563.64" x2="5437.07" y1="543.99" y2="543.99"/><linearGradient xlink:href="#_名称未設定グラデーション_8" id="_名称未設定グラデーション_8-2" x1="3534.45" x2="4627.74" y1="-522.82" y2="-522.82" gradientTransform="rotate(-39 3889.26 1192.32)"/><linearGradient xlink:href="#_名称未設定グラデーション_4" id="_名称未設定グラデーション_4-23" x1="7.18" x2="155.54" y1="1165.02" y2="1165.02" gradientTransform="rotate(-180 269.1 821.21)"/><clipPath id="clippath"><path d="M1 2h5000v2996H1z" class="cls-10"/></clipPath><clipPath id="clippath-2"><ellipse cx="1843.59" cy="27" class="cls-10" rx="265.71" ry="265.5"/></clipPath><style>.cls-10,.cls-6{stroke-width:0}.cls-6{fill:#f5db96;opacity:.1}.cls-10{fill:none}</style></defs><path d="M4521.01 1009.87a78.67 78.67 0 0 0-111.16-2.92l-997.54 945.6c-31.5 29.86-32.81 79.59-2.93 111.07s79.66 32.79 111.16 2.92l997.54-945.6a78.53 78.53 0 0 0 2.93-111.07Z" class="cls-6"/><g style="clip-path:url(#clippath)"><g style="opacity:.6"><path d="M2106.2 1003.49a74.6 74.6 0 0 1-57.15-24.85 74.66 74.66 0 0 1 5.82-105.5l408.38-365.44a74.82 74.82 0 0 1 105.59 5.81 74.66 74.66 0 0 1-5.82 105.5l-408.38 365.44a74.53 74.53 0 0 1-48.43 19.04Z" class="cls-6"/><path d="M4206.04 471.5a56.07 56.07 0 0 0-78.94-5.85 55.95 55.95 0 0 0-5.85 78.87 55.86 55.86 0 0 0 42.43 19.39 55.75 55.75 0 0 0 36.5-13.54 55.53 55.53 0 0 0 19.27-38.22 55.5 55.5 0 0 0-13.42-40.65Z" style="fill:#f5d299;opacity:.35;stroke-width:0"/><path d="M3952.17 1283.83a71.67 71.67 0 0 1 52.6 22.86 71.78 71.78 0 0 1-3.58 101.52L2294.83 2997.08c-29.05 27.05-74.53 25.45-101.6-3.58s-25.46-74.47 3.58-101.52L3903.17 1303.1a71.66 71.66 0 0 1 48.99-19.28Z" style="fill:url(#_名称未設定グラデーション_4);opacity:.35;stroke-width:0"/><path d="M3977.43 2274.3a67.64 67.64 0 0 1-49.64-21.57 67.75 67.75 0 0 1 3.38-95.8L5541.42 657.55a67.87 67.87 0 0 1 95.87 3.38 67.75 67.75 0 0 1-3.38 95.8L4023.67 2256.11a67.62 67.62 0 0 1-46.23 18.19Z" style="fill:url(#_名称未設定グラデーション_4-2);opacity:.35;stroke-width:0"/><path d="M1488.39 1429.57a78.67 78.67 0 0 0-111.16-2.92l-997.54 945.6a78.53 78.53 0 0 0-2.93 111.07 78.67 78.67 0 0 0 111.16 2.92l997.54-945.6a78.53 78.53 0 0 0 2.93-111.07Z" style="fill:url(#_名称未設定グラデーション_4-3);opacity:.35;stroke-width:0"/><path d="M194.26 1015.37a78.67 78.67 0 0 0-111.16-2.92l-997.54 945.6a78.53 78.53 0 0 0-2.93 111.07 78.67 78.67 0 0 0 111.16 2.92l997.54-945.6a78.53 78.53 0 0 0 2.93-111.07Z" style="fill:url(#_名称未設定グラデーション_4-4);opacity:.35;stroke-width:0"/><path d="M481.33 1678.71a78.67 78.67 0 0 0-111.16-2.92l-997.54 945.6a78.53 78.53 0 0 0-2.93 111.07 78.67 78.67 0 0 0 111.16 2.92l997.54-945.6a78.53 78.53 0 0 0 2.93-111.07Z" class="cls-6"/><path d="M447.19 1049.49a56.6 56.6 0 0 0-79.68-5.91 56.5 56.5 0 0 0-5.91 79.61 56.39 56.39 0 0 0 42.83 19.57 56.27 56.27 0 0 0 36.84-13.66 56.05 56.05 0 0 0 19.45-38.58 56 56 0 0 0-13.55-41.03Z" style="opacity:.35;stroke-width:0;fill:url(#_名称未設定グラデーション_4-5)"/><path d="M4097.05-137.34a74.6 74.6 0 0 0-57.15-24.85 74.56 74.56 0 0 0-48.43 19.04l-408.38 365.44a74.67 74.67 0 0 0-5.82 105.5 74.66 74.66 0 0 0 63.43 24.45l-315.07 281.94a74.67 74.67 0 0 0-5.82 105.5 74.82 74.82 0 0 0 105.59 5.81l408.38-365.44a74.67 74.67 0 0 0 5.82-105.5 74.6 74.6 0 0 0-63.41-24.47l315.05-281.92a74.67 74.67 0 0 0 5.82-105.5Z" style="fill:url(#_名称未設定グラデーション_4-6);opacity:.35;stroke-width:0"/><path d="M1780.59 692.37a74.6 74.6 0 0 1 57.15 24.85 74.66 74.66 0 0 1-5.82 105.5l-408.38 365.44a74.82 74.82 0 0 1-105.59-5.81 74.66 74.66 0 0 1 5.82-105.5l408.38-365.44a74.53 74.53 0 0 1 48.43-19.04Z" style="fill:url(#_名称未設定グラデーション_4-7);opacity:.35;stroke-width:0"/><g style="opacity:.97"><g style="clip-path:url(#clippath-2)"><path d="M1483.45.71h689.94v32.85h-689.94z" style="fill:url(#_名称未設定グラデーション_4-8);opacity:.35;stroke-width:0" transform="rotate(-45 1828.47 17.12)"/><path d="M1532.23 48.99h689.94v32.85h-689.94z" style="fill:url(#_名称未設定グラデーション_4-9);opacity:.35;stroke-width:0" transform="rotate(-45 1877.25 65.4)"/><path d="M1581 97.27h689.94v32.85H1581z" style="fill:url(#_名称未設定グラデーション_4-10);opacity:.35;stroke-width:0" transform="rotate(-45 1926.03 113.68)"/><path d="M1629.78 145.56h689.94v32.85h-689.94z" style="fill:url(#_名称未設定グラデーション_4-11);opacity:.35;stroke-width:0" transform="rotate(-45 1974.8 161.96)"/><path d="M1678.55 193.84h689.94v32.85h-689.94z" style="fill:url(#_名称未設定グラデーション_4-12);opacity:.35;stroke-width:0" transform="rotate(-45 2023.58 210.24)"/><path d="M1434.68-47.57h689.94v32.85h-689.94z" style="fill:url(#_名称未設定グラデーション_4-13);opacity:.35;stroke-width:0" transform="rotate(-45 1779.7 -31.17)"/><path d="M1385.9-95.85h689.94V-63H1385.9z" style="fill:url(#_名称未設定グラデーション_4-14);opacity:.35;stroke-width:0" transform="rotate(-45 1730.92 -79.45)"/><path d="M1337.13-144.13h689.94v32.85h-689.94z" style="fill:url(#_名称未設定グラデーション_4-15);opacity:.35;stroke-width:0" transform="rotate(-45 1682.14 -127.73)"/><path d="M1288.35-192.41h689.94v32.85h-689.94z" style="fill:url(#_名称未設定グラデーション_8);stroke-width:0" transform="rotate(-45 1633.36 -176.01)"/></g></g><path d="M2868.29 1343.43a74.6 74.6 0 0 0-57.15-24.85 74.56 74.56 0 0 0-48.43 19.04l-235.31 210.57a74.37 74.37 0 0 0-16.22-29.38 74.6 74.6 0 0 0-57.15-24.85 74.56 74.56 0 0 0-48.43 19.04l-408.38 365.44a74.67 74.67 0 0 0-5.82 105.5 74.82 74.82 0 0 0 105.59 5.81l235.31-210.57a74.82 74.82 0 0 0 121.81 35.19l408.38-365.44a74.67 74.67 0 0 0 5.82-105.5Z" style="fill:url(#_名称未設定グラデーション_4-16);opacity:.35;stroke-width:0"/><path d="m2811.94 1066.02 107.56 62.04v-124.09l-107.56 62.05z" style="fill:url(#_名称未設定グラデーション_4-17);opacity:.35;stroke-width:0"/><path d="m846.27 512.89 164.91 156.17 52.9-220.79-217.81 64.62z" style="fill:url(#_名称未設定グラデーション_4-18);opacity:.35;stroke-width:0"/><path d="M3535.92 1104.64c-56.66-65.69-156.23-73.07-221.99-16.45-65.73 56.62-73.11 156.12-16.45 221.79 31.09 36.04 75.08 54.53 119.33 54.53 36.4 0 72.98-12.52 102.64-38.07h.01a156.26 156.26 0 0 0 54.2-107.49 156.12 156.12 0 0 0-37.74-114.3Z" style="fill:url(#_名称未設定グラデーション_4-19);opacity:.16;stroke-width:0"/><path d="M5028.92-126.36c-56.66-65.69-156.23-73.07-221.99-16.45-65.73 56.62-73.11 156.12-16.45 221.79 31.09 36.04 75.08 54.53 119.33 54.53 36.4 0 72.98-12.52 102.64-38.07h.01a156.26 156.26 0 0 0 54.2-107.49 156.12 156.12 0 0 0-37.74-114.3Z" style="opacity:.16;fill:url(#_名称未設定グラデーション_4-20);stroke-width:0"/><path d="M1085.29 1565.77c-31.69-36.74-87.38-40.87-124.16-9.2-36.76 31.67-40.89 87.32-9.2 124.04a87.88 87.88 0 0 0 66.74 30.5c20.36 0 40.81-7 57.41-21.29a87.36 87.36 0 0 0 30.31-60.12 87.33 87.33 0 0 0-21.11-63.93Z" style="fill:url(#_名称未設定グラデーション_4-21);opacity:.35;stroke-width:0"/><path d="m5352.55 176.95-503.27 402.83c-63.91 11.25-35.17-53.99-35.17-53.99l355.17-284.29c24.03-19.24 26.81-49.96 9.66-71.38-17.15-21.43-47.73-25.45-71.77-6.21l-477.31 382.05c-24.03 19.24-29.62 52.2-12.47 73.63 17.15 21.43 50.54 23.2 74.57 3.96l25.92-20.75c56.27-5.44 49.27 31.79 44.35 46.63l-176.2 141.04c-24.03 19.24-29.62 52.2-12.47 73.63 17.15 21.43 50.54 23.2 74.57 3.96l447.82-358.45c72.85-17.25 42.07 52.56 42.07 52.56l-355.17 284.29c-24.03 19.24-26.81 49.96-9.66 71.38 17.15 21.43 47.73 25.45 71.77 6.21L5322.26 542c24.03-19.24 29.62-52.2 12.46-73.63-17.15-21.43-50.54-23.2-74.57-3.96l-25.92 20.75c-70.02 6.76-42.07-52.56-42.07-52.56l222.46-178.06c24.03-19.24 29.62-52.2 12.46-73.63-17.15-21.43-50.54-23.2-74.57-3.96Z" style="fill:url(#_名称未設定グラデーション_4-22);opacity:.35;stroke-width:0"/><path d="m3318.55-613.05-503.27 402.83c-63.91 11.25-35.17-53.99-35.17-53.99l355.17-284.29c24.03-19.24 26.81-49.96 9.66-71.38-17.15-21.43-47.73-25.45-71.77-6.21l-477.31 382.05c-24.03 19.24-29.62 52.2-12.47 73.63 17.15 21.43 50.54 23.2 74.57 3.96l25.92-20.75c56.27-5.44 49.27 31.79 44.35 46.63L2552.05.48c-24.03 19.24-29.62 52.2-12.47 73.63 17.15 21.43 50.54 23.2 74.57 3.96l447.82-358.45c72.85-17.25 42.07 52.56 42.07 52.56L2748.87 56.47c-24.03 19.24-26.81 49.96-9.66 71.38 17.15 21.43 47.73 25.45 71.77 6.21l477.31-382.05c24.03-19.24 29.62-52.2 12.46-73.63-17.15-21.43-50.54-23.2-74.57-3.96l-25.92 20.75c-70.02 6.76-42.07-52.56-42.07-52.56l222.46-178.06c24.03-19.24 29.62-52.2 12.46-73.63-17.15-21.43-50.54-23.2-74.57-3.96Z" style="fill:url(#_名称未設定グラデーション_8-2);opacity:.1;stroke-width:0"/><path d="M400.66 525.8c26.71 30.97 73.65 34.44 104.64 7.76 30.98-26.69 34.46-73.59 7.76-104.55a74.05 74.05 0 0 0-56.25-25.7c-17.16 0-34.4 5.9-48.38 17.95a73.65 73.65 0 0 0-25.55 50.67 73.6 73.6 0 0 0 17.79 53.88Z" style="fill:url(#_名称未設定グラデーション_4-23);opacity:.2;stroke-width:0"/></g></g></svg>