<?xml version="1.0" encoding="utf-8"?>
<!-- Generator: Adobe Illustrator 28.2.0, SVG Export Plug-In . SVG Version: 6.00 Build 0)  -->
<svg version="1.1" id="L1" xmlns="http://www.w3.org/2000/svg" xmlns:xlink="http://www.w3.org/1999/xlink" x="0px" y="0px"
	 viewBox="0 0 800 1400" style="enable-background:new 0 0 800 1400;" xml:space="preserve">
<style type="text/css">
	.st0{opacity:0.1;}
	.st1{fill:#437CC5;}
	.st2{fill:#437CC5;fill-opacity:0.1;}
	.st3{fill:#8DD9F9;fill-opacity:0.1;}
	.st4{fill:none;stroke:#437CC5;stroke-width:2;stroke-opacity:0.1;}
	.st5{fill:#8DD9F9;}
</style>
<g id="circle9" class="st0">
	<circle class="st1" cx="76.8" cy="258.9" r="12.1"/>
</g>
<g id="circle9_00000172427270169406079500000010407912656871463311_" class="st0">
	<circle class="st1" cx="677.7" cy="1332.2" r="12.1"/>
</g>
<g id="circle9_00000023274051791325411650000013456830055882592435_" class="st0">
	<circle class="st1" cx="726.6" cy="77.6" r="12.1"/>
</g>
<g id="circle7_00000118363148908801654660000016114537901228875681_" class="st0">
	<path class="st1" d="M707,476.9c4.3,0,7.8,3.5,7.8,7.8s-3.5,7.8-7.8,7.8s-7.8-3.5-7.8-7.8S702.7,476.9,707,476.9 M707,474.9
		c-5.4,0-9.8,4.4-9.8,9.8c0,5.4,4.4,9.8,9.8,9.8s9.8-4.4,9.8-9.8C716.8,479.3,712.4,474.9,707,474.9L707,474.9z"/>
</g>
<g id="circle6" class="st0">
	<path class="st1" d="M755.1,223c3.1,0,5.6,2.5,5.6,5.6s-2.5,5.6-5.6,5.6c-3.1,0-5.6-2.5-5.6-5.6S752,223,755.1,223 M755.1,221
		c-4.2,0-7.6,3.4-7.6,7.6c0,4.2,3.4,7.6,7.6,7.6c4.2,0,7.6-3.4,7.6-7.6C762.7,224.4,759.3,221,755.1,221L755.1,221z"/>
</g>
<g id="circle5_00000158731237365754905060000010285602470841289392_" class="st0">
	<path class="st1" d="M64.7,124.5c10.3,0,18.6,8.4,18.6,18.6s-8.4,18.6-18.6,18.6s-18.6-8.4-18.6-18.6S54.4,124.5,64.7,124.5
		 M64.7,122.5c-11.4,0-20.6,9.2-20.6,20.6c0,11.4,9.2,20.6,20.6,20.6s20.6-9.2,20.6-20.6C85.3,131.7,76.1,122.5,64.7,122.5
		L64.7,122.5z"/>
</g>
<polygon id="path6_00000157274756364030086720000004800902358872330166_" class="st2" points="69.8,1267.4 100.9,1298 90.8,1246.6 
	"/>
<polygon id="path5" class="st3" points="736,800.4 735.4,775.3 719.2,799.1 "/>
<polygon id="path5_00000156553957658848111130000004102779170347602077_" class="st3" points="70.5,69.8 47.8,78.1 74.5,85.5 "/>
<polygon id="path4" class="st4" points="51.9,659.9 69.8,668.4 59.2,649 "/>
<g id="circle4" class="st0">
	<circle class="st5" cx="785" cy="880.6" r="8.8"/>
</g>
<polygon id="path5_00000119822857437983518190000012879621216231695030_" class="st3" points="40.2,1325.6 50.7,1347.5 55.4,1320.1 
	"/>
<polygon id="path3_00000076575019311457288070000011626921638364256144_" class="st3" points="685.4,1096.9 681,1062.5 670,1082.6 
	"/>
<g id="circle5_00000065034990630955203980000009830492867506732182_" class="st0">
	<path class="st1" d="M704.8,966.3v2c2,0,4.1,0.3,6,1c4.7,1.6,8.5,5,10.7,9.4c2.2,4.5,2.5,9.5,0.9,14.2c-2.6,7.5-9.7,12.6-17.6,12.6
		c-2,0-4.1-0.3-6-1c-4.7-1.6-8.5-5-10.7-9.4c-2.2-4.5-2.5-9.5-0.9-14.2c2.6-7.5,9.7-12.6,17.6-12.6L704.8,966.3 M704.8,966.3
		c-8.6,0-16.6,5.4-19.5,13.9c-3.7,10.8,2.1,22.5,12.8,26.2c2.2,0.8,4.5,1.1,6.7,1.1c8.6,0,16.6-5.4,19.5-13.9
		c3.7-10.8-2.1-22.5-12.8-26.2C709.2,966.7,707,966.3,704.8,966.3L704.8,966.3z"/>
</g>
<g id="circle5_00000134945584583704389520000006122993577160997003_" class="st0">
	<path class="st1" d="M727.6,1212.3v2c2,0,4.1,0.3,6,1c4.7,1.6,8.5,5,10.7,9.4c2.2,4.5,2.5,9.5,0.9,14.2
		c-2.6,7.5-9.7,12.6-17.6,12.6c-2,0-4.1-0.3-6-1c-4.7-1.6-8.5-5-10.7-9.4c-2.2-4.5-2.5-9.5-0.9-14.2c2.6-7.5,9.7-12.6,17.6-12.6
		L727.6,1212.3 M727.6,1212.3c-8.6,0-16.6,5.4-19.5,13.9c-3.7,10.8,2.1,22.5,12.8,26.2c2.2,0.8,4.5,1.1,6.7,1.1
		c8.6,0,16.6-5.4,19.5-13.9c3.7-10.8-2.1-22.5-12.8-26.2C732.1,1212.6,729.8,1212.3,727.6,1212.3L727.6,1212.3z"/>
</g>
<g id="circle5_00000075863006711296938900000009186545168247338657_" class="st0">
	<path class="st1" d="M47.8,889.4v2c2,0,4.1,0.3,6,1c4.7,1.6,8.5,5,10.7,9.4c2.2,4.5,2.5,9.5,0.9,14.2c-2.6,7.5-9.7,12.6-17.6,12.6
		c-2,0-4.1-0.3-6-1c-4.7-1.6-8.5-5-10.7-9.4c-2.2-4.5-2.5-9.5-0.9-14.2c2.6-7.5,9.7-12.6,17.6-12.6L47.8,889.4 M47.8,889.4
		c-8.6,0-16.6,5.4-19.5,13.9c-3.7,10.8,2.1,22.5,12.8,26.2c2.2,0.8,4.5,1.1,6.7,1.1c8.6,0,16.6-5.4,19.5-13.9
		c3.7-10.8-2.1-22.5-12.8-26.2C52.2,889.7,50,889.4,47.8,889.4L47.8,889.4z"/>
</g>
<polygon id="path6_00000028307609374163499060000011892161497096177056_" class="st2" points="86,384.5 105.5,423.6 112.6,371.7 "/>
<polygon id="path5_00000086658623453838386520000003423076422077406396_" class="st3" points="136.4,1007.5 135.8,982.4 
	119.6,1006.2 "/>
<polygon id="path5_00000128449973782292855870000017874797019116955264_" class="st3" points="701.9,320.5 677.7,321 700.6,336.7 
	"/>
</svg>
