<?xml version="1.0" encoding="UTF-8"?><svg id="_レイヤー_1" xmlns="http://www.w3.org/2000/svg" xmlns:xlink="http://www.w3.org/1999/xlink" viewBox="0 0 5000 2500"><defs><style>.cls-1{fill:url(#_名称未設定グラデーション_4-5);}.cls-1,.cls-2,.cls-3,.cls-4,.cls-5,.cls-6,.cls-7,.cls-8,.cls-9,.cls-10,.cls-11,.cls-12,.cls-13,.cls-14,.cls-15,.cls-16,.cls-17,.cls-18,.cls-19,.cls-20,.cls-21,.cls-22,.cls-23,.cls-24,.cls-25,.cls-26,.cls-27,.cls-28,.cls-29,.cls-30{stroke-width:0px;}.cls-1,.cls-2,.cls-3,.cls-5,.cls-6,.cls-8,.cls-9,.cls-10,.cls-12,.cls-13,.cls-14,.cls-16,.cls-17,.cls-18,.cls-19,.cls-22,.cls-23,.cls-24,.cls-25,.cls-26,.cls-27,.cls-28{opacity:.35;}.cls-2{fill:url(#_名称未設定グラデーション_4-13);}.cls-3{fill:url(#_名称未設定グラデーション_4-25);}.cls-4{fill:url(#_名称未設定グラデーション_4-22);}.cls-4,.cls-15,.cls-30{opacity:.16;}.cls-31{opacity:.97;}.cls-5{fill:url(#_名称未設定グラデーション_4-10);}.cls-6{fill:url(#_名称未設定グラデーション_4-6);}.cls-7{fill:#f5db96;opacity:.1;}.cls-8{fill:url(#_名称未設定グラデーション_4-19);}.cls-9{fill:url(#_名称未設定グラデーション_4-2);}.cls-10{fill:url(#_名称未設定グラデーション_4-24);}.cls-11{fill:none;}.cls-12{fill:url(#_名称未設定グラデーション_4-11);}.cls-13{fill:url(#_名称未設定グラデーション_4-15);}.cls-14{fill:url(#_名称未設定グラデーション_4-18);}.cls-32{clip-path:url(#clippath-1);}.cls-33{opacity:.75;}.cls-15{fill:url(#_名称未設定グラデーション_4-21);}.cls-16{fill:url(#_名称未設定グラデーション_4-17);}.cls-34{clip-path:url(#clippath);}.cls-17{fill:url(#_名称未設定グラデーション_4-3);}.cls-18{fill:url(#_名称未設定グラデーション_4-12);}.cls-19{fill:url(#_名称未設定グラデーション_4-14);}.cls-20{fill:url(#_名称未設定グラデーション_4-26);}.cls-20,.cls-21,.cls-29{opacity:.2;}.cls-21{fill:url(#_名称未設定グラデーション_4-4);}.cls-22{fill:url(#_名称未設定グラデーション_4);}.cls-23{fill:url(#_名称未設定グラデーション_4-23);}.cls-24{fill:url(#_名称未設定グラデーション_4-20);}.cls-25{fill:#f5d299;}.cls-26{fill:url(#_名称未設定グラデーション_4-8);}.cls-27{fill:url(#_名称未設定グラデーション_4-9);}.cls-28{fill:url(#_名称未設定グラデーション_4-16);}.cls-29{fill:url(#_名称未設定グラデーション_4-27);}.cls-30{fill:url(#_名称未設定グラデーション_4-7);}</style><clipPath id="clippath"><rect class="cls-11" x="1" y="-326" width="5000" height="2996"/></clipPath><linearGradient id="_名称未設定グラデーション_4" x1="3721.18" y1="385.24" x2="4087.71" y2="385.24" gradientUnits="userSpaceOnUse"><stop offset="0" stop-color="#f6eb8f"/><stop offset="1" stop-color="#f4bea1"/></linearGradient><linearGradient id="_名称未設定グラデーション_4-2" x1="1197.79" y1="2616.07" x2="2459.09" y2="1262.59" gradientTransform="translate(2926.82 4097.01) rotate(-132.98)" xlink:href="#_名称未設定グラデーション_4"/><linearGradient id="_名称未設定グラデーション_4-3" x1="4301.39" y1="-705.84" x2="3555.1" y2="-477.42" gradientTransform="translate(1671.43 -1359.71) rotate(47.02)" xlink:href="#_名称未設定グラデーション_4"/><linearGradient id="_名称未設定グラデーション_4-4" x1="586.9" y1="135.52" x2="1739.42" y2="207.55" gradientTransform="translate(-71.5 176.83) rotate(-3.58)" xlink:href="#_名称未設定グラデーション_4"/><linearGradient id="_名称未設定グラデーション_4-5" x1="760.28" y1="1375.67" x2="1912.77" y2="1447.72" gradientTransform="translate(-71.5 176.83) rotate(-3.58)" xlink:href="#_名称未設定グラデーション_4"/><linearGradient id="_名称未設定グラデーション_4-6" x1="-498.46" y1="1362.92" x2="654.05" y2="1434.95" gradientTransform="translate(-71.5 176.83) rotate(-3.58)" xlink:href="#_名称未設定グラデーション_4"/><linearGradient id="_名称未設定グラデーション_4-7" x1="-920.62" y1="2458.47" x2="670.84" y2="2557.93" gradientTransform="translate(-71.5 176.83) rotate(-3.58)" xlink:href="#_名称未設定グラデーション_4"/><linearGradient id="_名称未設定グラデーション_4-8" x1="3742.02" y1="2036.71" x2="3871.27" y2="2036.71" xlink:href="#_名称未設定グラデーション_4"/><linearGradient id="_名称未設定グラデーション_4-9" x1="2581.1" y1="1937.4" x2="2757.12" y2="1937.4" xlink:href="#_名称未設定グラデーション_4"/><linearGradient id="_名称未設定グラデーション_4-10" x1="347.93" y1="740.34" x2="460.9" y2="740.34" xlink:href="#_名称未設定グラデーション_4"/><linearGradient id="_名称未設定グラデーション_4-11" x1="3209.29" y1="400.33" x2="4036.58" y2="-426.97" xlink:href="#_名称未設定グラデーション_4"/><linearGradient id="_名称未設定グラデーション_4-12" x1="2718.39" y1="1632.63" x2="3210.54" y2="1140.48" gradientTransform="translate(4710.07 1917.74) rotate(178.91)" xlink:href="#_名称未設定グラデーション_4"/><clipPath id="clippath-1"><ellipse class="cls-11" cx="1843.59" cy="-319" rx="265.71" ry="265.5"/></clipPath><linearGradient id="_名称未設定グラデーション_4-13" x1="707.98" y1="661.7" x2="1069.52" y2="300.17" gradientTransform="translate(2407.28 -1120.85) rotate(90.02)" xlink:href="#_名称未設定グラデーション_4"/><linearGradient id="_名称未設定グラデーション_4-14" x1="776.61" y1="661.68" x2="1138.15" y2="300.14" gradientTransform="translate(2456.06 -1141.2) rotate(90.02)" xlink:href="#_名称未設定グラデーション_4"/><linearGradient id="_名称未設定グラデーション_4-15" x1="845.24" y1="661.65" x2="1206.78" y2="300.11" gradientTransform="translate(2504.83 -1161.55) rotate(90.02)" xlink:href="#_名称未設定グラデーション_4"/><linearGradient id="_名称未設定グラデーション_4-16" x1="2966.36" y1="1222.69" x2="2051.31" y2="1222.69" xlink:href="#_名称未設定グラデーション_4"/><linearGradient id="_名称未設定グラデーション_4-17" x1="5109.8" y1="2350.32" x2="5601.95" y2="1858.17" gradientTransform="translate(5477.09 1883.05) rotate(178.91)" xlink:href="#_名称未設定グラデーション_4"/><linearGradient id="_名称未設定グラデーション_4-18" x1="2823.06" y1="1567.74" x2="2907.86" y2="1482.94" gradientTransform="translate(1371.41 3585.47) rotate(-90)" xlink:href="#_名称未設定グラデーション_4"/><linearGradient id="_名称未設定グラデーション_4-19" x1="1811.57" y1="2407.54" x2="1896.33" y2="2322.78" gradientTransform="translate(99.55 1793.11) rotate(-38.4)" xlink:href="#_名称未設定グラデーション_4"/><linearGradient id="_名称未設定グラデーション_4-20" x1="1259.27" y1="254.67" x2="1477.08" y2="254.67" xlink:href="#_名称未設定グラデーション_4"/><linearGradient id="_名称未設定グラデーション_4-21" x1="3453.1" y1="797.31" x2="3138.38" y2="797.31" xlink:href="#_名称未設定グラデーション_4"/><linearGradient id="_名称未設定グラデーション_4-22" x1="3712.4" y1="2875.12" x2="4471.27" y2="2116.25" xlink:href="#_名称未設定グラデーション_4"/><linearGradient id="_名称未設定グラデーション_4-23" x1="930.62" y1="1277.2" x2="1106.64" y2="1277.2" xlink:href="#_名称未設定グラデーション_4"/><linearGradient id="_名称未設定グラデーション_4-24" x1="4430.64" y1="327.99" x2="5304.07" y2="327.99" xlink:href="#_名称未設定グラデーション_4"/><linearGradient id="_名称未設定グラデーション_4-25" x1="94.67" y1="562.5" x2="1187.96" y2="562.5" gradientTransform="translate(264.18 2637.38) rotate(-38.68)" xlink:href="#_名称未設定グラデーション_4"/><linearGradient id="_名称未設定グラデーション_4-26" x1="-750.49" y1="1730.02" x2="-110.9" y2="1090.43" gradientTransform="translate(538.19 1142.42) rotate(-180)" xlink:href="#_名称未設定グラデーション_4"/><linearGradient id="_名称未設定グラデーション_4-27" x1="7.18" y1="1011.02" x2="155.54" y2="1011.02" gradientTransform="translate(538.19 1142.42) rotate(-180)" xlink:href="#_名称未設定グラデーション_4"/></defs><path class="cls-7" d="M4312.01,913.87c-29.89-31.48-79.66-32.79-111.16-2.92l-997.54,945.6c-31.5,29.86-32.81,79.59-2.93,111.07s79.66,32.79,111.16,2.92l997.54-945.6c31.5-29.86,32.81-79.59,2.93-111.07Z"/><g class="cls-34"><g class="cls-33"><path class="cls-22" d="M3769.73,549.77c-13.63,0-27.18-5.7-36.78-16.83-17.5-20.28-15.22-50.9,5.07-68.38l269.48-232.09c20.3-17.48,50.94-15.21,68.44,5.07,17.5,20.28,15.22,50.9-5.07,68.38l-269.48,232.09c-9.16,7.89-20.44,11.76-31.66,11.76Z"/><path class="cls-7" d="M1762.2,2709.49c-21,.4-42.04-7.99-57.15-24.85-27.55-30.74-24.95-77.97,5.82-105.5l408.38-365.44c30.76-27.53,78.04-24.93,105.59,5.81,27.55,30.74,24.95,77.97-5.82,105.5l-408.38,365.44c-13.89,12.43-31.15,18.71-48.43,19.04Z"/><path class="cls-25" d="M4206.04,125.5c-20.15-23.36-55.56-25.98-78.94-5.85-23.38,20.13-26,55.52-5.85,78.87,11.05,12.82,26.7,19.39,42.43,19.39,12.94,0,25.95-4.45,36.5-13.54,0,0,0,0,0,0,11.32-9.75,18.17-23.33,19.27-38.22,1.11-14.9-3.66-29.34-13.42-40.65Z"/><path class="cls-9" d="M3952.17,570.83c19.25,0,38.44,7.67,52.6,22.86,27.07,29.02,25.47,74.47-3.58,101.52l-1706.36,1588.87c-29.05,27.05-74.53,25.45-101.6-3.58s-25.46-74.47,3.58-101.52l1706.36-1588.88c13.85-12.9,31.45-19.28,48.99-19.28Z"/><path class="cls-17" d="M3977.43,1928.3c-18.17,0-36.28-7.24-49.64-21.57-25.54-27.39-24.03-70.27,3.38-95.8l1610.25-1499.38c27.41-25.52,70.33-24.01,95.87,3.38,25.54,27.39,24.03,70.28-3.38,95.8l-1610.24,1499.38c-13.07,12.17-29.67,18.19-46.23,18.19Z"/><path class="cls-21" d="M1655.97-251.42c-29.89-31.48-79.66-32.79-111.16-2.92l-997.54,945.6c-31.5,29.86-32.81,79.59-2.93,111.07,29.89,31.48,79.66,32.79,111.16,2.92L1653.04-140.35c31.5-29.86,32.81-79.59,2.93-111.07Z"/><path class="cls-1" d="M1906.39,975.57c-29.89-31.48-79.66-32.79-111.16-2.92l-997.54,945.6c-31.5,29.86-32.81,79.59-2.93,111.07,29.89,31.48,79.66,32.79,111.16,2.92l997.54-945.6c31.5-29.86,32.81-79.59,2.93-111.07Z"/><path class="cls-6" d="M649.26,1041.37c-29.89-31.48-79.66-32.79-111.16-2.92l-997.54,945.6c-31.5,29.86-32.81,79.59-2.93,111.07,29.89,31.48,79.66,32.79,111.16,2.92l997.54-945.6c31.5-29.86,32.81-79.59,2.93-111.07Z"/><path class="cls-7" d="M481.33,1332.71c-29.89-31.48-79.66-32.79-111.16-2.92l-997.54,945.6c-31.5,29.86-32.81,79.59-2.93,111.07,29.89,31.48,79.66,32.79,111.16,2.92l997.54-945.6c31.5-29.86,32.81-79.59,2.93-111.07Z"/><path class="cls-30" d="M727.86,1960.52c-41.27-43.47-109.99-45.27-153.49-4.04l-1377.47,1305.75c-43.5,41.24-45.31,109.91-4.04,153.37,41.27,43.47,109.99,45.28,153.49,4.04l1377.47-1305.75c43.5-41.24,45.31-109.91,4.04-153.37Z"/><path class="cls-26" d="M3855.59,1994.54c-23.27-26.98-64.16-30.01-91.16-6.76-26.99,23.25-30.02,64.11-6.76,91.08,12.77,14.8,30.83,22.39,49,22.39,14.95,0,29.97-5.14,42.15-15.63,0,0,0,0,0,0,13.07-11.26,20.98-26.94,22.26-44.14,1.28-17.2-4.23-33.88-15.5-46.94Z"/><path class="cls-27" d="M2735.77,1879.98c-31.69-36.74-87.38-40.87-124.16-9.2-36.76,31.67-40.89,87.32-9.2,124.04,17.39,20.16,41.99,30.5,66.74,30.5,20.36,0,40.81-7,57.41-21.29,0,0,0,0,0,0,17.81-15.34,28.57-36.69,30.31-60.12,1.74-23.43-5.76-46.14-21.11-63.93Z"/><path class="cls-5" d="M447.19,703.49c-20.34-23.58-56.08-26.23-79.68-5.91-23.59,20.32-26.24,56.04-5.91,79.61,11.16,12.94,26.95,19.57,42.83,19.57,13.07,0,26.19-4.49,36.84-13.66,0,0,0,0,0,0,11.43-9.85,18.34-23.55,19.45-38.58,1.12-15.04-3.69-29.61-13.55-41.03Z"/><path class="cls-12" d="M4011.55-451.84c-15.11-16.86-36.15-25.25-57.15-24.85-17.29.33-34.54,6.62-48.43,19.04l-408.38,365.44c-30.76,27.53-33.37,74.76-5.82,105.5,16.62,18.54,40.41,26.83,63.43,24.45l-315.07,281.94c-30.76,27.53-33.37,74.76-5.82,105.5,27.54,30.74,74.82,33.34,105.59,5.81l408.38-365.44c30.76-27.53,33.37-74.76,5.82-105.5-15.11-16.86-36.15-25.25-57.15-24.85-2.09.04-4.18.17-6.26.38l315.05-281.93c30.76-27.53,33.37-74.76,5.82-105.5Z"/><path class="cls-18" d="M1922.59,330.37c21-.4,42.04,7.99,57.15,24.85,27.55,30.74,24.95,77.97-5.82,105.5l-408.38,365.44c-30.76,27.53-78.04,24.93-105.59-5.81-27.55-30.74-24.95-77.97,5.82-105.5l408.38-365.44c13.89-12.43,31.15-18.71,48.43-19.04Z"/><g class="cls-31"><g class="cls-32"><rect class="cls-2" x="1581" y="-248.73" width="689.94" height="32.85" transform="translate(736.14 1299.9) rotate(-45.29)"/><rect class="cls-19" x="1629.78" y="-200.44" width="689.94" height="32.85" transform="translate(716.29 1348.88) rotate(-45.29)"/><rect class="cls-13" x="1678.55" y="-152.16" width="689.94" height="32.85" transform="translate(696.43 1397.86) rotate(-45.29)"/></g></g><path class="cls-28" d="M2947.29,902.43c-15.11-16.86-36.15-25.25-57.15-24.85-17.29.33-34.54,6.62-48.43,19.04l-235.31,210.57c-3-10.57-8.39-20.64-16.22-29.38-15.11-16.86-36.15-25.25-57.15-24.85-17.29.33-34.54,6.62-48.43,19.04l-408.38,365.44c-30.76,27.53-33.37,74.76-5.82,105.5,27.54,30.74,74.82,33.34,105.59,5.81l235.31-210.57c3,10.57,8.39,20.64,16.22,29.38,27.54,30.74,74.82,33.34,105.59,5.81l408.38-365.44c30.76-27.53,33.37-74.76,5.82-105.5Z"/><path class="cls-16" d="M285.05-376.43c21-.4,42.04,7.99,57.15,24.85,27.55,30.74,24.95,77.97-5.82,105.5L-72,119.36c-30.76,27.53-78.04,24.93-105.59-5.81-27.55-30.74-24.95-77.97,5.82-105.5L236.62-357.39c13.89-12.43,31.15-18.71,48.43-19.04Z"/><polygon class="cls-14" points="2811.94 720.02 2919.5 782.06 2919.5 657.97 2811.94 720.02"/><polygon class="cls-8" points="2968.81 2428.77 2986.95 2551.53 3084.28 2474.45 2968.81 2428.77"/><polygon class="cls-24" points="1259.27 208.89 1424.18 365.06 1477.08 144.27 1259.27 208.89"/><path class="cls-15" d="M3414.92,694.64c-56.66-65.69-156.23-73.07-221.99-16.45-65.73,56.62-73.11,156.12-16.45,221.79,31.09,36.04,75.08,54.53,119.33,54.53,36.4,0,72.98-12.52,102.64-38.07,0,0,0,0,.01,0,31.84-27.43,51.08-65.6,54.2-107.49,3.11-41.89-10.29-82.49-37.74-114.3Z"/><path class="cls-4" d="M4530.29,2175.43c-15.11-16.86-36.15-25.25-57.15-24.85-17.29.33-34.54,6.62-48.43,19.04l-235.31,210.57c-3-10.57-8.39-20.64-16.22-29.38-15.11-16.86-36.15-25.25-57.15-24.85-17.29.33-34.54,6.62-48.43,19.04l-408.38,365.44c-30.76,27.53-33.37,74.76-5.82,105.5,27.54,30.74,74.82,33.34,105.59,5.81l235.31-210.57c3,10.57,8.39,20.64,16.22,29.38,27.54,30.74,74.82,33.34,105.59,5.81l408.38-365.44c30.76-27.53,33.37-74.76,5.82-105.5Z"/><path class="cls-23" d="M1085.29,1219.77c-31.69-36.74-87.38-40.87-124.16-9.2-36.76,31.67-40.89,87.32-9.2,124.04,17.39,20.16,41.99,30.5,66.74,30.5,20.36,0,40.81-7,57.41-21.29,0,0,0,0,0,0,17.81-15.34,28.57-36.69,30.31-60.12,1.74-23.43-5.76-46.14-21.11-63.93Z"/><path class="cls-10" d="M5219.55-39.05l-503.27,402.83c-63.91,11.25-35.17-53.99-35.17-53.99l355.17-284.29c24.03-19.24,26.81-49.96,9.66-71.38h0c-17.15-21.43-47.73-25.45-71.77-6.21l-477.31,382.05c-24.03,19.24-29.62,52.2-12.47,73.63h0c17.15,21.43,50.54,23.2,74.57,3.96l25.92-20.75c56.27-5.44,49.27,31.79,44.35,46.63l-176.2,141.04c-24.03,19.24-29.62,52.2-12.47,73.63h0c17.15,21.43,50.54,23.2,74.57,3.96l447.82-358.45c72.85-17.25,42.07,52.56,42.07,52.56l-355.17,284.29c-24.03,19.24-26.81,49.96-9.66,71.38h0c17.15,21.43,47.73,25.45,71.77,6.21l477.3-382.05c24.03-19.24,29.62-52.2,12.46-73.63h0c-17.15-21.43-50.54-23.2-74.57-3.96l-25.92,20.75c-70.02,6.76-42.07-52.56-42.07-52.56l222.46-178.06c24.03-19.24,29.62-52.2,12.46-73.63h0c-17.15-21.43-50.54-23.2-74.57-3.96Z"/><path class="cls-3" d="M1467.55,2328.95l-503.27,402.83c-63.91,11.25-35.17-53.99-35.17-53.99l355.17-284.29c24.03-19.24,26.81-49.96,9.66-71.38h0c-17.15-21.43-47.73-25.45-71.77-6.21l-477.31,382.05c-24.03,19.24-29.62,52.2-12.46,73.63h0c17.15,21.43,50.54,23.2,74.57,3.96l25.92-20.75c56.27-5.44,49.27,31.79,44.35,46.63l-176.2,141.04c-24.03,19.24-29.62,52.2-12.46,73.63h0c17.15,21.43,50.54,23.2,74.57,3.96l447.82-358.45c72.85-17.25,42.07,52.56,42.07,52.56l-355.17,284.29c-24.03,19.24-26.81,49.96-9.66,71.38h0c17.15,21.43,47.73,25.45,71.77,6.21l477.31-382.05c24.03-19.24,29.62-52.2,12.46-73.63h0c-17.15-21.43-50.54-23.2-74.57-3.96l-25.92,20.75c-70.02,6.76-42.07-52.56-42.07-52.56l222.46-178.06c24.03-19.24,29.62-52.2,12.46-73.63h0c-17.15-21.43-50.54-23.2-74.57-3.96Z"/><path class="cls-20" d="M599.36,2.11c12.74,14.21,30.47,21.28,48.17,20.95,14.57-.28,29.11-5.58,40.82-16.05l198.33-177.47c2.53,8.91,7.07,17.4,13.67,24.76,12.74,14.21,30.47,21.28,48.17,20.95,14.57-.28,29.11-5.58,40.82-16.05l344.19-308c25.93-23.2,28.12-63.01,4.9-88.92-23.22-25.91-63.06-28.1-88.99-4.9l-198.33,177.47c-2.53-8.91-7.07-17.4-13.67-24.76-23.22-25.91-63.06-28.1-88.99-4.9L604.26-86.81c-25.93,23.2-28.12,63.01-4.9,88.92Z"/><path class="cls-29" d="M400.66,179.8c26.71,30.97,73.65,34.44,104.64,7.76,30.98-26.69,34.46-73.59,7.76-104.55-14.65-16.99-35.39-25.7-56.25-25.7-17.16,0-34.4,5.9-48.38,17.95,0,0,0,0,0,0-15.01,12.93-24.08,30.92-25.55,50.67-1.46,19.75,4.85,38.89,17.79,53.88Z"/></g></g></svg>