<?xml version="1.0" encoding="UTF-8"?><svg id="_レイヤー_1" xmlns="http://www.w3.org/2000/svg" xmlns:xlink="http://www.w3.org/1999/xlink" viewBox="0 0 4000 2000"><defs><style>.cls-1{fill:url(#_名称未設定グラデーション_4-5);}.cls-1,.cls-2,.cls-3,.cls-4,.cls-5,.cls-6,.cls-7,.cls-8,.cls-9,.cls-10,.cls-11,.cls-12,.cls-13,.cls-14,.cls-15,.cls-16,.cls-17,.cls-18,.cls-19,.cls-20,.cls-21,.cls-22,.cls-23,.cls-24,.cls-25,.cls-26,.cls-27,.cls-28,.cls-29,.cls-30,.cls-31,.cls-32,.cls-33,.cls-34{stroke-width:0px;}.cls-1,.cls-2,.cls-3,.cls-5,.cls-6,.cls-8,.cls-9,.cls-10,.cls-12,.cls-13,.cls-14,.cls-15,.cls-17,.cls-18,.cls-19,.cls-20,.cls-21,.cls-22,.cls-23,.cls-24,.cls-26,.cls-27,.cls-29,.cls-30,.cls-31,.cls-32,.cls-33{opacity:.35;}.cls-2{fill:url(#_名称未設定グラデーション_4-13);}.cls-3{fill:url(#_名称未設定グラデーション_4-25);}.cls-4{fill:url(#_名称未設定グラデーション_4-6);}.cls-4,.cls-16{opacity:.2;}.cls-35{clip-path:url(#clippath-2);}.cls-36{opacity:.97;}.cls-5{fill:url(#_名称未設定グラデーション_4-22);}.cls-6{fill:url(#_名称未設定グラデーション_4-10);}.cls-7{fill:#f5db96;opacity:.1;}.cls-8{fill:url(#_名称未設定グラデーション_4-19);}.cls-9{fill:url(#_名称未設定グラデーション_4-2);}.cls-10{fill:url(#_名称未設定グラデーション_4-24);}.cls-11{fill:none;}.cls-12{fill:url(#_名称未設定グラデーション_4-11);}.cls-13{fill:url(#_名称未設定グラデーション_4-7);}.cls-14{fill:url(#_名称未設定グラデーション_4-15);}.cls-15{fill:url(#_名称未設定グラデーション_4-18);}.cls-37{clip-path:url(#clippath-1);}.cls-38{opacity:.48;}.cls-16{fill:url(#_名称未設定グラデーション_4-30);}.cls-17{fill:url(#_名称未設定グラデーション_4-17);}.cls-18{fill:url(#_名称未設定グラデーション_4-4);}.cls-19{fill:url(#_名称未設定グラデーション_4-28);}.cls-39{clip-path:url(#clippath);}.cls-20{fill:url(#_名称未設定グラデーション_4-3);}.cls-21{fill:url(#_名称未設定グラデーション_4-12);}.cls-22{fill:url(#_名称未設定グラデーション_4-14);}.cls-23{fill:url(#_名称未設定グラデーション_4-29);}.cls-24{fill:url(#_名称未設定グラデーション_4);}.cls-25{fill:url(#_名称未設定グラデーション_4-27);}.cls-25,.cls-34{opacity:.16;}.cls-26{fill:url(#_名称未設定グラデーション_4-26);}.cls-27{fill:url(#_名称未設定グラデーション_4-23);}.cls-28{fill:url(#_名称未設定グラデーション_8);}.cls-29{fill:url(#_名称未設定グラデーション_4-20);}.cls-30{fill:#f5d299;}.cls-31{fill:url(#_名称未設定グラデーション_4-8);}.cls-32{fill:url(#_名称未設定グラデーション_4-16);}.cls-33{fill:url(#_名称未設定グラデーション_4-21);}.cls-34{fill:url(#_名称未設定グラデーション_4-9);}</style><clipPath id="clippath"><rect class="cls-11" x="-499" y="-502" width="5000" height="2996"/></clipPath><linearGradient id="_名称未設定グラデーション_4" x1="3267.68" y1="311.74" x2="3634.21" y2="311.74" gradientUnits="userSpaceOnUse"><stop offset="0" stop-color="#f6eb8f"/><stop offset="1" stop-color="#f4bea1"/></linearGradient><linearGradient id="_名称未設定グラデーション_4-2" x1="2978.89" y1="1410.92" x2="3298.28" y2="1091.53" xlink:href="#_名称未設定グラデーション_4"/><linearGradient id="_名称未設定グラデーション_4-3" x1="43.64" y1="424.36" x2="410.17" y2="424.36" xlink:href="#_名称未設定グラデーション_4"/><linearGradient id="_名称未設定グラデーション_4-4" x1="463.85" y1="204.37" x2="1725.14" y2="-1149.12" gradientTransform="translate(2268.82 3310.76) rotate(-132.98)" xlink:href="#_名称未設定グラデーション_4"/><linearGradient id="_名称未設定グラデーション_4-5" x1="3962.21" y1="-869.53" x2="3215.91" y2="-641.11" gradientTransform="translate(1329.43 -1073.46) rotate(47.02)" xlink:href="#_名称未設定グラデーション_4"/><linearGradient id="_名称未設定グラデーション_4-6" x1="968.54" y1="374.96" x2="2121.05" y2="446.99" gradientTransform="translate(-56.85 145.15) rotate(-3.58)" xlink:href="#_名称未設定グラデーション_4"/><linearGradient id="_名称未設定グラデーション_4-7" x1="-569.61" y1="2068.18" x2="582.88" y2="2140.23" gradientTransform="translate(-56.85 145.15) rotate(-3.58)" xlink:href="#_名称未設定グラデーション_4"/><linearGradient id="_名称未設定グラデーション_4-8" x1="-963.07" y1="1291.97" x2="189.45" y2="1363.99" gradientTransform="translate(-56.85 145.15) rotate(-3.58)" xlink:href="#_名称未設定グラデーション_4"/><linearGradient id="_名称未設定グラデーション_4-9" x1="-1385.23" y1="2387.52" x2="206.23" y2="2486.98" gradientTransform="translate(-56.85 145.15) rotate(-3.58)" xlink:href="#_名称未設定グラデーション_4"/><linearGradient id="_名称未設定グラデーション_4-10" x1="3288.52" y1="1963.21" x2="3417.77" y2="1963.21" xlink:href="#_名称未設定グラデーション_4"/><linearGradient id="_名称未設定グラデーション_4-11" x1="2127.6" y1="1863.9" x2="2303.62" y2="1863.9" xlink:href="#_名称未設定グラデーション_4"/><linearGradient id="_名称未設定グラデーション_4-12" x1="-105.57" y1="666.84" x2="7.4" y2="666.84" xlink:href="#_名称未設定グラデーション_4"/><linearGradient id="_名称未設定グラデーション_4-13" x1="2447.79" y1="270.83" x2="3275.08" y2="-556.47" xlink:href="#_名称未設定グラデーション_4"/><linearGradient id="_名称未設定グラデーション_4-14" x1="2505.36" y1="887.48" x2="2997.51" y2="395.33" gradientTransform="translate(3705.42 1427.29) rotate(178.91)" xlink:href="#_名称未設定グラデーション_4"/><clipPath id="clippath-1"><ellipse class="cls-11" cx="1120.87" cy="1736.61" rx="265.71" ry="265.5"/></clipPath><linearGradient id="_名称未設定グラデーション_4-15" x1="1535.18" y1="2206.42" x2="1896.71" y2="1844.88" gradientTransform="translate(3132.06 11.64) rotate(90.02)" xlink:href="#_名称未設定グラデーション_4"/><linearGradient id="_名称未設定グラデーション_4-16" x1="1603.81" y1="2206.39" x2="1965.34" y2="1844.85" gradientTransform="translate(3180.84 -8.71) rotate(90.02)" xlink:href="#_名称未設定グラデーション_4"/><linearGradient id="_名称未設定グラデーション_4-17" x1="1672.44" y1="2206.36" x2="2033.97" y2="1844.82" gradientTransform="translate(3229.61 -29.06) rotate(90.02)" xlink:href="#_名称未設定グラデーション_4"/><linearGradient id="_名称未設定グラデーション_4-18" x1="1741.07" y1="2206.33" x2="2102.6" y2="1844.79" gradientTransform="translate(3278.39 -49.41) rotate(90.02)" xlink:href="#_名称未設定グラデーション_4"/><linearGradient id="_名称未設定グラデーション_4-19" x1="1809.7" y1="2206.3" x2="2171.23" y2="1844.77" gradientTransform="translate(3327.16 -69.75) rotate(90.02)" xlink:href="#_名称未設定グラデーション_4"/><linearGradient id="_名称未設定グラデーション_4-20" x1="1466.55" y1="2206.44" x2="1828.08" y2="1844.91" gradientTransform="translate(3083.29 31.99) rotate(90.02)" xlink:href="#_名称未設定グラデーション_4"/><linearGradient id="_名称未設定グラデーション_4-21" x1="1397.92" y1="2206.47" x2="1759.45" y2="1844.94" gradientTransform="translate(3034.52 52.34) rotate(90.02)" xlink:href="#_名称未設定グラデーション_4"/><linearGradient id="_名称未設定グラデーション_4-22" x1="1329.29" y1="2206.5" x2="1690.82" y2="1844.97" gradientTransform="translate(2985.74 72.69) rotate(90.02)" xlink:href="#_名称未設定グラデーション_4"/><linearGradient id="_名称未設定グラデーション_8" x1="1260.66" y1="2206.53" x2="1622.19" y2="1844.99" gradientTransform="translate(2936.96 93.04) rotate(90.02)" gradientUnits="userSpaceOnUse"><stop offset="0" stop-color="#f3a9a5"/><stop offset="1" stop-color="#95afe5"/></linearGradient><clipPath id="clippath-2"><ellipse class="cls-11" cx="1390.09" cy="-392.5" rx="265.71" ry="265.5"/></clipPath><linearGradient id="_名称未設定グラデーション_4-23" x1="502.49" y1="504.31" x2="864.03" y2="142.77" gradientTransform="translate(1893.85 -892.36) rotate(90.02)" xlink:href="#_名称未設定グラデーション_4"/><linearGradient id="_名称未設定グラデーション_4-24" x1="2543.86" y1="1119.19" x2="1628.81" y2="1119.19" xlink:href="#_名称未設定グラデーション_4"/><linearGradient id="_名称未設定グラデーション_4-25" x1="2277.56" y1="1136.24" x2="2362.36" y2="1051.44" gradientTransform="translate(1121.41 2835.47) rotate(-90)" xlink:href="#_名称未設定グラデーション_4"/><linearGradient id="_名称未設定グラデーション_4-26" x1="805.77" y1="181.17" x2="1023.58" y2="181.17" xlink:href="#_名称未設定グラデーション_4"/><linearGradient id="_名称未設定グラデーション_4-27" x1="2999.6" y1="723.81" x2="2684.88" y2="723.81" xlink:href="#_名称未設定グラデーション_4"/><linearGradient id="_名称未設定グラデーション_4-28" x1="477.12" y1="1203.7" x2="653.14" y2="1203.7" xlink:href="#_名称未設定グラデーション_4"/><linearGradient id="_名称未設定グラデーション_4-29" x1="3977.14" y1="254.49" x2="4850.57" y2="254.49" xlink:href="#_名称未設定グラデーション_4"/><linearGradient id="_名称未設定グラデーション_4-30" x1="-539.32" y1="584.52" x2="-390.96" y2="584.52" gradientTransform="translate(-461.81 642.42) rotate(-180)" xlink:href="#_名称未設定グラデーション_4"/></defs><path class="cls-7" d="M3812.01,663.87c-29.89-31.48-79.66-32.79-111.16-2.92l-997.54,945.6c-31.5,29.86-32.81,79.59-2.93,111.07s79.66,32.79,111.16,2.92l997.54-945.6c31.5-29.86,32.81-79.59,2.93-111.07Z"/><g class="cls-39"><path class="cls-24" d="M3316.23,476.27c-13.63,0-27.18-5.7-36.78-16.83-17.5-20.28-15.22-50.9,5.07-68.38l269.48-232.09c20.3-17.48,50.94-15.21,68.44,5.07,17.5,20.28,15.22,50.9-5.07,68.38l-269.48,232.09c-9.16,7.89-20.44,11.76-31.66,11.76Z"/><path class="cls-9" d="M3003.87,1415.76c-13.63,0-27.18-5.7-36.78-16.83-17.5-20.28-15.22-50.9,5.07-68.38l269.48-232.09c20.3-17.48,50.94-15.21,68.44,5.07,17.5,20.28,15.22,50.9-5.07,68.38l-269.48,232.09c-9.16,7.89-20.44,11.76-31.66,11.76Z"/><path class="cls-20" d="M92.19,588.89c-13.63,0-27.18-5.7-36.78-16.83-17.5-20.28-15.22-50.9,5.07-68.38l269.48-232.09c20.3-17.48,50.94-15.21,68.44,5.07,17.5,20.28,15.22,50.9-5.07,68.38l-269.48,232.09c-9.16,7.89-20.44,11.76-31.66,11.76Z"/><path class="cls-30" d="M3752.54,52c-20.15-23.36-55.56-25.98-78.94-5.85-23.38,20.13-26,55.52-5.85,78.87,11.05,12.82,26.7,19.39,42.43,19.39,12.94,0,25.95-4.45,36.5-13.54,0,0,0,0,0,0,11.32-9.75,18.17-23.33,19.27-38.22,1.11-14.9-3.66-29.34-13.42-40.65Z"/><path class="cls-18" d="M2030.17,1965.83c19.25,0,38.44,7.67,52.6,22.86,27.07,29.02,25.47,74.47-3.58,101.52L372.83,3679.08c-29.05,27.05-74.53,25.45-101.6-3.58s-25.46-74.47,3.58-101.52l1706.36-1588.88c13.85-12.9,31.45-19.28,48.99-19.28Z"/><path class="cls-1" d="M3523.93,1854.8c-18.17,0-36.28-7.24-49.64-21.57-25.54-27.39-24.03-70.27,3.38-95.8L5087.92,238.05c27.41-25.52,70.33-24.01,95.87,3.38,25.54,27.39,24.03,70.28-3.38,95.8l-1610.24,1499.38c-13.07,12.17-29.67,18.19-46.23,18.19Z"/><path class="cls-4" d="M2066.47-67.92c-29.89-31.48-79.66-32.79-111.16-2.92l-997.54,945.6c-31.5,29.86-32.81,79.59-2.93,111.07,29.89,31.48,79.66,32.79,111.16,2.92L2063.54,43.15c31.5-29.86,32.81-79.59,2.93-111.07Z"/><path class="cls-13" d="M636.89,1718.07c-29.89-31.48-79.66-32.79-111.16-2.92l-997.54,945.6c-31.5,29.86-32.81,79.59-2.93,111.07,29.89,31.48,79.66,32.79,111.16,2.92l997.54-945.6c31.5-29.86,32.81-79.59,2.93-111.07Z"/><path class="cls-31" d="M195.76,967.87c-29.89-31.48-79.66-32.79-111.16-2.92l-997.54,945.6c-31.5,29.86-32.81,79.59-2.93,111.07,29.89,31.48,79.66,32.79,111.16,2.92L192.83,1078.94c31.5-29.86,32.81-79.59,2.93-111.07Z"/><path class="cls-7" d="M27.83,1259.21c-29.89-31.48-79.66-32.79-111.16-2.92l-997.54,945.6c-31.5,29.86-32.81,79.59-2.93,111.07,29.89,31.48,79.66,32.79,111.16,2.92L24.9,1370.28c31.5-29.86,32.81-79.59,2.93-111.07Z"/><path class="cls-34" d="M274.36,1887.02c-41.27-43.47-109.99-45.27-153.49-4.04l-1377.47,1305.75c-43.5,41.24-45.31,109.91-4.04,153.37,41.27,43.47,109.99,45.28,153.49,4.04L270.32,2040.39c43.5-41.24,45.31-109.91,4.04-153.37Z"/><path class="cls-6" d="M3402.09,1921.04c-23.27-26.98-64.16-30.01-91.16-6.76-26.99,23.25-30.02,64.11-6.76,91.08,12.77,14.8,30.83,22.39,49,22.39,14.95,0,29.97-5.14,42.15-15.63,0,0,0,0,0,0,13.07-11.26,20.98-26.94,22.26-44.14,1.28-17.2-4.23-33.88-15.5-46.94Z"/><path class="cls-12" d="M2282.27,1806.48c-31.69-36.74-87.38-40.87-124.16-9.2-36.76,31.67-40.89,87.32-9.2,124.04,17.39,20.16,41.99,30.5,66.74,30.5,20.36,0,40.81-7,57.41-21.29,0,0,0,0,0,0,17.81-15.34,28.57-36.69,30.31-60.12,1.74-23.43-5.76-46.14-21.11-63.93Z"/><path class="cls-21" d="M-6.31,629.99c-20.34-23.58-56.08-26.23-79.68-5.91-23.59,20.32-26.24,56.04-5.91,79.61,11.16,12.94,26.95,19.57,42.83,19.57,13.07,0,26.19-4.49,36.84-13.66,0,0,0,0,0,0,11.43-9.85,18.34-23.55,19.45-38.58,1.12-15.04-3.69-29.61-13.55-41.03Z"/><path class="cls-2" d="M3250.05-581.34c-15.11-16.86-36.15-25.25-57.15-24.85-17.29.33-34.54,6.62-48.43,19.04l-408.38,365.44c-30.76,27.53-33.37,74.76-5.82,105.5,16.62,18.54,40.41,26.83,63.43,24.45l-315.07,281.94c-30.76,27.53-33.37,74.76-5.82,105.5,27.54,30.74,74.82,33.34,105.59,5.81l408.38-365.44c30.76-27.53,33.37-74.76,5.82-105.5-15.11-16.86-36.15-25.25-57.15-24.85-2.09.04-4.18.17-6.26.38l315.05-281.93c30.76-27.53,33.37-74.76,5.82-105.5Z"/><path class="cls-22" d="M1145.09,580.87c21-.4,42.04,7.99,57.15,24.85,27.55,30.74,24.95,77.97-5.82,105.5l-408.38,365.44c-30.76,27.53-78.04,24.93-105.59-5.81-27.55-30.74-24.95-77.97,5.82-105.5l408.38-365.44c13.89-12.43,31.15-18.71,48.43-19.04Z"/><g class="cls-38"><g class="cls-37"><rect class="cls-14" x="760.73" y="1710.32" width="689.94" height="32.85" transform="translate(-899.35 1297.78) rotate(-45.29)"/><rect class="cls-32" x="809.5" y="1758.6" width="689.94" height="32.85" transform="translate(-919.2 1346.76) rotate(-45.29)"/><rect class="cls-17" x="858.28" y="1806.88" width="689.94" height="32.85" transform="translate(-939.05 1395.74) rotate(-45.29)"/><rect class="cls-15" x="907.05" y="1855.16" width="689.94" height="32.85" transform="translate(-958.9 1444.72) rotate(-45.29)"/><rect class="cls-8" x="955.83" y="1903.44" width="689.94" height="32.85" transform="translate(-978.76 1493.7) rotate(-45.29)"/><rect class="cls-29" x="711.95" y="1662.04" width="689.94" height="32.85" transform="translate(-879.5 1248.81) rotate(-45.29)"/><rect class="cls-33" x="663.18" y="1613.76" width="689.94" height="32.85" transform="translate(-859.65 1199.83) rotate(-45.29)"/><rect class="cls-5" x="614.4" y="1565.47" width="689.94" height="32.85" transform="translate(-839.79 1150.85) rotate(-45.29)"/><rect class="cls-28" x="565.63" y="1517.19" width="689.94" height="32.85" transform="translate(-819.94 1101.87) rotate(-45.29)"/></g></g><g class="cls-36"><g class="cls-35"><rect class="cls-27" x="1225.05" y="-225.66" width="689.94" height="32.85" transform="translate(614.21 1053.76) rotate(-45.29)"/></g></g><path class="cls-10" d="M2524.79,798.93c-15.11-16.86-36.15-25.25-57.15-24.85-17.29.33-34.54,6.62-48.43,19.04l-235.31,210.57c-3-10.57-8.39-20.64-16.22-29.38-15.11-16.86-36.15-25.25-57.15-24.85-17.29.33-34.54,6.62-48.43,19.04l-408.38,365.44c-30.76,27.53-33.37,74.76-5.82,105.5,27.54,30.74,74.82,33.34,105.59,5.81l235.31-210.57c3,10.57,8.39,20.64,16.22,29.38,27.54,30.74,74.82,33.34,105.59,5.81l408.38-365.44c30.76-27.53,33.37-74.76,5.82-105.5Z"/><polygon class="cls-3" points="2130.44 515.52 2238 577.56 2238 453.47 2130.44 515.52"/><polygon class="cls-26" points="805.77 135.39 970.68 291.56 1023.58 70.77 805.77 135.39"/><path class="cls-25" d="M2961.42,621.14c-56.66-65.69-156.23-73.07-221.99-16.45-65.73,56.62-73.11,156.12-16.45,221.79,31.09,36.04,75.08,54.53,119.33,54.53,36.4,0,72.98-12.52,102.64-38.07,0,0,0,0,.01,0,31.84-27.43,51.08-65.6,54.2-107.49,3.11-41.89-10.29-82.49-37.74-114.3Z"/><path class="cls-19" d="M631.79,1146.27c-31.69-36.74-87.38-40.87-124.16-9.2-36.76,31.67-40.89,87.32-9.2,124.04,17.39,20.16,41.99,30.5,66.74,30.5,20.36,0,40.81-7,57.41-21.29,0,0,0,0,0,0,17.81-15.34,28.57-36.69,30.31-60.12,1.74-23.43-5.76-46.14-21.11-63.93Z"/><path class="cls-23" d="M4766.05-112.55l-503.27,402.83c-63.91,11.25-35.17-53.99-35.17-53.99l355.17-284.29c24.03-19.24,26.81-49.96,9.66-71.38h0c-17.15-21.43-47.73-25.45-71.77-6.21l-477.31,382.05c-24.03,19.24-29.62,52.2-12.47,73.63h0c17.15,21.43,50.54,23.2,74.57,3.96l25.92-20.75c56.27-5.44,49.27,31.79,44.35,46.63l-176.2,141.04c-24.03,19.24-29.62,52.2-12.47,73.63h0c17.15,21.43,50.54,23.2,74.57,3.96l447.82-358.45c72.85-17.25,42.07,52.56,42.07,52.56l-355.17,284.29c-24.03,19.24-26.81,49.96-9.66,71.38h0c17.15,21.43,47.73,25.45,71.77,6.21l477.3-382.05c24.03-19.24,29.62-52.2,12.46-73.63h0c-17.15-21.43-50.54-23.2-74.57-3.96l-25.92,20.75c-70.02,6.76-42.07-52.56-42.07-52.56l222.46-178.06c24.03-19.24,29.62-52.2,12.46-73.63h0c-17.15-21.43-50.54-23.2-74.57-3.96Z"/><path class="cls-16" d="M-52.84,106.3c26.71,30.97,73.65,34.44,104.64,7.76,30.98-26.69,34.46-73.59,7.76-104.55C44.9-7.48,24.16-16.2,3.3-16.2c-17.16,0-34.4,5.9-48.38,17.95,0,0,0,0,0,0-15.01,12.93-24.08,30.92-25.55,50.67-1.46,19.75,4.85,38.89,17.79,53.88Z"/></g></svg>