<?xml version="1.0" encoding="utf-8"?>
<!-- Generator: Adobe Illustrator 28.0.0, SVG Export Plug-In . SVG Version: 6.00 Build 0)  -->
<svg version="1.1" id="レイヤー_1" xmlns="http://www.w3.org/2000/svg" xmlns:xlink="http://www.w3.org/1999/xlink" x="0px"
	 y="0px" viewBox="0 0 619.3 349.9" style="enable-background:new 0 0 619.3 349.9;" xml:space="preserve">
<g>
	<polygon points="46.5,118.5 59,118.5 66.9,77.7 78.1,77.7 80.1,67.1 41.9,67.1 39.9,77.7 54.4,77.7 	"/>
	<path d="M81.7,118.5l3.9-20.2c0.9-4.6,3.7-8.2,7.8-8.2c3.8,0,5.1,2.6,4.3,6.6l-4.2,21.8H105l4.4-22.7c1.8-9.5-2.5-15.3-9.9-15.3
		c-5.3,0-8.6,2.4-11.4,6.1h-0.2l3.8-19.7h-8.1h-3.4l-2.1,10.7l-7.9,40.8H81.7z"/>
	<path d="M129.6,119.6c9.5,0,15.9-5,18.2-12.1h-11.4c-1.2,2.6-3.5,3.7-6.3,3.7c-5.3,0-6.6-3.5-6.7-8.1h25.3
		c1.4-9.1-0.6-16.4-6.4-20.1c-2.6-1.6-5.6-2.4-9.9-2.4c-12.2,0-20.4,10.4-20.4,22C112,113.9,119.6,119.6,129.6,119.6z M132.3,88.9
		c4.4,0,6,3.3,5.9,7.3h-13.8C125.6,91.6,128.6,88.9,132.3,88.9z"/>
	<path d="M177.1,118.5l7.3-16.8c1.3-3,2.8-7.2,2.8-7.2h0.1c0,0,0.1,4.2,0.4,7.2l1.5,16.8H200l17.3-36.9h-11.6l-6.4,15.3
		c-1.2,3-3,7.5-3,7.5h-0.1c0,0-0.1-4.5-0.4-7.7l-1.3-15h-9.7l-6.6,15c-1.3,3-3,7.6-3,7.6h-0.1c0,0-0.1-4.5-0.3-7.4l-1.1-15.3H162
		l4.3,36.9H177.1z"/>
	<path d="M230.2,119.6c9.5,0,15.9-5,18.2-12.1H237c-1.2,2.6-3.5,3.7-6.3,3.7c-5.3,0-6.6-3.5-6.7-8.1h25.3c1.4-9.1-0.6-16.4-6.4-20.1
		c-2.6-1.6-5.6-2.4-9.9-2.4c-12.2,0-20.4,10.4-20.4,22C212.6,113.9,220.2,119.6,230.2,119.6z M232.9,88.9c4.4,0,6,3.3,5.9,7.3h-13.8
		C226.2,91.6,229.2,88.9,232.9,88.9z"/>
	<path d="M262,113.1h0.1c2,4.8,6.5,6.6,11.2,6.6c12.2,0,17.9-12.2,17.9-23.3c0-9.1-4.6-15.8-12.8-15.8c-4.5,0-7.8,2-10.4,5h-0.2
		l3.6-18.6h-11.5l-9.9,51.5H261L262,113.1z M273.7,89.4c4.6,0,5.9,4,5.9,7.8c0,5.9-2.3,13.3-8.6,13.3c-4.8,0-6.6-3.9-6.6-8
		C264.5,96.7,267.3,89.4,273.7,89.4z"/>
	<path d="M317.2,112c-4.5,0-6.3-2.4-6.5-5.4h-10.9c0.4,9.2,8.6,13.1,17.2,13.1c10,0,16.2-4.5,16.2-13.1c0-6.9-5.6-9.4-11.4-11.1
		c-5.2-1.4-8-2.2-8-4.3c0-2.2,2.4-3.1,4.8-3.1c3.3,0,5.3,1.7,5.5,4.3h10.6c-0.5-8.4-7.6-11.8-15.7-11.8c-9.1,0-15.9,4.3-15.9,12.3
		c0,6.6,4.8,9.1,10.9,10.9c4.9,1.4,8.2,2.1,8.2,4.7C322.4,111,320.3,112,317.2,112z"/>
	<path d="M352.2,119.6c9.5,0,15.9-5,18.2-12.1h-11.4c-1.2,2.6-3.5,3.7-6.3,3.7c-5.3,0-6.6-3.5-6.7-8.1h25.3
		c1.4-9.1-0.6-16.4-6.4-20.1c-2.6-1.6-5.6-2.4-9.9-2.4c-12.2,0-20.4,10.4-20.4,22C334.7,113.9,342.2,119.6,352.2,119.6z M354.9,88.9
		c4.4,0,6,3.3,5.9,7.3H347C348.3,91.6,351.2,88.9,354.9,88.9z"/>
	<path d="M382,118.8l3.1-16.1c1.6-8.3,5.6-11.4,12.3-10.8l3.1-7.7l0.4-2.2l0.1-0.3c-0.4-0.1-1.4-0.3-2.6-0.3c-4.6,0-8,2.3-10.7,6.6
		h-0.2l1.2-6h-11.1l-7.1,36.9H382z"/>
	<path d="M397.4,91.6l4.4,26.9h12.5l18.9-36.9h-11.7l-7.8,16.7c-1.8,3.8-3.4,7.5-3.4,7.5h-0.1c0,0-0.3-3.8-0.7-7.7l-1.9-16.5h-6.6
		L397.4,91.6"/>
	<polygon points="450.1,67.1 438.6,67.1 436.8,76.6 448.3,76.6 	"/>
	<polygon points="440.1,118.5 447.3,81.7 435.7,81.7 428.6,118.5 	"/>
	<path d="M465.1,119.7c9.3-0.1,16.6-5.5,18.4-15.1h-11c-1.2,4.4-3.9,6.4-7.2,6.4c-4.6,0-6.3-3.3-6.3-7.4c0-6.2,2.7-14.3,9.1-14.3
		c3.6,0,5,2.3,5.3,5.5h11.1c-0.4-9.9-7.3-14.1-16.1-14.1c-12.9,0-21,10.6-21,22.7C447.5,114.9,455.6,119.7,465.1,119.7z"/>
	<path d="M503.4,119.6c9.5,0,15.9-5,18.2-12.1h-11.4c-1.2,2.6-3.5,3.7-6.3,3.7c-5.3,0-6.6-3.5-6.7-8.1h25.3
		c1.4-9.1-0.6-16.4-6.4-20.1c-2.6-1.6-5.6-2.4-9.9-2.4c-12.2,0-20.4,10.4-20.4,22C485.8,113.9,493.3,119.6,503.4,119.6z M506,88.9
		c4.4,0,6,3.3,5.9,7.3h-13.8C499.4,91.6,502.4,88.9,506,88.9z"/>
	<polygon points="552.8,67.1 541.3,67.1 539.5,76.6 551,76.6 	"/>
	<polygon points="550,81.7 538.5,81.7 531.4,118.5 542.9,118.5 	"/>
	<path d="M561.5,103.8c4.9,1.4,8.2,2.1,8.2,4.7c0,2.5-2.1,3.5-5.1,3.5c-4.5,0-6.3-2.4-6.5-5.4h-10.9c0.4,9.2,8.6,13.1,17.2,13.1
		c10,0,16.2-4.5,16.2-13.1c0-6.9-5.6-9.4-11.4-11.1c-5.2-1.4-8-2.2-8-4.3c0-2.2,2.4-3.1,4.8-3.1c3.3,0,5.3,1.7,5.5,4.3h10.6
		c-0.5-8.4-7.6-11.8-15.7-11.8c-9.1,0-15.9,4.3-15.9,12.3C550.5,99.5,555.3,102,561.5,103.8z"/>
	<path d="M408.5,205.4l7.9-41h-12.8l-4.3,22.6c-1.1,5.6-4.2,9-8.6,9c-4.2,0-5.4-3.1-4.5-7.8l4.6-23.8H378l-4.9,25.6
		c-2.1,10.5,2.8,16.6,11.4,16.6c5.7,0,9.6-2.9,12.6-7.4h0.2l-1.2,6.2H408.5z"/>
	<path d="M440.5,205.4h12.8l4.9-25.2c2-10.6-2.8-17-11-17c-5.8,0-9.9,3-13.2,7.7h-0.2l1.3-6.5h-12.4l-7.9,41h12.8l4.3-22.5
		c1-5.1,4.2-9.1,8.6-9.1c4.2,0,5.7,2.9,4.8,7.4L440.5,205.4z"/>
	<path d="M499.6,205.4l11-57.2h-12.8l-4.2,21.5h-0.2c-2.2-4.1-6-6.5-11.5-6.5c-13.3,0-20.7,12.9-20.7,25.5
		c-0.1,10.9,6,17.9,15.3,17.9c5,0,9-2.5,11.6-6h0.2l-0.9,4.7H499.6z M481.3,196.6c-5.2,0-6.9-4.2-6.9-8.8c0-6.5,3-14.8,9.8-14.8
		c5.1,0,7.2,4.3,7.2,9.2C491.4,188.6,488.1,196.6,481.3,196.6z"/>
	<path d="M507.7,187.7c0,12.6,8.4,18.9,19.5,18.9c10.6,0,17.7-5.5,20.2-13.4h-12.6c-1.3,2.9-3.9,4.2-7,4.2c-5.8,0-7.4-3.9-7.4-9
		h28.1c1.5-10.2-0.6-18.2-7.1-22.3c-2.9-1.8-6.2-2.7-11-2.7C516.8,163.2,507.7,174.8,507.7,187.7z M530.1,172.4
		c4.9,0,6.7,3.7,6.6,8.1h-15.4C522.8,175.5,526.1,172.4,530.1,172.4z"/>
	<path d="M557,164.4l-7.9,41h12.8l3.4-17.9c1.9-9.8,6.9-13,15.1-11.8h0.2l2.2-11.5c-0.5-0.2-1.5-0.3-2.9-0.3
		c-5.1,0-8.9,2.6-11.8,7.4H568l1.4-6.7H557z"/>
	<path d="M102,247.2c-6.1,0-11.3,2.6-15.6,8.7h-0.2c-1.7-5.2-5.3-8.7-11.6-8.7c-6.4,0-10.7,3.3-14.3,8.5H60l1.4-7.1H47.2l-9.1,47.1
		h14.7l5-25.7c1.2-6.4,4.3-10.7,9.1-10.7c4.3,0,5.8,3.2,4.8,8.3l-5.4,28.1H81l5-25.7c1.2-6.6,4.3-10.7,9.1-10.7
		c4.3,0,5.8,3.1,4.8,8.3l-5.4,28.1h14.7l5.5-28.6C117,254.9,111.9,247.2,102,247.2z"/>
	<path d="M158.6,251.1c-3.7-2.9-8.8-3.8-14.3-3.8c-13.7,0-21.1,6.4-22.8,16.2h13.7c1-4.1,3.9-6.2,8.4-6.2c4,0,5.9,1.8,5.9,4.5
		c0,4.6-3.8,5.2-13.1,5.8c-11.5,0.8-20.1,4.1-20.1,15.6c0,8.8,6.6,13.6,14.8,13.6c5.5,0,9.8-2.7,12.9-6.3h0.2c0,2,0.2,4,0.7,5.2
		h14.2V295c-0.8-1-1-3.1-0.3-6.7l4.2-21.7C164.6,258.9,162.5,253.9,158.6,251.1z M146.6,279.3c-1.1,5.2-4.8,8-9.8,8
		c-3.6,0-6.1-1.7-6.1-5.3c0-5.4,5.2-5.7,9-6.3c3.5-0.6,5.9-1.1,8-2.1L146.6,279.3z"/>
	<polygon points="189.5,242.1 191.8,229.9 177.1,229.9 174.8,242.1 	"/>
	<polygon points="173.5,248.6 164.4,295.7 179.1,295.7 188.3,248.6 	"/>
	<path d="M223.6,247.2c-6.7,0-11.4,3.4-15.2,8.8h-0.3l1.5-7.5h-14.3l-9.1,47.1h14.7l5-25.9c1.2-5.9,4.9-10.5,9.9-10.5
		c4.9,0,6.5,3.3,5.5,8.5l-5.4,27.9h14.7l5.6-29C238.6,254.6,233.1,247.2,223.6,247.2z"/>
	<path d="M256.9,280l4.2-22h8.4l1.8-9.4H263l2.9-14.9h-14.4l-2.9,14.9h-6l-1.8,9.4h6l-4.6,23.7c-2,10,2.5,14.5,13,14.5
		c3.1,0,6.1-0.5,7.1-0.8l2.1-10.7c-0.6,0.1-2.4,0.2-3.5,0.2C257.3,284.9,256.2,283.6,256.9,280z"/>
	<path d="M308,250.3c-3.3-2-7.2-3.1-12.6-3.1c-15.5,0-26,13.3-26,28.2c0,14.4,9.7,21.7,22.4,21.7c12.1,0,20.3-6.3,23.3-15.5h-14.5
		c-1.5,3.3-4.5,4.8-8.1,4.8c-6.7,0-8.5-4.5-8.6-10.4h32.3C318,264.3,315.5,255,308,250.3z M302.8,267.1h-17.7
		c1.7-5.8,5.4-9.3,10.1-9.3C300.9,257.8,303,262,302.8,267.1z"/>
	<path d="M354.4,247.2c-6.7,0-11.4,3.4-15.2,8.8h-0.3l1.5-7.5h-14.3l-9.1,47.1h14.7l5-25.9c1.2-5.9,4.9-10.5,9.9-10.5
		c4.9,0,6.5,3.3,5.5,8.5l-5.4,27.9h14.7l5.6-29C369.4,254.6,363.9,247.2,354.4,247.2z"/>
	<path d="M411,251.1c-3.7-2.9-8.8-3.8-14.3-3.8c-13.7,0-21.1,6.4-22.8,16.2h13.7c1-4.1,3.9-6.2,8.4-6.2c4,0,5.9,1.8,5.9,4.5
		c0,4.6-3.8,5.2-13.1,5.8c-11.5,0.8-20.1,4.1-20.1,15.6c0,8.8,6.6,13.6,14.8,13.6c5.5,0,9.8-2.7,12.9-6.3h0.2c0,2,0.2,4,0.7,5.2
		h14.2V295c-0.8-1-1-3.1-0.3-6.7l4.2-21.7C417,258.9,414.8,253.9,411,251.1z M398.9,279.3c-1.1,5.2-4.8,8-9.8,8
		c-3.6,0-6.1-1.7-6.1-5.3c0-5.4,5.2-5.7,9-6.3c3.5-0.6,5.9-1.1,8-2.1L398.9,279.3z"/>
	<path d="M454.1,247.2c-6.7,0-11.4,3.4-15.2,8.8h-0.3l1.5-7.5h-14.3l-9.1,47.1h14.7l5-25.9c1.2-5.9,4.9-10.5,9.9-10.5
		c4.9,0,6.5,3.3,5.5,8.5l-5.4,27.9h14.7l5.6-29C469.1,254.6,463.6,247.2,454.1,247.2z"/>
	<path d="M496.6,258.2c4.6,0,6.4,2.9,6.8,7.1h14.2c-0.5-12.7-9.3-18-20.6-18c-16.5,0-26.8,13.5-26.8,29c0,14.7,10.4,20.9,22.4,20.9
		c11.9-0.1,21.2-7.1,23.6-19.3h-14.1c-1.5,5.6-5,8.2-9.2,8.2c-5.9,0-8-4.2-8-9.5C485,268.6,488.4,258.2,496.6,258.2z"/>
	<path d="M557.8,250.3c-3.3-2-7.2-3.1-12.6-3.1c-15.5,0-26,13.3-26,28.2c0,14.4,9.7,21.7,22.4,21.7c12.1,0,20.3-6.3,23.3-15.5h-14.5
		c-1.5,3.3-4.5,4.8-8.1,4.8c-6.7,0-8.5-4.5-8.6-10.4H566C567.8,264.3,565.3,255,557.8,250.3z M552.6,267.1h-17.7
		c1.7-5.8,5.4-9.3,10.1-9.3C550.6,257.8,552.8,262,552.6,267.1z"/>
	<polygon points="569.7,280.2 566.6,295.7 582.1,295.7 585.1,280.2 	"/>
	<path d="M372,144.7H41.1l-13.6,76.9h330.9L372,144.7z M58.4,197c3.7,0,6.7-2.2,8-7.1h12.2c-2.1,10.6-10.2,16.7-20.5,16.8
		c-10.5,0-19.5-5.4-19.5-18.2c0-13.4,9-25.2,23.3-25.2c9.8,0,17.5,4.6,17.9,15.7H67.5c-0.3-3.6-1.9-6.2-5.9-6.2
		c-7.1,0-10.2,9-10.2,15.9C51.4,193.3,53.3,197,58.4,197z M104.9,205.4l1.2-6.2h-0.2c-3,4.5-7,7.4-12.6,7.4
		c-8.6,0-13.5-6.1-11.4-16.6l4.9-25.6h12.8l-4.6,23.8c-0.9,4.6,0.2,7.8,4.5,7.8c4.4,0,7.5-3.4,8.6-9l4.3-22.6H125l-7.9,41H104.9z
		 M139.5,187.5l-3.4,17.9h-12.8l7.9-41h12.3l-1.4,6.7h0.2c3-4.8,6.7-7.4,11.8-7.4c1.4,0,2.4,0.2,2.9,0.3l-2.2,11.5h-0.2
		C146.4,174.4,141.4,177.6,139.5,187.5z M184.7,175.6c-8.2-1.2-13.2,2-15.1,11.8l-3.4,17.9h-12.8l7.9-41h12.3l-1.4,6.7h0.2
		c3-4.8,6.7-7.4,11.8-7.4c1.4,0,2.4,0.2,2.9,0.3l-2.2,11.5H184.7z M226.1,188.3h-28.1c0.1,5.1,1.6,9,7.4,9c3.1,0,5.8-1.3,7-4.2h12.6
		c-2.6,7.9-9.7,13.4-20.2,13.4c-11.1,0-19.5-6.3-19.5-18.9c0-12.9,9.1-24.5,22.6-24.5c4.7,0,8.1,1,11,2.7
		C225.5,170,227.7,178.1,226.1,188.3z M270.4,180.2l-4.9,25.2h-12.8l4.7-24.2c0.9-4.5-0.6-7.4-4.8-7.4c-4.4,0-7.6,4-8.6,9.1
		l-4.3,22.5h-12.8l7.9-41h12.4l-1.3,6.5h0.2c3.3-4.7,7.4-7.7,13.2-7.7C267.6,163.2,272.4,169.6,270.4,180.2z M292.9,205.2
		c-0.9,0.3-3.4,0.7-6.2,0.7c-9.1,0-13-3.9-11.3-12.6l4-20.6h-5.2l1.6-8.2h5.2l2.5-13h12.6l-2.6,13h7.3l-1.6,8.2H292l-3.7,19.1
		c-0.6,3.2,0.4,4.3,3.4,4.3c1,0,2.6-0.1,3-0.2L292.9,205.2z M297.7,205.4l11-57.2h13l-11,57.2H297.7z M324.9,218.9h-8.6l2-10.1h4.3
		c3.6,0,6-1.7,6-5.8c0-1.6-0.4-4-1-7l-6.2-31.5h13.4l2.2,17.3c0.5,4,1,9.9,1,9.9h0.2c0,0,2.1-5.6,4-9.7l8.1-17.5h12.9l-21.6,43
		C337.3,215.4,332.9,218.9,324.9,218.9z"/>
	<path d="M207.9,172.4c-4.1,0-7.4,3-8.8,8.1h15.4C214.6,176.1,212.8,172.4,207.9,172.4z"/>
</g>
</svg>
