<?xml version="1.0" encoding="utf-8"?>
<!-- Generator: Adobe Illustrator 28.2.0, SVG Export Plug-In . SVG Version: 6.00 Build 0)  -->
<svg version="1.1" id="L1" xmlns="http://www.w3.org/2000/svg" xmlns:xlink="http://www.w3.org/1999/xlink" x="0px" y="0px"
	 viewBox="0 0 800 1400" style="enable-background:new 0 0 800 1400;" xml:space="preserve">
<style type="text/css">
	.st0{opacity:0.1;}
	.st1{fill:#437CC5;}
	.st2{fill:#437CC5;fill-opacity:0.1;}
	.st3{fill:#8DD9F9;fill-opacity:0.1;}
	.st4{fill:none;stroke:#437CC5;stroke-width:2;stroke-opacity:0.1;}
	.st5{fill:#8DD9F9;}
</style>
<g id="circle9" class="st0">
	<circle class="st1" cx="98.1" cy="302.7" r="17.3"/>
</g>
<g id="circle9_00000172427270169406079500000010407912656871463311_" class="st0">
	<circle class="st1" cx="639.6" cy="1351.3" r="18.9"/>
</g>
<g id="circle9_00000023274051791325411650000013456830055882592435_" class="st0">
	<circle class="st1" cx="685.6" cy="72.7" r="18.9"/>
</g>
<g id="circle7_00000118363148908801654660000016114537901228875681_" class="st0">
	<path class="st1" d="M712,634c7.4,0,13.4,6,13.4,13.4s-6,13.4-13.4,13.4s-13.4-6-13.4-13.4S704.7,634,712,634 M712,632
		c-8.5,0-15.4,6.9-15.4,15.4s6.9,15.4,15.4,15.4s15.4-6.9,15.4-15.4S720.5,632,712,632L712,632z"/>
</g>
<g id="circle6" class="st0">
	<path class="st1" d="M730.2,299c5.5,0,10,4.5,10,10s-4.5,10-10,10s-10-4.5-10-10S724.7,299,730.2,299 M730.2,297
		c-6.6,0-12,5.4-12,12c0,6.6,5.4,12,12,12s12-5.4,12-12C742.2,302.4,736.8,297,730.2,297L730.2,297z"/>
</g>
<g id="circle5_00000158731237365754905060000010285602470841289392_" class="st0">
	<path class="st1" d="M80.8,109.8c15.1,0,27.5,12.3,27.5,27.5S96,164.7,80.8,164.7s-27.5-12.3-27.5-27.5S65.7,109.8,80.8,109.8
		 M80.8,107.8c-16.3,0-29.5,13.2-29.5,29.5c0,16.3,13.2,29.5,29.5,29.5s29.5-13.2,29.5-29.5C110.3,121,97.1,107.8,80.8,107.8
		L80.8,107.8z"/>
</g>
<polygon id="path6_00000157274756364030086720000004800902358872330166_" class="st2" points="75.8,1202.5 120.3,1246.3 
	105.9,1172.9 "/>
<polygon id="path5" class="st3" points="711.8,504.8 711,465.5 685.6,502.7 "/>
<polygon id="path5_00000156553957658848111130000004102779170347602077_" class="st3" points="89.1,32.5 56.6,44.3 94.8,54.9 "/>
<polygon id="path4" class="st4" points="69.1,693.6 94.7,705.6 79.6,678.1 "/>
<g id="circle4" class="st0">
	<circle class="st5" cx="769.6" cy="706.6" r="13.7"/>
</g>
<polygon id="path5_00000119822857437983518190000012879621216231695030_" class="st3" points="45.8,1359.1 60.8,1390.3 67.5,1351.3 
	"/>
<polygon id="path3_00000076575019311457288070000011626921638364256144_" class="st3" points="659.5,923.3 652.7,869.4 635.4,900.9 
	"/>
<g id="circle5_00000065034990630955203980000009830492867506732182_" class="st0">
	<path class="st1" d="M742.2,968.1v2h0c3.3,0,6.6,0.6,9.8,1.6c15.8,5.4,24.2,22.6,18.8,38.4c-4.2,12.2-15.7,20.5-28.6,20.5
		c-3.3,0-6.6-0.6-9.8-1.6c-15.8-5.4-24.2-22.6-18.8-38.4c4.2-12.2,15.7-20.5,28.6-20.5L742.2,968.1 M742.2,968.1
		c-13.4,0-25.9,8.4-30.5,21.8c-5.8,16.9,3.2,35.2,20.1,41c3.5,1.2,7,1.7,10.5,1.7c13.4,0,25.9-8.4,30.5-21.8
		c5.8-16.9-3.2-35.2-20.1-41C749.2,968.6,745.6,968.1,742.2,968.1L742.2,968.1z"/>
</g>
<g id="circle5_00000134945584583704389520000006122993577160997003_" class="st0">
	<path class="st1" d="M679.7,1225.8v2h0c3.3,0,6.6,0.6,9.8,1.6c7.6,2.6,13.8,8.1,17.4,15.3s4.1,15.5,1.5,23.1
		c-4.2,12.2-15.7,20.5-28.6,20.5c-3.3,0-6.6-0.6-9.8-1.6c-7.6-2.6-13.8-8.1-17.4-15.3s-4.1-15.5-1.5-23.1
		c4.2-12.2,15.7-20.5,28.6-20.5L679.7,1225.8 M679.7,1225.8c-13.4,0-25.9,8.4-30.5,21.8c-5.8,16.9,3.2,35.2,20.1,41
		c3.5,1.2,7,1.7,10.5,1.7c13.4,0,25.9-8.4,30.5-21.8c5.8-16.9-3.2-35.2-20.1-41C686.7,1226.3,683.2,1225.8,679.7,1225.8
		L679.7,1225.8z"/>
</g>
<g id="circle5_00000075863006711296938900000009186545168247338657_" class="st0">
	<path class="st1" d="M63.3,791.5v2h0c3,0,6,0.5,8.9,1.5c14.3,4.9,22,20.5,17.1,34.9c-3.8,11.1-14.2,18.6-26,18.6
		c-3,0-6-0.5-8.9-1.5c-6.9-2.4-12.5-7.3-15.8-13.9c-3.2-6.6-3.7-14-1.3-21c3.8-11.1,14.2-18.6,26-18.6L63.3,791.5 M63.3,791.5
		c-12.2,0-23.7,7.7-27.9,19.9c-5.3,15.4,2.9,32.1,18.3,37.4c3.2,1.1,6.4,1.6,9.5,1.6c12.2,0,23.7-7.7,27.9-19.9
		c5.3-15.4-2.9-32.1-18.3-37.4C69.6,792,66.4,791.5,63.3,791.5L63.3,791.5z"/>
</g>
<polygon id="path6_00000028307609374163499060000011892161497096177056_" class="st2" points="14.8,477.6 42.7,533.3 52.8,459.3 "/>
<polygon id="path5_00000086658623453838386520000003423076422077406396_" class="st3" points="68.6,1003.9 67.8,968.1 44.7,1002 "/>
</svg>
