<?xml version="1.0" encoding="UTF-8"?><svg id="_レイヤー_1" xmlns="http://www.w3.org/2000/svg" xmlns:xlink="http://www.w3.org/1999/xlink" viewBox="0 0 5000 2000"><defs><style>.cls-1{fill:url(#_名称未設定グラデーション_4-5);}.cls-1,.cls-2,.cls-3,.cls-4,.cls-5,.cls-6,.cls-7,.cls-8,.cls-9,.cls-10,.cls-11,.cls-12,.cls-13,.cls-14,.cls-15,.cls-16,.cls-17,.cls-18,.cls-19,.cls-20,.cls-21,.cls-22,.cls-23,.cls-24,.cls-25,.cls-26,.cls-27,.cls-28{stroke-width:0px;}.cls-1,.cls-2,.cls-3,.cls-4,.cls-5,.cls-9,.cls-11,.cls-12,.cls-13,.cls-14,.cls-15,.cls-16,.cls-17,.cls-18,.cls-19,.cls-20,.cls-24,.cls-25,.cls-26,.cls-27,.cls-28{opacity:.35;}.cls-2{fill:url(#_名称未設定グラデーション_4-13);}.cls-29{clip-path:url(#clippath-2);}.cls-30{opacity:.97;}.cls-3{fill:url(#_名称未設定グラデーション_4-22);}.cls-4{fill:url(#_名称未設定グラデーション_4-10);}.cls-5{fill:url(#_名称未設定グラデーション_4-6);}.cls-6{fill:#f5db96;}.cls-6,.cls-21{opacity:.1;}.cls-7{fill:url(#_名称未設定グラデーション_4-20);}.cls-7,.cls-23{opacity:.16;}.cls-8{fill:url(#_名称未設定グラデーション_4-23);opacity:.2;}.cls-9{fill:url(#_名称未設定グラデーション_4-2);}.cls-10{fill:none;}.cls-11{fill:url(#_名称未設定グラデーション_4-11);}.cls-12{fill:url(#_名称未設定グラデーション_4-7);}.cls-13{fill:url(#_名称未設定グラデーション_4-15);}.cls-14{fill:url(#_名称未設定グラデーション_4-18);}.cls-15{fill:url(#_名称未設定グラデーション_4-17);}.cls-16{fill:url(#_名称未設定グラデーション_4-4);}.cls-31{clip-path:url(#clippath);}.cls-17{fill:url(#_名称未設定グラデーション_4-3);}.cls-18{fill:url(#_名称未設定グラデーション_4-12);}.cls-19{fill:url(#_名称未設定グラデーション_4-14);}.cls-20{fill:url(#_名称未設定グラデーション_4);}.cls-21{fill:url(#_名称未設定グラデーション_8-2);}.cls-32{opacity:.6;}.cls-22{fill:url(#_名称未設定グラデーション_8);}.cls-23{fill:url(#_名称未設定グラデーション_4-19);}.cls-24{fill:#f5d299;}.cls-25{fill:url(#_名称未設定グラデーション_4-8);}.cls-26{fill:url(#_名称未設定グラデーション_4-9);}.cls-27{fill:url(#_名称未設定グラデーション_4-16);}.cls-28{fill:url(#_名称未設定グラデーション_4-21);}</style><clipPath id="clippath"><rect class="cls-10" x="1" y="2" width="5000" height="2996"/></clipPath><linearGradient id="_名称未設定グラデーション_4" x1="859.09" y1="2550.43" x2="2120.39" y2="1196.94" gradientTransform="translate(2743.92 4517.46) rotate(-132.98)" gradientUnits="userSpaceOnUse"><stop offset="0" stop-color="#f6eb8f"/><stop offset="1" stop-color="#f4bea1"/></linearGradient><linearGradient id="_名称未設定グラデーション_4-2" x1="4371.62" y1="-390.39" x2="3625.33" y2="-161.97" gradientTransform="translate(1854.33 -1280.16) rotate(47.02)" xlink:href="#_名称未設定グラデーション_4"/><linearGradient id="_名称未設定グラデーション_4-3" x1="330.39" y1="1803.18" x2="1482.88" y2="1875.24" gradientTransform="translate(-87.1 177.3) rotate(-3.58)" xlink:href="#_名称未設定グラデーション_4"/><linearGradient id="_名称未設定グラデーション_4-4" x1="-935.33" y1="1309.08" x2="217.18" y2="1381.11" gradientTransform="translate(-87.1 177.3) rotate(-3.58)" xlink:href="#_名称未設定グラデーション_4"/><linearGradient id="_名称未設定グラデーション_4-5" x1="347.93" y1="1086.34" x2="460.9" y2="1086.34" gradientTransform="matrix(1,0,0,1,0,0)" xlink:href="#_名称未設定グラデーション_4"/><linearGradient id="_名称未設定グラデーション_4-6" x1="3294.79" y1="714.83" x2="4122.08" y2="-112.47" gradientTransform="matrix(1,0,0,1,0,0)" xlink:href="#_名称未設定グラデーション_4"/><linearGradient id="_名称未設定グラデーション_4-7" x1="2862.5" y1="1773.34" x2="3354.65" y2="1281.19" gradientTransform="translate(4714.82 2417.69) rotate(178.91)" xlink:href="#_名称未設定グラデーション_4"/><clipPath id="clippath-2"><ellipse class="cls-10" cx="1843.59" cy="27" rx="265.71" ry="265.5"/></clipPath><linearGradient id="_名称未設定グラデーション_4-8" x1="638.29" y1="979.96" x2="999.82" y2="618.43" gradientTransform="translate(2627.96 -801.58) rotate(90.02)" xlink:href="#_名称未設定グラデーション_4"/><linearGradient id="_名称未設定グラデーション_4-9" x1="706.92" y1="979.93" x2="1068.45" y2="618.4" gradientTransform="translate(2676.73 -821.93) rotate(90.02)" xlink:href="#_名称未設定グラデーション_4"/><linearGradient id="_名称未設定グラデーション_4-10" x1="775.55" y1="979.9" x2="1137.08" y2="618.37" gradientTransform="translate(2725.51 -842.28) rotate(90.02)" xlink:href="#_名称未設定グラデーション_4"/><linearGradient id="_名称未設定グラデーション_4-11" x1="844.18" y1="979.87" x2="1205.71" y2="618.34" gradientTransform="translate(2774.28 -862.63) rotate(90.02)" xlink:href="#_名称未設定グラデーション_4"/><linearGradient id="_名称未設定グラデーション_4-12" x1="912.81" y1="979.85" x2="1274.34" y2="618.31" gradientTransform="translate(2823.06 -882.98) rotate(90.02)" xlink:href="#_名称未設定グラデーション_4"/><linearGradient id="_名称未設定グラデーション_4-13" x1="569.66" y1="979.99" x2="931.19" y2="618.45" gradientTransform="translate(2579.18 -781.23) rotate(90.02)" xlink:href="#_名称未設定グラデーション_4"/><linearGradient id="_名称未設定グラデーション_4-14" x1="501.03" y1="980.02" x2="862.56" y2="618.48" gradientTransform="translate(2530.41 -760.88) rotate(90.02)" xlink:href="#_名称未設定グラデーション_4"/><linearGradient id="_名称未設定グラデーション_4-15" x1="432.4" y1="980.05" x2="793.93" y2="618.51" gradientTransform="translate(2481.63 -740.54) rotate(90.02)" xlink:href="#_名称未設定グラデーション_4"/><linearGradient id="_名称未設定グラデーション_8" x1="363.77" y1="980.07" x2="725.3" y2="618.54" gradientTransform="translate(2432.86 -720.19) rotate(90.02)" gradientUnits="userSpaceOnUse"><stop offset="0" stop-color="#f3a9a5"/><stop offset="1" stop-color="#95afe5"/></linearGradient><linearGradient id="_名称未設定グラデーション_4-16" x1="2887.36" y1="1663.69" x2="1972.31" y2="1663.69" gradientTransform="matrix(1,0,0,1,0,0)" xlink:href="#_名称未設定グラデーション_4"/><linearGradient id="_名称未設定グラデーション_4-17" x1="2727.06" y1="1817.74" x2="2811.86" y2="1732.94" gradientTransform="translate(1121.41 3835.47) rotate(-90)" xlink:href="#_名称未設定グラデーション_4"/><linearGradient id="_名称未設定グラデーション_4-18" x1="846.27" y1="558.67" x2="1064.08" y2="558.67" gradientTransform="matrix(1,0,0,1,0,0)" xlink:href="#_名称未設定グラデーション_4"/><linearGradient id="_名称未設定グラデーション_4-19" x1="3574.1" y1="1207.31" x2="3259.38" y2="1207.31" gradientTransform="matrix(1,0,0,1,0,0)" xlink:href="#_名称未設定グラデーション_4"/><linearGradient id="_名称未設定グラデーション_4-20" x1="5067.1" y1="-23.69" x2="4752.38" y2="-23.69" gradientTransform="matrix(1,0,0,1,0,0)" xlink:href="#_名称未設定グラデーション_4"/><linearGradient id="_名称未設定グラデーション_4-21" x1="930.62" y1="1623.2" x2="1106.64" y2="1623.2" gradientTransform="matrix(1,0,0,1,0,0)" xlink:href="#_名称未設定グラデーション_4"/><linearGradient id="_名称未設定グラデーション_4-22" x1="4563.64" y1="543.99" x2="5437.07" y2="543.99" gradientTransform="matrix(1,0,0,1,0,0)" xlink:href="#_名称未設定グラデーション_4"/><linearGradient id="_名称未設定グラデーション_8-2" x1="3534.45" y1="-522.82" x2="4627.74" y2="-522.82" gradientTransform="translate(107.95 2692.21) rotate(-38.68)" xlink:href="#_名称未設定グラデーション_8"/><linearGradient id="_名称未設定グラデーション_4-23" x1="7.18" y1="1165.02" x2="155.54" y2="1165.02" gradientTransform="translate(538.19 1642.42) rotate(-180)" xlink:href="#_名称未設定グラデーション_4"/></defs><path class="cls-6" d="M4521.01,1009.87c-29.89-31.48-79.66-32.79-111.16-2.92l-997.54,945.6c-31.5,29.86-32.81,79.59-2.93,111.07s79.66,32.79,111.16,2.92l997.54-945.6c31.5-29.86,32.81-79.59,2.93-111.07Z"/><g class="cls-31"><g class="cls-32"><path class="cls-6" d="M2106.2,1003.49c-21,.4-42.04-7.99-57.15-24.85-27.55-30.74-24.95-77.97,5.82-105.5l408.38-365.44c30.76-27.53,78.04-24.93,105.59,5.81,27.55,30.74,24.95,77.97-5.82,105.5l-408.38,365.44c-13.89,12.43-31.15,18.71-48.43,19.04Z"/><path class="cls-24" d="M4206.04,471.5c-20.15-23.36-55.56-25.98-78.94-5.85-23.38,20.13-26,55.52-5.85,78.87,11.05,12.82,26.7,19.39,42.43,19.39,12.94,0,25.95-4.45,36.5-13.54,0,0,0,0,0,0,11.32-9.75,18.17-23.33,19.27-38.22,1.11-14.9-3.66-29.34-13.42-40.65Z"/><path class="cls-20" d="M3952.17,1283.83c19.25,0,38.44,7.67,52.6,22.86,27.07,29.02,25.47,74.47-3.58,101.52l-1706.36,1588.87c-29.05,27.05-74.53,25.45-101.6-3.58s-25.46-74.47,3.58-101.52l1706.36-1588.88c13.85-12.9,31.45-19.28,48.99-19.28Z"/><path class="cls-9" d="M3977.43,2274.3c-18.17,0-36.28-7.24-49.64-21.57-25.54-27.39-24.03-70.27,3.38-95.8l1610.25-1499.38c27.41-25.52,70.33-24.01,95.87,3.38,25.54,27.39,24.03,70.28-3.38,95.8l-1610.24,1499.38c-13.07,12.17-29.67,18.19-46.23,18.19Z"/><path class="cls-17" d="M1488.39,1429.57c-29.89-31.48-79.66-32.79-111.16-2.92l-997.54,945.6c-31.5,29.86-32.81,79.59-2.93,111.07,29.89,31.48,79.66,32.79,111.16,2.92l997.54-945.6c31.5-29.86,32.81-79.59,2.93-111.07Z"/><path class="cls-16" d="M194.26,1015.37c-29.89-31.48-79.66-32.79-111.16-2.92l-997.54,945.6c-31.5,29.86-32.81,79.59-2.93,111.07,29.89,31.48,79.66,32.79,111.16,2.92L191.33,1126.44c31.5-29.86,32.81-79.59,2.93-111.07Z"/><path class="cls-6" d="M481.33,1678.71c-29.89-31.48-79.66-32.79-111.16-2.92l-997.54,945.6c-31.5,29.86-32.81,79.59-2.93,111.07,29.89,31.48,79.66,32.79,111.16,2.92l997.54-945.6c31.5-29.86,32.81-79.59,2.93-111.07Z"/><path class="cls-1" d="M447.19,1049.49c-20.34-23.58-56.08-26.23-79.68-5.91-23.59,20.32-26.24,56.04-5.91,79.61,11.16,12.94,26.95,19.57,42.83,19.57,13.07,0,26.19-4.49,36.84-13.66,0,0,0,0,0,0,11.43-9.85,18.34-23.55,19.45-38.58,1.12-15.04-3.69-29.61-13.55-41.03Z"/><path class="cls-5" d="M4097.05-137.34c-15.11-16.86-36.15-25.25-57.15-24.85-17.29.33-34.54,6.62-48.43,19.04l-408.38,365.44c-30.76,27.53-33.37,74.76-5.82,105.5,16.62,18.54,40.41,26.83,63.43,24.45l-315.07,281.94c-30.76,27.53-33.37,74.76-5.82,105.5,27.54,30.74,74.82,33.34,105.59,5.81l408.38-365.44c30.76-27.53,33.37-74.76,5.82-105.5-15.11-16.86-36.15-25.25-57.15-24.85-2.09.04-4.18.17-6.26.38L4091.24-31.84c30.76-27.53,33.37-74.76,5.82-105.5Z"/><path class="cls-12" d="M1780.59,692.37c21-.4,42.04,7.99,57.15,24.85,27.55,30.74,24.95,77.97-5.82,105.5l-408.38,365.44c-30.76,27.53-78.04,24.93-105.59-5.81-27.55-30.74-24.95-77.97,5.82-105.5l408.38-365.44c13.89-12.43,31.15-18.71,48.43-19.04Z"/><g class="cls-30"><g class="cls-29"><rect class="cls-25" x="1483.45" y=".71" width="689.94" height="32.85" transform="translate(529.94 1304.53) rotate(-45.29)"/><rect class="cls-26" x="1532.23" y="48.99" width="689.94" height="32.85" transform="translate(510.09 1353.51) rotate(-45.29)"/><rect class="cls-4" x="1581" y="97.27" width="689.94" height="32.85" transform="translate(490.24 1402.49) rotate(-45.29)"/><rect class="cls-11" x="1629.78" y="145.56" width="689.94" height="32.85" transform="translate(470.39 1451.46) rotate(-45.29)"/><rect class="cls-18" x="1678.55" y="193.84" width="689.94" height="32.85" transform="translate(450.54 1500.44) rotate(-45.29)"/><rect class="cls-2" x="1434.68" y="-47.57" width="689.94" height="32.85" transform="translate(549.8 1255.55) rotate(-45.29)"/><rect class="cls-19" x="1385.9" y="-95.85" width="689.94" height="32.85" transform="translate(569.65 1206.57) rotate(-45.29)"/><rect class="cls-13" x="1337.13" y="-144.13" width="689.94" height="32.85" transform="translate(589.5 1157.59) rotate(-45.29)"/><rect class="cls-22" x="1288.35" y="-192.41" width="689.94" height="32.85" transform="translate(609.35 1108.61) rotate(-45.29)"/></g></g><path class="cls-27" d="M2868.29,1343.43c-15.11-16.86-36.15-25.25-57.15-24.85-17.29.33-34.54,6.62-48.43,19.04l-235.31,210.57c-3-10.57-8.39-20.64-16.22-29.38-15.11-16.86-36.15-25.25-57.15-24.85-17.29.33-34.54,6.62-48.43,19.04l-408.38,365.44c-30.76,27.53-33.37,74.76-5.82,105.5,27.54,30.74,74.82,33.34,105.59,5.81l235.31-210.57c3,10.57,8.39,20.64,16.22,29.38,27.54,30.74,74.82,33.34,105.59,5.81l408.38-365.44c30.76-27.53,33.37-74.76,5.82-105.5Z"/><polygon class="cls-15" points="2811.94 1066.02 2919.5 1128.06 2919.5 1003.97 2811.94 1066.02"/><polygon class="cls-14" points="846.27 512.89 1011.18 669.06 1064.08 448.27 846.27 512.89"/><path class="cls-23" d="M3535.92,1104.64c-56.66-65.69-156.23-73.07-221.99-16.45-65.73,56.62-73.11,156.12-16.45,221.79,31.09,36.04,75.08,54.53,119.33,54.53,36.4,0,72.98-12.52,102.64-38.07,0,0,0,0,.01,0,31.84-27.43,51.08-65.6,54.2-107.49,3.11-41.89-10.29-82.49-37.74-114.3Z"/><path class="cls-7" d="M5028.92-126.36c-56.66-65.69-156.23-73.07-221.99-16.45-65.73,56.62-73.11,156.12-16.45,221.79,31.09,36.04,75.08,54.53,119.33,54.53,36.4,0,72.98-12.52,102.64-38.07,0,0,0,0,.01,0,31.84-27.43,51.08-65.6,54.2-107.49,3.11-41.89-10.29-82.49-37.74-114.3Z"/><path class="cls-28" d="M1085.29,1565.77c-31.69-36.74-87.38-40.87-124.16-9.2-36.76,31.67-40.89,87.32-9.2,124.04,17.39,20.16,41.99,30.5,66.74,30.5,20.36,0,40.81-7,57.41-21.29,0,0,0,0,0,0,17.81-15.34,28.57-36.69,30.31-60.12,1.74-23.43-5.76-46.14-21.11-63.93Z"/><path class="cls-3" d="M5352.55,176.95l-503.27,402.83c-63.91,11.25-35.17-53.99-35.17-53.99l355.17-284.29c24.03-19.24,26.81-49.96,9.66-71.38h0c-17.15-21.43-47.73-25.45-71.77-6.21l-477.31,382.05c-24.03,19.24-29.62,52.2-12.47,73.63h0c17.15,21.43,50.54,23.2,74.57,3.96l25.92-20.75c56.27-5.44,49.27,31.79,44.35,46.63l-176.2,141.04c-24.03,19.24-29.62,52.2-12.47,73.63h0c17.15,21.43,50.54,23.2,74.57,3.96l447.82-358.45c72.85-17.25,42.07,52.56,42.07,52.56l-355.17,284.29c-24.03,19.24-26.81,49.96-9.66,71.38h0c17.15,21.43,47.73,25.45,71.77,6.21l477.3-382.05c24.03-19.24,29.62-52.2,12.46-73.63h0c-17.15-21.43-50.54-23.2-74.57-3.96l-25.92,20.75c-70.02,6.76-42.07-52.56-42.07-52.56l222.46-178.06c24.03-19.24,29.62-52.2,12.46-73.63h0c-17.15-21.43-50.54-23.2-74.57-3.96Z"/><path class="cls-21" d="M3318.55-613.05l-503.27,402.83c-63.91,11.25-35.17-53.99-35.17-53.99l355.17-284.29c24.03-19.24,26.81-49.96,9.66-71.38h0c-17.15-21.43-47.73-25.45-71.77-6.21l-477.31,382.05c-24.03,19.24-29.62,52.2-12.47,73.63h0c17.15,21.43,50.54,23.2,74.57,3.96l25.92-20.75c56.27-5.44,49.27,31.79,44.35,46.63L2552.05.48c-24.03,19.24-29.62,52.2-12.47,73.63h0c17.15,21.43,50.54,23.2,74.57,3.96l447.82-358.45c72.85-17.25,42.07,52.56,42.07,52.56l-355.17,284.29c-24.03,19.24-26.81,49.96-9.66,71.38h0c17.15,21.43,47.73,25.45,71.77,6.21l477.31-382.05c24.03-19.24,29.62-52.2,12.46-73.63h0c-17.15-21.43-50.54-23.2-74.57-3.96l-25.92,20.75c-70.02,6.76-42.07-52.56-42.07-52.56l222.46-178.06c24.03-19.24,29.62-52.2,12.46-73.63h0c-17.15-21.43-50.54-23.2-74.57-3.96Z"/><path class="cls-8" d="M400.66,525.8c26.71,30.97,73.65,34.44,104.64,7.76,30.98-26.69,34.46-73.59,7.76-104.55-14.65-16.99-35.39-25.7-56.25-25.7-17.16,0-34.4,5.9-48.38,17.95,0,0,0,0,0,0-15.01,12.93-24.08,30.92-25.55,50.67-1.46,19.75,4.85,38.89,17.79,53.88Z"/></g></g></svg>