<svg width="1440" height="2800" viewBox="0 0 1440 2800" fill="none" xmlns="http://www.w3.org/2000/svg">
<circle cx="9.5" cy="2460.5" r="18.5" fill="#C7ECFC" fill-opacity="0.5"/>
<circle cx="932.5" cy="2660.5" r="18.5" fill="#C7ECFC" fill-opacity="0.5"/>
<circle cx="962.5" cy="1514.5" r="18.5" fill="#C7ECFC" fill-opacity="0.25"/>
<circle cx="218.5" cy="1424.5" r="7.5" fill="#8BD9F8" fill-opacity="0.5"/>
<circle cx="76.5" cy="2792.5" r="7.5" fill="#8BD9F8" fill-opacity="0.25"/>
<circle cx="1269.5" cy="1780.5" r="7.5" fill="#8BD9F8" fill-opacity="0.5"/>
<circle cx="330.5" cy="845.5" r="10.5" fill="#ECF6FB" fill-opacity="0.5"/>
<circle cx="771.5" cy="268.5" r="10.5" fill="#ECF6FB" fill-opacity="0.5"/>
<circle cx="514.5" cy="544.5" r="10.5" fill="#ECF6FB" fill-opacity="0.5"/>
<circle cx="561.5" cy="1068.5" r="10.5" fill="#ECF6FB"/>
<circle cx="854.5" cy="441.5" r="10.5" fill="#ECF6FB"/>
<circle cx="200.5" cy="159.5" r="10.5" fill="#ECF6FB"/>
<circle cx="1082.5" cy="796.5" r="10.5" fill="#ECF6FB"/>
<path d="M1447 24L1409.28 61.6358L1439.54 75.8821L1395 125" stroke="#8DD9F9" stroke-opacity="0.5" stroke-width="12" stroke-linecap="round" stroke-linejoin="round"/>
<path d="M1206.11 1142.6L1176.2 1155.55L1190.35 1170.39L1154 1188.34" stroke="#8DD9F9" stroke-opacity="0.5" stroke-width="12" stroke-linecap="round" stroke-linejoin="round"/>
<path d="M153.253 779L135.281 806.193L155.247 810.883L134.611 845.783" stroke="#8DD9F9" stroke-opacity="0.25" stroke-width="12" stroke-linecap="round" stroke-linejoin="round"/>
<path d="M551 2380L532.865 2397.89L547.414 2404.66L526 2428" stroke="#8DD9F9" stroke-opacity="0.5" stroke-width="12" stroke-linecap="round" stroke-linejoin="round"/>
<path d="M1474 2061L1423.95 2110.56L1464.1 2129.32L1405 2194" stroke="#8DD9F9" stroke-opacity="0.5" stroke-width="12" stroke-linecap="round" stroke-linejoin="round"/>
<path d="M38.0013 1701.51C37.9338 1697.44 40.4653 1694.58 44.1894 1694.53C47.3848 1694.49 50.5238 1697.69 50.6138 1701.08C50.7151 1704.81 47.8123 1708.19 44.3807 1708.35C40.8029 1708.51 38.0801 1705.59 38.0013 1701.51Z" fill="#D1E3F6"/>
<path d="M315.001 2306.98C314.934 2302.91 317.465 2300.05 321.189 2300C324.385 2299.96 327.524 2303.16 327.614 2306.55C327.715 2310.28 324.812 2313.66 321.381 2313.82C317.803 2313.98 315.08 2311.06 315.001 2306.98Z" fill="#D1E3F6"/>
<path d="M122.001 2542.98C121.934 2538.91 124.465 2536.05 128.189 2536C131.385 2535.96 134.524 2539.16 134.614 2542.55C134.715 2546.28 131.812 2549.66 128.381 2549.82C124.803 2549.98 122.08 2547.06 122.001 2542.98Z" fill="#D1E3F6" fill-opacity="0.25"/>
<path d="M1335 11.9509C1334.88 4.98687 1339.3 0.0846984 1345.79 0.000540951C1351.36 -0.0625772 1356.84 5.40766 1357 11.2145C1357.17 17.6105 1352.11 23.3963 1346.13 23.6698C1339.89 23.9433 1335.14 18.936 1335 11.9509Z" fill="#D1E3F6"/>
<path d="M1017 2293.21C1016.93 2289.14 1019.47 2286.28 1023.19 2286.23C1026.38 2286.19 1029.52 2289.39 1029.61 2292.78C1029.72 2296.51 1026.81 2299.89 1023.38 2300.05C1019.8 2300.21 1017.08 2297.29 1017 2293.21Z" fill="#D1E3F6"/>
<path d="M1190 2660.98C1189.93 2656.91 1192.47 2654.05 1196.19 2654C1199.38 2653.96 1202.52 2657.16 1202.61 2660.55C1202.72 2664.28 1199.81 2667.66 1196.38 2667.82C1192.8 2667.98 1190.08 2665.06 1190 2660.98Z" fill="#D1E3F6"/>
<path d="M80.1104 358.903L51.1282 370.5L64.2847 385.085L29.0002 401.294" stroke="#8DD9F9" stroke-opacity="0.75" stroke-width="12" stroke-linecap="round" stroke-linejoin="round"/>
<path d="M41.6932 1924.26L32.9486 1895.13L17.659 1906.64L4.98555 1871" stroke="#8DD9F9" stroke-opacity="0.5" stroke-width="12" stroke-linecap="round" stroke-linejoin="round"/>
</svg>
