<svg width="1440" height="299" viewBox="0 0 1440 299" fill="none" xmlns="http://www.w3.org/2000/svg">
<path d="M1440 298.132C1440 207.938 1440 142.024 1440 51.8293C1423.83 52.6856 1407.7 53.8687 1391.58 55.3447C1372.47 57.0799 1353.46 59.4235 1334.52 62.4318C1308.7 66.5219 1283.09 71.7724 1257.88 78.7694C1248.28 81.4398 1238.75 84.3692 1229.22 87.2649C1227.51 87.7832 1225.8 87.8959 1224.07 88.0875C1223.85 89.3832 1222.7 89.4057 1221.8 89.7099C1207.24 94.476 1193.05 100.222 1178.86 105.991C1177.66 106.476 1176.22 107.208 1175.64 105.631C1173.84 100.741 1170.76 96.3576 1169.89 91.1071C1167.88 89.3719 1167.65 86.7128 1166.51 84.527C1165.9 83.389 1166.36 82.6003 1167.76 82.5778C1168.25 82.5778 1168.76 82.5777 1169.25 82.5552C1176.23 82.3975 1176.39 82.3299 1173.37 76.1103C1161.29 51.1308 1149.09 26.2075 1136.93 1.26174C1136.77 0.946256 1136.48 0.709643 1135.89 0.0223389C1134.14 3.70674 1132.53 7.14326 1130.87 10.546C1119.89 33.1369 1108.9 55.7278 1097.9 78.3187C1096.53 81.1355 1097.34 82.5477 1100.35 82.5552C1106.71 82.5777 1106.79 82.6116 1104.06 88.4255C1102.12 92.5718 1101.15 97.2027 1098.04 100.786C1097.99 104.312 1095.72 107.05 1094.67 110.216C1094.16 111.749 1093.39 113.191 1092.7 114.667C1091.6 117.022 1092.08 117.957 1094.9 118.002C1103.22 118.137 1103.15 118.216 1099.66 125.867C1097.13 131.433 1094.94 137.145 1092.31 142.655C1090.99 145.427 1091.88 145.911 1094.41 145.708C1095.63 145.618 1096.84 145.697 1098.85 145.697C1095.58 148.649 1092.15 149.877 1089.1 151.534C1072.01 160.84 1055.01 170.316 1037.76 179.341C1009.99 193.876 981.527 206.867 952.454 218.506C923.528 230.089 894.027 239.982 863.874 247.925C848.37 252.015 832.787 255.756 817.069 258.809C803.433 261.457 789.695 263.519 775.89 265.22C761.95 266.933 748.021 268.387 733.968 269.029C720.399 269.649 706.831 270.922 693.273 270.223C677.893 269.423 662.49 269.175 647.11 267.632C632.416 266.156 617.722 264.612 603.084 262.719C590.674 261.119 578.399 258.449 566.034 256.454C549.348 253.762 532.888 249.965 516.439 246.179C496.704 241.627 477.15 236.264 457.516 231.238C452.937 230.067 448.381 228.838 443.835 227.531C442.496 227.148 440.741 227.329 440.156 225.492C428.5 223.971 417.408 220.196 406.371 216.32C400.385 215.666 394.859 213.436 389.155 211.757C371.659 206.619 354.197 201.335 336.724 196.107C333.664 195.228 330.379 195.115 327.723 193.053C322.559 192.851 317.901 190.654 313.041 189.301C301.463 186.068 289.919 182.71 278.365 179.409C261.398 174.992 244.42 170.564 227.464 166.125C226.879 165.978 226.35 165.651 225.788 165.404C216.067 163.229 206.402 160.694 196.591 159.026C191.404 158.147 188.997 155.612 187.275 150.959C184.777 144.21 181.616 137.697 178.556 130.667C181.74 130.667 184.35 130.543 186.949 130.7C189.739 130.869 190.178 130.024 189.053 127.5C184.823 118.036 180.761 108.504 176.609 99.0055C174.764 94.7802 174.775 94.7239 179.354 94.7014C183.495 94.6863 184.635 92.7446 182.775 88.8762C171.062 64.7078 159.35 40.5282 147.604 16.3712C147.03 15.1881 146.749 13.7572 145.072 12.7431C142.012 19.0866 139.008 25.3399 135.981 31.5707C126.328 51.4688 116.708 71.3781 106.965 91.231C105.614 93.969 105.693 94.814 109.035 94.7577C116.224 94.645 116.224 94.7915 113.209 101.439C110.486 107.456 107.763 113.473 105.041 119.489C104.388 122.588 102.734 125.258 101.474 128.098C100.709 129.833 100.878 130.993 103.229 130.678C103.837 130.599 104.478 130.655 105.097 130.678C112.95 130.79 112.68 129.371 109.395 137.72C107.977 141.314 106.425 142.768 101.778 142.215C90.0991 140.852 78.398 139.5 66.6293 138.802C56.9645 138.227 47.266 137.923 37.6238 137.235C26.7777 136.469 15.9654 137.033 5.14177 136.672C3.35284 136.616 1.68767 136.999 0 137.427C0 192.096 0 243.452 0 298.121" fill="#8DD9F9"/>
<path d="M0.00121086 65.9615C6.23434 67.5276 11.6799 70.9191 17.3617 73.6683C47.0197 88.0566 75.8564 104.045 105.031 119.357C104.378 122.456 102.724 125.126 101.464 127.965C100.699 129.701 100.868 130.861 103.219 130.546C103.827 130.467 104.468 130.523 105.087 130.546C112.94 130.658 112.67 129.239 109.385 137.588C107.967 141.182 106.415 142.635 101.768 142.083C90.0891 140.72 78.3879 139.368 66.6192 138.669C56.9545 138.095 47.256 137.79 37.6138 137.103C26.7677 136.337 15.9553 136.9 5.13173 136.54C3.3428 136.483 1.67763 136.867 -0.0100403 137.295V65.9502L0.00121086 65.9615Z" fill="#D1E3F6"/>
<path d="M440.178 225.349C448.999 225.799 457.82 226.284 466.652 226.689C479.119 227.264 491.596 227.794 504.074 227.365C521.367 226.779 538.66 226.07 555.919 224.639C574.652 223.084 593.318 220.988 611.882 218.25C635.993 214.701 659.924 210.104 683.766 204.977C711.758 198.961 739.549 192.099 767.238 184.786C796.862 176.956 826.329 168.595 855.796 160.19C888.491 150.872 921.131 141.351 954.007 132.686C968.708 128.812 979.5 126 993.757 122.535C1002.87 121.047 1008.74 117.171 1010.85 107.921C1011.47 105.172 1013.04 102.625 1014.26 100.034C1015.09 98.2423 1014.58 97.6451 1012.64 97.4874C1006.1 96.9691 1006.16 96.9352 1009.13 90.8509C1018.76 71.0994 1028.35 51.3253 1037.97 31.5625C1038.78 29.8836 1039.64 28.2273 1040.82 25.8612C1044.03 32.2948 1047 38.1313 1049.87 44.0353C1057.84 60.4292 1065.76 76.8457 1073.72 93.2509C1075.79 97.5212 1075.8 97.4648 1071.16 97.555C1069.75 97.5888 1067.45 96.7775 1067.07 98.1183C1066.48 100.113 1068.4 101.972 1069.14 103.932C1069.77 105.589 1071.42 105.115 1072.75 104.867C1080.2 103.493 1087.65 102.062 1095.1 100.71C1096.06 100.53 1097.08 100.665 1098.08 100.665C1098.02 104.191 1095.75 106.929 1094.7 110.095C1094.2 111.628 1093.42 113.07 1092.73 114.546C1091.63 116.901 1092.11 117.836 1094.94 117.881C1103.25 118.016 1103.19 118.095 1099.7 125.746C1097.17 131.312 1094.97 137.024 1092.34 142.534C1091.02 145.306 1091.91 145.79 1094.44 145.599C1095.66 145.509 1096.87 145.587 1098.89 145.587C1095.61 148.539 1092.18 149.768 1089.13 151.424C1072.04 160.731 1055.04 170.206 1037.79 179.232C1010.03 193.766 981.561 206.758 952.488 218.397C923.561 229.979 894.061 239.872 863.908 247.816C848.404 251.906 832.821 255.646 817.103 258.7C803.467 261.348 789.729 263.409 775.924 265.111C761.984 266.823 748.055 268.277 734.002 268.919C720.433 269.539 706.864 270.812 693.307 270.113C677.926 269.313 662.524 269.066 647.143 267.522C632.449 266.046 617.755 264.502 603.118 262.609C590.708 261.01 578.432 258.339 566.067 256.345C549.382 253.652 532.922 249.855 516.473 246.069C496.738 241.517 477.184 236.154 457.55 231.129C452.971 229.957 448.414 228.729 443.869 227.422C442.53 227.039 440.775 227.219 440.19 225.382L440.178 225.349Z" fill="#D1E3F6"/>
<path d="M327.5 193.107C331.618 183.608 335.889 174.169 340.13 164.727C341.244 162.259 341.042 161.561 338.184 161.583C332.266 161.628 332.007 161.38 334.516 156.141C342.594 139.24 350.886 122.441 359.077 105.585C361.26 101.089 363.353 96.5597 365.524 92.0641C365.94 91.1965 366.188 89.9008 367.268 89.7993C368.494 89.6867 368.629 91.0613 369.046 91.9063C379.959 114.238 390.828 136.592 401.764 158.913C402.833 161.087 402.439 161.628 400.043 161.685C393.292 161.831 393.382 161.876 396.262 168.287C399.48 175.453 402.484 182.732 405.691 189.898C406.715 192.196 406.703 193.233 403.711 193.267C396.96 193.357 397.072 193.436 399.446 199.588C401.64 205.278 404.757 210.596 406.422 216.5C400.436 215.846 394.878 213.593 389.174 211.914C371.679 206.776 336.744 196.264 336.744 196.264C336.744 196.264 334.008 195.633 331.131 194.87C331.131 194.87 329.767 194.383 329.276 194.124C328.785 193.865 327.5 193.107 327.5 193.107Z" fill="#D1E3F6"/>
<path d="M225.799 165.271C228.151 159.762 230.356 154.184 232.921 148.776C234.35 145.745 234.148 144.371 230.457 144.799C229.861 144.866 229.242 144.72 228.094 144.63C236.251 127.785 244.274 111.222 252.768 93.6903C261.252 111.121 269.285 127.65 277.307 144.134C276.744 144.506 276.564 144.742 276.362 144.754C272.851 144.934 271.805 146.662 273.223 149.937C275.158 154.398 277.048 158.883 279.028 163.333C280.052 165.621 279.883 166.973 276.924 166.646C273.56 166.274 273.549 167.604 274.674 170.297C275.923 173.271 277.779 176.02 278.365 179.277C261.398 174.849 244.431 170.432 227.464 165.992C226.879 165.846 226.35 165.519 225.788 165.271H225.799Z" fill="#D1E3F6"/>
<path d="M1169.91 90.9524C1181.61 89.4989 1193.35 88.913 1205.12 88.3722C1211.44 88.0792 1217.74 87.5609 1224.08 87.944C1223.87 89.2398 1222.71 89.2736 1221.81 89.5665C1207.25 94.3326 1193.06 100.079 1178.87 105.848C1177.67 106.332 1176.23 107.065 1175.65 105.487C1173.85 100.597 1170.77 96.2142 1169.91 90.9637V90.9524Z" fill="#D1E3F6"/>
</svg>
