<?xml version="1.0" encoding="UTF-8"?><svg id="in_summer_2024" xmlns="http://www.w3.org/2000/svg" viewBox="0 0 50 50"><defs><style>.cls-1{fill:#f18d00;stroke-width:0px;}</style></defs><path class="cls-1" d="M5.74,31.93c.04-.15.09-.33.14-.53s.11-.41.17-.64.12-.45.19-.69.12-.46.18-.68c0-.01.01-.03.03-.05s.04-.05.07-.07.07-.05.11-.06.1-.03.16-.03c.04,0,.09,0,.13.01s.08.02.11.04.06.04.08.07.03.06.03.1v.03s0,.02,0,.03l-.11.41c-.12.46-.25.93-.37,1.39s-.25.93-.37,1.4c0,.02-.01.04-.02.06s-.02.05-.04.07-.04.04-.07.06-.06.02-.09.02c-.07,0-.13-.01-.18-.04s-.1-.06-.13-.1-.06-.09-.08-.14-.03-.1-.03-.14v-.04s0-.02,0-.04l.11-.46ZM6.76,27.89c.01-.05.04-.12.07-.2s.09-.15.18-.21c.04-.02.09-.04.15-.06s.1-.03.13-.03.05,0,.08.03.05.04.07.06c.03.03.05.05.07.09.07,0,.11.03.13.07s.03.09.03.15c0,.04,0,.08-.01.11s-.01.06-.02.08c-.02.05-.05.1-.09.15s-.09.08-.15.12-.12.06-.18.08-.12.03-.16.03c-.06,0-.11-.01-.14-.03s-.07-.07-.12-.13c-.03-.04-.04-.07-.05-.09s0-.04,0-.06c0-.03,0-.05,0-.08s0-.04.01-.06Z"/><path class="cls-1" d="M10.54,29.44c-.09,0-.19.02-.29.06s-.21.1-.32.17-.23.16-.34.25-.23.19-.34.29c-.06.05-.11.09-.16.13s-.1.07-.16.09c-.04.06-.08.14-.12.24s-.08.2-.12.32-.08.23-.11.36-.06.23-.09.34c-.01.05-.02.11-.03.16s-.02.11-.03.17-.02.12-.04.19-.03.14-.05.23c-.01.05-.03.09-.06.12s-.06.05-.09.07-.06.03-.09.03-.05,0-.07,0c-.1,0-.18-.02-.24-.07s-.09-.14-.09-.27c0-.04,0-.08,0-.12s.01-.08.02-.13c.06-.25.11-.47.17-.67s.11-.38.16-.55.11-.33.17-.48.11-.3.17-.45.12-.31.18-.47.13-.34.21-.54c.02-.04.06-.08.12-.11s.14-.04.21-.04c.1,0,.18.02.24.07s.1.11.1.19c0,0,0,.02,0,.04s-.01.04-.02.07l-.17.41c.11-.09.22-.17.34-.26s.24-.16.37-.23.25-.12.38-.17.25-.06.37-.06c.25,0,.45.07.59.2s.21.34.21.62c0,.16-.03.34-.08.55s-.13.43-.21.66-.18.48-.27.74-.19.52-.27.79c-.02.07-.05.13-.07.18s-.05.09-.09.12-.07.05-.12.06-.1.02-.17.02c-.1,0-.17-.02-.21-.06s-.06-.1-.06-.18c0-.07.01-.16.03-.27s.05-.22.09-.35.09-.26.14-.4.11-.29.17-.44c.05-.12.1-.24.15-.36s.09-.24.13-.35.07-.22.09-.32.04-.2.04-.28c0-.08-.02-.15-.05-.21s-.1-.09-.2-.09Z"/><path class="cls-1" d="M16.19,31.96s.04,0,.06,0,.04.01.06.02.04.01.07.02.06,0,.1,0c.12,0,.26-.01.41-.04s.29-.06.42-.1.25-.09.34-.14.15-.11.16-.17c0-.03.01-.06.01-.08,0-.04-.02-.09-.06-.13s-.1-.08-.16-.12-.14-.07-.21-.1-.15-.06-.21-.09l-.13-.05c-.07-.03-.13-.06-.2-.1s-.13-.08-.18-.13-.11-.11-.15-.17-.08-.14-.1-.23c-.01-.04-.02-.07-.03-.11s0-.08,0-.12c0-.07.02-.15.07-.23s.11-.17.18-.26.16-.17.26-.25.2-.14.31-.2c.08-.05.15-.1.23-.15s.15-.08.22-.11.15-.06.23-.07.16-.03.24-.03c.08,0,.16,0,.25.01s.17.03.25.05.14.07.19.13.08.13.08.22c0,.03,0,.07-.01.11s-.02.09-.04.14-.04.09-.07.12-.06.05-.09.05c-.06,0-.11-.01-.15-.04s-.07-.05-.11-.08-.06-.05-.1-.08-.08-.04-.12-.04c-.06,0-.13.01-.21.03s-.16.05-.24.09-.17.08-.24.13-.15.1-.21.15-.12.1-.15.15-.06.1-.06.14.01.08.04.11.07.05.11.07c.06.03.12.06.2.09s.15.06.22.09.15.06.22.09.13.06.19.09c.07.04.13.07.19.11s.1.07.14.12.07.09.09.14.03.11.03.18c0,.03,0,.07,0,.1s-.01.07-.02.12c0,.04-.02.08-.04.14s-.04.1-.06.15-.04.1-.07.14-.04.07-.06.08c-.1.09-.22.18-.36.26s-.28.15-.43.21-.3.11-.45.15-.29.05-.41.05c-.06,0-.13-.01-.21-.04s-.15-.06-.21-.1-.12-.09-.16-.14-.06-.1-.06-.16c0-.03,0-.06.02-.09s.04-.06.06-.09.05-.05.08-.07.05-.03.08-.03Z"/><path class="cls-1" d="M20.08,29.17s.03-.08.04-.11.04-.05.06-.07.04-.03.06-.04.03-.01.04-.01c.03,0,.06,0,.1,0s.08.01.11.02c.04,0,.08.02.12.02.07,0,.12.03.15.08s.04.11.04.19c0,.06,0,.11-.02.16-.09.33-.17.61-.24.85s-.13.45-.19.62-.09.31-.12.41-.04.19-.04.24,0,.12.02.18.04.13.06.19.07.11.11.15.1.06.16.06c.11,0,.22-.03.33-.1s.22-.15.32-.25.19-.2.28-.31.15-.21.2-.29l.1-.18c.06-.11.12-.24.17-.38s.1-.28.14-.43.08-.28.1-.4.05-.23.07-.3l.1-.52c.02-.1.05-.17.1-.21s.12-.06.22-.06c.07,0,.12,0,.18.02s.1.04.13.08.06.08.08.15.03.14.03.24c0,.11-.02.25-.05.41s-.07.33-.12.49c-.02.1-.05.2-.07.31s-.05.22-.07.32-.04.21-.05.31-.02.19-.02.26c0,.13,0,.27.01.4s.01.27.01.42c0,.07,0,.13,0,.18s0,.09-.02.12c-.03.1-.07.18-.11.23s-.12.07-.23.07c-.08,0-.14,0-.18-.03s-.08-.04-.1-.07-.04-.06-.05-.1-.01-.07-.02-.11l-.04-.74h-.04c-.09.12-.18.24-.28.38s-.21.26-.34.38-.26.22-.4.29-.3.12-.47.12c-.03,0-.08,0-.13-.03s-.11-.04-.17-.06-.11-.06-.16-.09-.09-.06-.12-.09c-.14-.13-.25-.28-.3-.45s-.09-.34-.09-.51c0-.1,0-.19.02-.29s.03-.19.05-.28.04-.17.07-.25.04-.15.06-.21c.05-.2.09-.37.13-.52s.07-.28.1-.39.06-.21.08-.29.04-.15.05-.21Z"/><path class="cls-1" d="M23.84,32.39c.08-.3.15-.59.23-.85s.14-.51.21-.76.14-.47.2-.7.13-.46.19-.69c.02-.09.04-.18.04-.26s.02-.17.04-.26c.01-.03.03-.06.06-.08s.06-.05.09-.06.07-.03.11-.04.07-.02.11-.02c.07,0,.13,0,.18.03s.09.04.12.07.05.06.06.1.02.08.02.13c0,.09-.01.18-.04.27s-.06.19-.11.29c.12-.1.25-.19.38-.27s.26-.16.4-.23.28-.12.42-.16.29-.06.45-.06c.07,0,.14.01.21.03s.13.06.19.1.1.11.14.18.06.17.06.28c.11-.08.23-.15.35-.23s.24-.15.37-.21.25-.11.37-.15.24-.06.36-.06c.17,0,.32.02.43.07s.2.11.27.18.11.17.14.27.04.21.04.32c0,.12-.01.25-.04.39s-.05.26-.08.38c-.08.3-.16.59-.25.86s-.2.54-.3.82c-.03.07-.05.13-.08.21s-.06.14-.1.2-.08.11-.13.15-.11.06-.18.06c-.15,0-.26-.03-.32-.08s-.09-.13-.09-.22c0-.03,0-.06,0-.09s0-.07.02-.1c.01-.04.03-.1.07-.17s.08-.15.12-.24.08-.17.13-.26.07-.16.09-.23c.03-.11.07-.24.12-.39s.09-.3.13-.45.08-.29.1-.43.04-.24.04-.33c0-.04,0-.08-.01-.12s-.02-.07-.04-.1-.05-.05-.08-.07-.08-.03-.13-.03c-.08,0-.17.02-.28.07s-.22.1-.34.17-.23.15-.34.24-.2.18-.28.27c-.05.06-.11.11-.16.15s-.1.07-.15.09c0,.01-.02.04-.04.1s-.05.13-.07.21-.06.17-.09.27-.06.18-.09.27-.05.15-.07.21-.03.09-.03.09c-.02.07-.03.15-.05.22s-.02.15-.04.22-.02.15-.03.22-.03.15-.05.22-.07.13-.12.17-.13.07-.24.07c-.05,0-.1-.01-.14-.04s-.08-.06-.11-.1-.06-.09-.07-.14-.03-.1-.03-.15c.06-.23.12-.45.18-.63s.11-.37.17-.54.11-.34.17-.52.11-.36.16-.57c.01-.05.02-.1.03-.15s.01-.09.01-.13c0-.06-.01-.11-.04-.15s-.07-.06-.14-.06c-.11,0-.21.02-.32.06s-.22.11-.34.2-.26.21-.41.35-.32.31-.52.5c-.02.04-.05.11-.08.22s-.07.22-.1.34-.07.23-.1.33-.05.17-.05.21c-.03.11-.05.2-.06.28s-.02.14-.03.2c0,.03-.01.08-.02.15s-.03.14-.06.22-.07.14-.12.19-.11.08-.2.08c-.12,0-.22-.03-.29-.1s-.12-.15-.12-.25c0-.02,0-.04,0-.05s0-.03.01-.05Z"/><path class="cls-1" d="M30.71,32.39c.08-.3.15-.59.23-.85s.14-.51.21-.76.14-.47.2-.7.13-.46.19-.69c.02-.09.04-.18.04-.26s.02-.17.04-.26c.01-.03.03-.06.06-.08s.06-.05.09-.06.07-.03.11-.04.07-.02.11-.02c.07,0,.13,0,.18.03s.09.04.12.07.05.06.06.1.02.08.02.13c0,.09-.01.18-.04.27s-.06.19-.11.29c.12-.1.25-.19.38-.27s.26-.16.4-.23.28-.12.42-.16.29-.06.45-.06c.07,0,.14.01.21.03s.13.06.19.1.1.11.14.18.06.17.06.28c.11-.08.23-.15.35-.23s.24-.15.37-.21.25-.11.37-.15.24-.06.36-.06c.17,0,.32.02.43.07s.2.11.27.18.11.17.14.27.04.21.04.32c0,.12-.01.25-.04.39s-.05.26-.08.38c-.08.3-.16.59-.25.86s-.2.54-.3.82c-.03.07-.05.13-.08.21s-.06.14-.1.2-.08.11-.13.15-.11.06-.18.06c-.15,0-.26-.03-.32-.08s-.09-.13-.09-.22c0-.03,0-.06,0-.09s0-.07.02-.1c.01-.04.03-.1.07-.17s.08-.15.12-.24.08-.17.13-.26.07-.16.09-.23c.03-.11.07-.24.12-.39s.09-.3.13-.45.08-.29.1-.43.04-.24.04-.33c0-.04,0-.08-.01-.12s-.02-.07-.04-.1-.05-.05-.08-.07-.08-.03-.13-.03c-.08,0-.17.02-.28.07s-.22.1-.34.17-.23.15-.34.24-.2.18-.28.27c-.05.06-.11.11-.16.15s-.1.07-.15.09c0,.01-.02.04-.04.1s-.05.13-.07.21-.06.17-.09.27-.06.18-.09.27-.05.15-.07.21-.03.09-.03.09c-.02.07-.03.15-.05.22s-.02.15-.04.22-.02.15-.03.22-.03.15-.05.22-.07.13-.12.17-.13.07-.24.07c-.05,0-.1-.01-.14-.04s-.08-.06-.11-.1-.06-.09-.07-.14-.03-.1-.03-.15c.06-.23.12-.45.18-.63s.11-.37.17-.54.11-.34.17-.52.11-.36.16-.57c.01-.05.02-.1.03-.15s.01-.09.01-.13c0-.06-.01-.11-.04-.15s-.07-.06-.14-.06c-.11,0-.21.02-.32.06s-.22.11-.34.2-.26.21-.41.35-.32.31-.52.5c-.02.04-.05.11-.08.22s-.07.22-.1.34-.07.23-.1.33-.05.17-.05.21c-.03.11-.05.2-.06.28s-.02.14-.03.2c0,.03-.01.08-.02.15s-.03.14-.06.22-.07.14-.12.19-.11.08-.2.08c-.12,0-.22-.03-.29-.1s-.12-.15-.12-.25c0-.02,0-.04,0-.05s0-.03.01-.05Z"/><path class="cls-1" d="M37.53,31.14c0-.11.03-.21.09-.29s.14-.13.24-.16c.03-.06.07-.13.13-.23s.13-.2.22-.32.19-.23.3-.35.24-.22.38-.32.28-.17.44-.23.33-.09.5-.09c.15,0,.28.02.39.05s.2.09.28.15.13.14.16.23.05.19.05.29c0,.09-.01.17-.04.25-.04.15-.1.27-.2.38s-.22.21-.35.29-.28.15-.44.21-.32.1-.47.14-.31.06-.46.08-.27.03-.38.04c-.02.05-.04.11-.06.18s-.03.14-.03.21c0,.15.06.27.18.35s.29.12.5.12c.12,0,.24-.01.35-.04s.22-.06.32-.11.19-.09.28-.14.17-.1.24-.15c.09-.06.18-.12.27-.16s.16-.06.22-.06.11.02.12.05.03.07.03.1c0,.02,0,.04,0,.06s0,.04,0,.05c-.01.07-.04.14-.08.2s-.09.13-.15.18c-.27.21-.55.37-.83.46s-.59.14-.91.14c-.06,0-.14,0-.22-.01s-.17-.02-.26-.05-.18-.06-.27-.1-.17-.1-.24-.18-.12-.16-.17-.27-.06-.24-.06-.39c0-.12.02-.26.05-.41-.03,0-.07-.02-.1-.05s-.04-.07-.04-.13ZM39.97,30.06s0-.02,0-.04v-.04c0-.07-.03-.12-.08-.16s-.11-.05-.19-.05c-.11,0-.23.03-.34.09s-.21.13-.31.22-.18.19-.26.29-.13.2-.18.28c.19-.02.36-.04.52-.08s.29-.08.41-.13.21-.11.28-.18.12-.14.14-.21Z"/><path class="cls-1" d="M41.61,32.25c.03-.18.07-.38.12-.6s.09-.44.14-.66.09-.44.14-.66.08-.41.11-.59c0-.03,0-.05,0-.07v-.06c0-.08,0-.16.02-.24s.02-.16.04-.22c.03-.1.06-.17.1-.2s.09-.05.17-.05.14.01.18.04.08.07.11.12.04.11.05.17.01.13.01.2c0,.04,0,.08,0,.12s0,.08,0,.11c.07-.08.15-.15.23-.23s.17-.15.26-.21.19-.12.29-.16.21-.06.32-.06c.04,0,.09,0,.13.01s.09.02.13.03c.05.01.11.03.16.05s.11.05.16.09c.09.07.16.15.22.24s.09.2.09.3c0,.04,0,.08-.02.13s-.04.09-.06.12-.06.07-.1.09-.08.04-.12.04-.1-.01-.16-.03-.12-.05-.16-.09c-.02-.02-.04-.04-.06-.07s-.04-.06-.05-.09-.03-.06-.05-.08-.03-.04-.03-.05c-.01,0-.03,0-.04,0s-.03,0-.04,0c-.13,0-.26.03-.38.1s-.23.15-.34.25-.2.2-.29.31-.16.21-.23.3c-.05.21-.11.44-.17.67s-.13.49-.19.75v.1c0,.08,0,.16,0,.24s-.02.15-.05.21c-.03.04-.07.07-.12.1s-.12.04-.19.04c-.11,0-.19-.04-.25-.11s-.08-.16-.08-.25c0-.04,0-.09.02-.14Z"/><path class="cls-1" d="M6.54,41.78c.16-.01.29-.02.37-.02.22,0,.58.02,1.1.07s.9.09,1.17.13.43.08.5.12.12.09.16.16.06.14.06.22c0,.07-.05.13-.15.2s-.19.1-.28.1c-.1,0-.26-.02-.46-.07-.35-.09-.77-.15-1.26-.2s-.95-.07-1.37-.07c-.19,0-.38.03-.58.09-.11.04-.22.06-.33.06-.07,0-.12-.02-.17-.06s-.07-.09-.07-.16c0-.24.19-.53.56-.87s.89-.69,1.57-1.03c.83-.42,1.37-.78,1.64-1.07s.4-.57.4-.84c0-.25-.1-.47-.29-.66s-.44-.28-.74-.28c-.27,0-.52.05-.75.14s-.45.26-.67.5c-.09.1-.17.15-.25.15-.09,0-.18-.03-.25-.1s-.11-.14-.11-.23c0-.27.21-.52.63-.76s.92-.37,1.48-.37c.49,0,.89.15,1.22.44s.49.67.49,1.14-.18.89-.53,1.28-1.02.82-1.99,1.28c-.42.2-.77.43-1.07.69Z"/><path class="cls-1" d="M15.96,38.75c0,.58-.17,1.18-.49,1.8s-.75,1.14-1.26,1.53-1.01.59-1.5.59-.91-.17-1.22-.51-.46-.8-.46-1.4.17-1.16.52-1.77.78-1.11,1.31-1.5,1.03-.58,1.5-.58c.5,0,.89.16,1.18.49s.43.77.43,1.34ZM11.78,40.87c0,.33.09.61.26.82s.4.32.68.32c.37,0,.74-.17,1.13-.51s.71-.78.96-1.32.38-1.05.38-1.52c0-.34-.07-.59-.22-.78s-.36-.27-.63-.27c-.38,0-.77.17-1.17.49s-.73.75-.99,1.28-.39,1.02-.39,1.5Z"/><path class="cls-1" d="M17.5,41.78c.16-.01.29-.02.37-.02.22,0,.58.02,1.1.07s.9.09,1.17.13.43.08.5.12.12.09.16.16.06.14.06.22c0,.07-.05.13-.15.2s-.19.1-.28.1c-.1,0-.26-.02-.46-.07-.35-.09-.77-.15-1.26-.2s-.95-.07-1.37-.07c-.19,0-.38.03-.58.09-.11.04-.22.06-.33.06-.07,0-.12-.02-.17-.06s-.07-.09-.07-.16c0-.24.19-.53.56-.87s.89-.69,1.57-1.03c.83-.42,1.37-.78,1.64-1.07s.4-.57.4-.84c0-.25-.1-.47-.29-.66s-.44-.28-.74-.28c-.27,0-.52.05-.75.14s-.45.26-.67.5c-.09.1-.17.15-.25.15-.09,0-.18-.03-.25-.1s-.11-.14-.11-.23c0-.27.21-.52.63-.76s.92-.37,1.48-.37c.49,0,.89.15,1.22.44s.49.67.49,1.14-.18.89-.53,1.28-1.02.82-1.99,1.28c-.42.2-.77.43-1.07.69Z"/><path class="cls-1" d="M25.61,39.75c.43-.01.7-.02.8-.02.09,0,.16.02.21.05s.07.11.07.21c0,.13-.04.24-.12.32s-.19.12-.33.12c-.37,0-.65,0-.86,0-.23.69-.38,1.21-.43,1.55-.04.28-.09.47-.14.56s-.16.14-.32.14c-.11,0-.2-.04-.26-.11s-.09-.17-.09-.29c0-.26.17-.87.51-1.82-1.25.03-2,.05-2.23.05-.12,0-.23-.05-.32-.14s-.13-.2-.13-.32c0-.14.15-.46.45-.97s.64-.97,1.02-1.38.69-.62.91-.62.33.07.33.2c0,.09-.06.18-.19.27-.34.24-.69.63-1.05,1.17s-.57.92-.63,1.12c.22,0,.92-.02,2.1-.06.29-.78.53-1.39.72-1.8s.33-.69.43-.82.21-.2.34-.2c.14,0,.21.07.21.22,0,.09-.06.26-.18.51s-.24.55-.38.9l-.44,1.17Z"/></svg>