<?xml version="1.0" encoding="UTF-8"?><svg id="_2600-removebg-preview_画像" xmlns="http://www.w3.org/2000/svg" viewBox="0 0 50 50"><defs><style>.cls-1{fill:#ffac32;stroke-width:0px;}</style></defs><path class="cls-1" d="M24.49,44.93c-1.24-.55-1.79-1.49-1.68-2.85.05-.64-.02-1.3.04-1.94.12-1.23,1.01-1.99,2.2-1.96,1.15.03,2,.77,2.1,1.96.07.91.05,1.84,0,2.76-.05,1.06-.79,1.6-1.64,2.03h-1.02Z"/><path class="cls-1" d="M35.98,24.96c0,6.15-4.81,11.01-11.02,11.1-5.94.09-10.95-4.97-10.95-11.07,0-6.19,4.8-11.01,11.02-11.06,6.02-.05,10.94,4.91,10.95,11.03Z"/><path class="cls-1" d="M9.86,13.21c-.01-1.62,1.81-2.76,3.18-2.03,1.16.61,2.06,1.57,2.67,2.74.44.85.19,1.65-.47,2.33-.62.65-1.38.99-2.21.59-1.31-.64-2.27-1.7-3-2.96-.13-.22-.14-.52-.17-.67Z"/><path class="cls-1" d="M36.46,16.98c-1.7.03-2.87-1.81-2.12-3.2.56-1.03,1.4-1.86,2.38-2.49,1.04-.67,2.07-.44,2.91.53.69.81.72,1.82-.03,2.7-.59.7-1.27,1.32-1.95,1.95-.36.33-.82.47-1.19.5Z"/><path class="cls-1" d="M13.25,40.18c-1.01-.09-1.65-.63-2.07-1.42-.41-.78-.24-1.56.3-2.19.62-.72,1.3-1.4,2.02-2.02.79-.67,1.74-.63,2.54-.02.91.7,1.27,1.6.8,2.49-.67,1.29-1.72,2.27-2.98,2.99-.2.11-.45.13-.62.17Z"/><path class="cls-1" d="M27.16,8.4c0,.48.04.96,0,1.43-.13,1.18-.97,1.92-2.12,1.94-1.19.02-2.08-.75-2.18-1.98-.07-.88-.06-1.77,0-2.66.08-1.25,1.01-2.07,2.24-2.06,1.12.01,2,.89,2.09,2.1.03.41,0,.82,0,1.23,0,0-.01,0-.02,0Z"/><path class="cls-1" d="M8.56,22.79c.37,0,.75-.02,1.12,0,1.33.07,2.1.85,2.12,2.13.03,1.32-.76,2.17-2.13,2.23-.82.03-1.64.04-2.45,0-1.3-.08-2.03-.91-2.01-2.22.02-1.25.76-2.03,2.01-2.12.44-.03.89,0,1.33,0,0,0,0,0,0,0Z"/><path class="cls-1" d="M39.02,37.83c-.03,1.73-1.91,2.84-3.25,2-.98-.62-1.8-1.47-2.45-2.43-.55-.81-.51-1.67.18-2.44.67-.75,1.5-1.19,2.45-.69,1.25.66,2.21,1.68,2.91,2.91.13.23.13.52.16.65Z"/><path class="cls-1" d="M41.46,27.16c-.37,0-.75.02-1.12,0-1.31-.07-2.11-.86-2.14-2.12-.04-1.31.73-2.15,2.12-2.23.81-.05,1.63-.04,2.45,0,1.3.07,2.04.9,2.02,2.21-.01,1.25-.74,2.04-2,2.13-.44.03-.88,0-1.33,0,0,0,0,0,0,0Z"/></svg>