<?xml version="1.0" encoding="UTF-8"?><svg id="VOCALOID_CLUB_COLLECTION" xmlns="http://www.w3.org/2000/svg" viewBox="0 0 200 50"><defs><style>.cls-1{fill:#f18d00;stroke-width:0px;}</style></defs><path class="cls-1" d="M14.91,6.59c.32,0,.48.17.48.5,0,.17-.05.37-.16.59s-.19.4-.25.54l-6.36,15.71L.91,6.72h6.4l3.73,8.77,2.61-6.54c.28-.7.46-1.21.55-1.52s.18-.53.28-.65.25-.18.43-.18Z"/><path class="cls-1" d="M19.59,21.18c-.77-.75-1.39-1.67-1.85-2.74s-.69-2.25-.69-3.52.22-2.41.65-3.42,1.03-1.89,1.8-2.63c1.64-1.58,3.7-2.37,6.18-2.37s4.48.78,6.05,2.33c1.59,1.58,2.39,3.62,2.39,6.14s-.82,4.57-2.45,6.19c-1.02,1-2.28,1.69-3.77,2.07-.74.19-1.6.28-2.58.28s-1.99-.2-3.02-.6-1.93-.98-2.71-1.73ZM25.67,7.36c-.43,0-.83.03-1.21.09v15.12c.36.06.76.09,1.21.09,2.09,0,3.84-.7,5.27-2.09,1.49-1.45,2.24-3.31,2.24-5.6s-.7-3.99-2.1-5.44c-1.41-1.45-3.22-2.18-5.41-2.18Z"/><path class="cls-1" d="M50.9,20.52c.32,0,.48.18.48.54,0,.3-.23.59-.68.89-.84.55-1.55.92-2.13,1.09-1.09.32-2.23.48-3.42.48s-2.35-.21-3.45-.64-2.05-1.02-2.83-1.79c-1.63-1.61-2.45-3.69-2.45-6.23,0-1.23.23-2.35.69-3.38s1.1-1.91,1.91-2.64c1.72-1.55,3.88-2.33,6.48-2.33,1.46,0,2.75.25,3.86.75,1.18.52,1.77.97,1.77,1.34,0,.15-.05.28-.15.39s-.21.16-.33.16c-.25,0-.48-.11-.68-.33s-.48-.42-.83-.6-.73-.34-1.14-.47c-.84-.26-1.61-.39-2.3-.39s-1.26.05-1.72.14v15.02c.55.09,1.03.14,1.45.14s.85-.03,1.29-.08.87-.14,1.29-.27c.95-.28,1.66-.7,2.13-1.24.17-.2.31-.34.41-.42s.22-.12.35-.12Z"/><path class="cls-1" d="M57.22,21.21c-1.43,0-2.41-.01-2.93-.04l-.34.81c-.1.23-.2.46-.28.71-.18.48-.43.73-.75.73-.15,0-.27-.05-.36-.14s-.14-.19-.14-.29c0-.17.07-.36.22-.57.23-.33.46-.76.69-1.29-.67-.06-1.01-.26-1.01-.59s.19-.49.57-.49c.23,0,.51.04.82.12l5.85-14.2,8.02,17.33h-6.11l-.97-2.09h-3.28ZM54.66,20.26c.75.06,1.42.09,2.02.09h3.43l-2.93-6.32-2.52,6.22Z"/><path class="cls-1" d="M80.21,22.23c.41,0,.62.18.62.53,0,.14-.08.27-.25.38s-.47.16-.9.16h-9.52V6.72h5.98v15.81h2.19c.49,0,.92-.05,1.27-.15s.56-.15.6-.15Z"/><path class="cls-1" d="M84.8,21.18c-.77-.75-1.39-1.67-1.85-2.74s-.69-2.25-.69-3.52.22-2.41.65-3.42,1.03-1.89,1.8-2.63c1.64-1.58,3.7-2.37,6.18-2.37s4.48.78,6.05,2.33c1.59,1.58,2.39,3.62,2.39,6.14s-.82,4.57-2.45,6.19c-1.02,1-2.28,1.69-3.77,2.07-.74.19-1.6.28-2.58.28s-1.99-.2-3.02-.6-1.93-.98-2.71-1.73ZM90.88,7.36c-.43,0-.83.03-1.21.09v15.12c.36.06.76.09,1.21.09,2.09,0,3.84-.7,5.27-2.09,1.49-1.45,2.24-3.31,2.24-5.6s-.7-3.99-2.1-5.44c-1.41-1.45-3.22-2.18-5.41-2.18Z"/><path class="cls-1" d="M102.47,6.72h5.98v16.58h-5.98V6.72Z"/><path class="cls-1" d="M112.39,6.72h4.88c2.27,0,3.94.16,5,.48,1.21.38,2.15.86,2.81,1.44s1.18,1.19,1.55,1.82c.77,1.27,1.15,2.72,1.15,4.34,0,2.55-.91,4.61-2.74,6.19-1.3,1.13-2.82,1.83-4.58,2.1-.98.15-2.34.22-4.1.22h-3.96V6.72ZM118.36,22.33c.12,0,.24.01.34.01h.27c2.12,0,3.93-.66,5.43-1.98,1.59-1.39,2.38-3.24,2.38-5.54,0-1.45-.35-2.76-1.04-3.93-1.01-1.7-2.6-2.72-4.78-3.08-.71-.12-1.57-.18-2.59-.2v14.72Z"/><path class="cls-1" d="M149.66,20.52c.32,0,.48.18.48.54,0,.3-.23.59-.68.89-.84.55-1.55.92-2.13,1.09-1.09.32-2.23.48-3.42.48s-2.35-.21-3.45-.64-2.05-1.02-2.83-1.79c-1.63-1.61-2.45-3.69-2.45-6.23,0-1.23.23-2.35.69-3.38s1.1-1.91,1.91-2.64c1.72-1.55,3.88-2.33,6.48-2.33,1.46,0,2.75.25,3.86.75,1.18.52,1.77.97,1.77,1.34,0,.15-.05.28-.15.39s-.21.16-.33.16c-.25,0-.48-.11-.68-.33s-.48-.42-.83-.6-.73-.34-1.14-.47c-.84-.26-1.61-.39-2.3-.39s-1.26.05-1.72.14v15.02c.55.09,1.03.14,1.45.14s.85-.03,1.29-.08.87-.14,1.29-.27c.95-.28,1.66-.7,2.13-1.24.17-.2.31-.34.41-.42s.22-.12.35-.12Z"/><path class="cls-1" d="M163.09,22.23c.41,0,.62.18.62.53,0,.14-.08.27-.25.38s-.47.16-.9.16h-9.52V6.72h5.98v15.81h2.19c.49,0,.92-.05,1.27-.15s.56-.15.6-.15Z"/><path class="cls-1" d="M180.57,7.21l-.07,1.45v7.01c0,2.31-.66,4.19-1.99,5.64-1.36,1.48-3.16,2.21-5.41,2.21-2.41,0-4.28-.75-5.62-2.26-1.25-1.38-1.88-3.16-1.88-5.32V6.72h5.99v15.81c.6.09,1.26.13,1.99.13s1.46-.14,2.2-.43,1.4-.74,1.96-1.36c1.22-1.33,1.84-3.27,1.85-5.82v-6.35c0-.23-.02-.51-.05-.83s-.05-.54-.05-.66c0-.41.19-.61.57-.61.34,0,.52.21.52.62Z"/><path class="cls-1" d="M184.35,6.72h5.03c1.25,0,2,0,2.27.01,1.16.05,1.97.19,2.45.4s.86.46,1.14.72c.6.59.9,1.31.9,2.16s-.29,1.57-.88,2.2c-.18.2-.39.36-.62.5,1.27.23,2.32.77,3.13,1.61.88.91,1.32,2.01,1.32,3.32s-.41,2.47-1.23,3.43c-1.15,1.33-2.92,2.05-5.32,2.18-.61.03-1.21.05-1.8.05h-6.39V6.72ZM192.04,12.48l.6.07h.19c.62,0,1.15-.23,1.61-.68.48-.48.73-1.08.73-1.78,0-.86-.37-1.52-1.11-1.98-.38-.23-.75-.37-1.12-.42s-.66-.07-.87-.09c-.44-.03-1.01-.05-1.72-.05v14.87h1.3c1.33,0,2.41-.16,3.25-.49,1-.34,1.79-.9,2.38-1.66.55-.73.83-1.49.83-2.29s-.12-1.47-.35-2.02-.57-1.01-1.02-1.39c-.91-.79-2.17-1.18-3.79-1.18l-.81.07c-.25,0-.43-.05-.55-.15s-.18-.22-.18-.35c0-.32.21-.48.64-.48Z"/><path class="cls-1" d="M16.53,40.52c.32,0,.48.18.48.54,0,.3-.23.59-.68.89-.84.55-1.55.92-2.13,1.09-1.09.32-2.23.48-3.42.48s-2.35-.21-3.45-.64-2.05-1.02-2.83-1.79c-1.63-1.61-2.45-3.69-2.45-6.23,0-1.23.23-2.35.69-3.38s1.1-1.91,1.91-2.64c1.72-1.55,3.88-2.33,6.48-2.33,1.46,0,2.75.25,3.86.75,1.18.52,1.77.97,1.77,1.34,0,.15-.05.28-.15.39s-.21.16-.33.16c-.25,0-.48-.11-.68-.33s-.48-.42-.83-.6-.73-.34-1.14-.47c-.84-.26-1.61-.39-2.3-.39s-1.26.05-1.72.14v15.02c.55.09,1.03.14,1.45.14s.85-.03,1.29-.08.87-.14,1.29-.27c.95-.28,1.66-.7,2.13-1.24.17-.2.31-.34.41-.42s.22-.12.35-.12Z"/><path class="cls-1" d="M21.65,41.18c-.77-.75-1.39-1.67-1.85-2.74s-.69-2.25-.69-3.52.22-2.41.65-3.42,1.03-1.89,1.8-2.63c1.64-1.58,3.7-2.37,6.18-2.37s4.48.78,6.05,2.33c1.59,1.58,2.39,3.62,2.39,6.14s-.82,4.57-2.45,6.19c-1.02,1-2.28,1.69-3.77,2.07-.74.19-1.6.28-2.58.28s-1.99-.2-3.02-.6-1.93-.98-2.71-1.73ZM27.73,27.36c-.43,0-.83.03-1.21.09v15.12c.36.06.76.09,1.21.09,2.09,0,3.84-.7,5.27-2.09,1.49-1.45,2.24-3.31,2.24-5.6s-.7-3.99-2.1-5.44c-1.41-1.45-3.22-2.18-5.41-2.18Z"/><path class="cls-1" d="M49.56,42.23c.41,0,.62.18.62.53,0,.14-.08.27-.25.38s-.47.16-.9.16h-9.52v-16.58h5.98v15.81h2.19c.49,0,.92-.05,1.27-.15s.56-.15.6-.15Z"/><path class="cls-1" d="M62.47,42.23c.41,0,.62.18.62.53,0,.14-.08.27-.25.38s-.47.16-.9.16h-9.52v-16.58h5.98v15.81h2.19c.49,0,.92-.05,1.27-.15s.56-.15.6-.15Z"/><path class="cls-1" d="M75.6,42.29c.4,0,.6.16.6.47,0,.14-.09.27-.26.38s-.47.16-.89.16h-9.93v-16.58h9.23l.96-.04c.59,0,.88.17.88.52,0,.13-.05.26-.15.37s-.21.17-.33.17c-.2,0-.42-.02-.64-.07-.34-.07-.8-.11-1.38-.11h-2.59v3.57h2.13l1.44-.06c.17,0,.32.04.44.12s.18.2.18.35c0,.33-.22.49-.66.49h-.5c-.26-.04-.47-.05-.64-.05h-2.39v10.45h2.59c.58,0,.99-.02,1.23-.07.29-.05.52-.08.68-.08Z"/><path class="cls-1" d="M92.78,40.52c.32,0,.48.18.48.54,0,.3-.23.59-.68.89-.84.55-1.55.92-2.13,1.09-1.09.32-2.23.48-3.42.48s-2.35-.21-3.45-.64-2.05-1.02-2.83-1.79c-1.63-1.61-2.45-3.69-2.45-6.23,0-1.23.23-2.35.69-3.38s1.1-1.91,1.91-2.64c1.72-1.55,3.88-2.33,6.48-2.33,1.46,0,2.75.25,3.86.75,1.18.52,1.77.97,1.77,1.34,0,.15-.05.28-.15.39s-.21.16-.33.16c-.25,0-.48-.11-.68-.33s-.48-.42-.83-.6-.73-.34-1.14-.47c-.84-.26-1.61-.39-2.3-.39s-1.26.05-1.72.14v15.02c.55.09,1.03.14,1.45.14s.85-.03,1.29-.08.87-.14,1.29-.27c.95-.28,1.66-.7,2.13-1.24.17-.2.31-.34.41-.42s.22-.12.35-.12Z"/><path class="cls-1" d="M108.2,27.02c0,.36-.38.54-1.14.54h-2.72v15.74h-6v-15.74h-1.76c-.6,0-1.02.03-1.24.08-.3.06-.51.09-.64.09-.4,0-.6-.16-.6-.47,0-.37.39-.55,1.16-.55h10.45c.54,0,.94-.02,1.2-.07.31-.05.55-.08.7-.08.39,0,.59.15.59.46Z"/><path class="cls-1" d="M110.49,26.72h5.98v16.58h-5.98v-16.58Z"/><path class="cls-1" d="M122.14,41.18c-.77-.75-1.39-1.67-1.85-2.74s-.69-2.25-.69-3.52.22-2.41.65-3.42,1.03-1.89,1.8-2.63c1.64-1.58,3.7-2.37,6.18-2.37s4.48.78,6.05,2.33c1.59,1.58,2.39,3.62,2.39,6.14s-.82,4.57-2.45,6.19c-1.02,1-2.28,1.69-3.77,2.07-.74.19-1.6.28-2.58.28s-1.99-.2-3.02-.6-1.93-.98-2.71-1.73ZM128.22,27.36c-.43,0-.83.03-1.21.09v15.12c.36.06.76.09,1.21.09,2.09,0,3.84-.7,5.27-2.09,1.49-1.45,2.24-3.31,2.24-5.6s-.7-3.99-2.1-5.44c-1.41-1.45-3.22-2.18-5.41-2.18Z"/><path class="cls-1" d="M141.06,41.62l.04,1.17c0,.2-.05.36-.16.47s-.24.16-.39.16-.28-.05-.38-.15-.15-.21-.15-.33,0-.23.03-.34.04-.22.05-.36c.04-.23.06-.79.06-1.7v-14.58l12.74,10.1v-6.98c0-.53-.02-.91-.05-1.14-.04-.37-.06-.62-.06-.77,0-.39.17-.59.5-.59.13,0,.26.05.38.14s.18.23.18.41v.41l-.05,1.7v14.7l-12.74-10v7.68Z"/></svg>